<svg id="Layer_1" data-name="Layer 1" xmlns="http://www.w3.org/2000/svg" width="480" height="432.48">
  <defs>
    <style>
      .cls-1{fill:#91a1af}.cls-2{fill:#c10021}.cls-3{fill:#fff}
    </style>
  </defs>
  <path class="cls-1" d="M142.83 334.34h-4.16V331h11.92v3.39h-4.16v21.73h-3.6zM170.61 336.88a6 6 0 1 1 12.06 0v13.26a6 6 0 1 1-12.06 0zm3.6 13.26a2.43 2.43 0 1 0 4.86 0v-13.26a2.43 2.43 0 1 0-4.86 0zM204.91 331h5.79c4.27 0 6.35 2.5 6.35 7.37 0 2.9-.81 5-3.1 6.28l3.88 11.47H214l-3.36-10.73h-2.15v10.73h-3.6zm3.6 11.22h2.05c2.5 0 2.89-1.41 2.89-3.92s-.42-3.91-3.07-3.91h-1.87zM240.61 336.88a6 6 0 1 1 12.07 0v13.26a6 6 0 1 1-12.07 0zm3.6 13.26a2.44 2.44 0 1 0 4.87 0v-13.26a2.44 2.44 0 1 0-4.87 0zM276.18 331h3.46l5.43 15.13h.07V331h3.6v25.12h-3.39l-5.5-15.1h-.07v15.1h-3.6zM314.81 334.34h-4.16V331h11.92v3.39h-4.16v21.73h-3.6zM344 336.88a6 6 0 1 1 12.07 0v13.26a6 6 0 1 1-12.07 0zm3.6 13.26a2.44 2.44 0 1 0 4.87 0v-13.26a2.44 2.44 0 1 0-4.87 0z" transform="translate(-10 -33.76)"/>
  <g>
    <path class="cls-2" d="M228.01 348.83h17.32v83.65h-17.32zM362.34 432.48v-48.12l29.7 48.12h15.35v-83.65h-17.32v48.11l-29.63-48.11h-15.41v83.65h17.31zM421.48 348.8v16.34h20.6v67.19h17.3v-61.95l-1.81-5.24H480V348.8h-58.52z"/>
    <path class="cls-2" d="M313.64 382.49h-13.75l-28.55 80.84-.93 2.88h18.34l3.3-9.9-2.64-8.51 4.67 2.45 30.06 16h19zm-14.49 52.36L307 411.3l10.38 33z" transform="translate(-10 -33.76)"/>
    <path class="cls-2" d="M212.44 365.78V348.8h-57.42v83.53h17.3v-27.72l-2-5.44h2v-.01h34.76v-16.34h-34.76v-17.04h40.12zM137.04 365.78V348.8H79.62v83.53h57.42v-16.98H96.92V404.4l-1.8-5.23h36.56v-16.45H96.92v-16.94h40.12z"/>
    <path class="cls-2" d="M61.78 382.57H10v83.6h51.78L72.92 455v-61.29s-11.14-11.12-11.14-11.14m-6.46 63.48l-2 2.51H27.6v-43.11l-1.79-5.27h26.27s3.2 3.27 3.24 3.23z" transform="translate(-10 -33.76)"/>
  </g>
  <g>
    <path class="cls-3" d="M304.09 135.36l-44.56-37.19H103.62l44.89 37.19h44.01v31.15l8.82 1.86-8.82 5.04v56.89l38.53 36.19V135.36h73.04z"/>
    <path class="cls-3" d="M393.16 168.45h-.07l-152-134.15v-.53l-38.57 36.17v49.26h38.53V88.52l94 79.94-81.64 69 .05 53.94 46.14-40.63 1.4-15.87s3 6.49 4.82 10.45l16.46-14.48-9.61-15.7 16.91 9.26 63.52-55.92h.07z" transform="translate(-10 -33.76)"/>
  </g>
</svg>
