<svg xmlns="http://www.w3.org/2000/svg" xmlns:xlink="http://www.w3.org/1999/xlink" viewBox="0 0 500 500">
  <defs>
    <path id="a" d="M381.5 267.9c11.1 5 31.2 7.2 31.2 7.2s-15.1-15.8-14.3-25.5c.7-9.7-2.1-22.6-2.1-22.6l21.9 8.2s-24-24.4-30.5-45.5c-6.5-21.2-17.2-53.1-42.3-69.2-14.7-27.3-34.8-53.8-34.8-53.8l-26.7-19-8.4 12.6L250.2 29l-25.1 31.2-8.4-12.6-26.7 19s-20.1 26.5-34.8 53.8c-25.1 16.1-35.9 48.1-42.3 69.2-6.5 21.2-30.5 45.5-30.5 45.5l21.9-8.2s-2.9 12.9-2.2 22.6c.7 9.7-14.3 25.5-14.3 25.5s20.1-2.2 31.2-7.2c-3.9 6.5-21.9 20.8-47.7 15.4 6.8 9.3 31.6 14 44.8 8.6-9 11.1 0 44.5 0 49.5s.4 15.4-12.9 25.8c20.8 10.8 44.5-9 44.5-9s5.4 19 5.4 24-2.9 6.1 0 22.2 12.2 28 12.2 28l19.4 9s-2.2-18.6 3.2-23c3.9 11.1 14 24.4 14 24.4s18.7 14 31.6 21.5c-6.5-7.9-10.9-29.8-10.9-29.8l27.8 29.8 27.8-29.8s-4.5 21.9-10.9 29.8c12.9-7.5 31.6-21.5 31.6-21.5s10-13.3 14-24.4c5.4 4.3 3.2 23 3.2 23l19.4-9s9.3-11.8 12.2-28c2.9-16.1 0-17.2 0-22.2s5.4-24 5.4-24 23.7 19.7 44.5 9c-13.3-10.4-12.9-20.8-12.9-25.8s9-38.4 0-49.5c13.3 5.4 38 .7 44.8-8.6-26.1 5.5-44.1-8.9-48-15.3"/>
  </defs>
  <clipPath id="b">
    <use xlink:href="#a" overflow="visible"/>
  </clipPath>
  <path clip-path="url(#b)" fill="#09226b" d="M58.2 16h384v461.5h-384z"/>
  <defs>
    <path id="c" d="M57 18.4h386.4v459.2H57z"/>
  </defs>
  <clipPath id="d">
    <use xlink:href="#c" overflow="visible"/>
  </clipPath>
  <g clip-path="url(#d)">
    <defs>
      <path id="e" d="M57 18.4h386.4v459.5H57z"/>
    </defs>
    <clipPath id="f">
      <use xlink:href="#e" overflow="visible"/>
    </clipPath>
    <g clip-path="url(#f)">
      <defs>
        <path id="g" d="M422.7 275.8c-4.1-3.7-15.5-17.8-15.5-28.1 0-3.3-.2-4.4-.5-7.8 7.5 4.3 22.3 4.4 29.6-1.9-6.1-2.4-8.1-4.5-12.1-8.8-.2-.2-22.7-23.2-28.4-42.1-5.4-17.5-16.4-53.6-44-72.6-14.7-26.8-33.7-51.9-34.5-53-.5-.7-1.1-1.3-1.9-1.8L282 36.3l-7.3 9.6S257 26.1 250.2 18.4c-6.8 7.7-24.5 27.5-24.5 27.5l-7.3-9.6L185 59.7c-.7.5-1.3 1.1-1.8 1.8-.8 1.1-19.8 26.2-34.5 53-27.6 19-38.6 55.1-44 72.6-5.7 19-28.1 41.9-28.3 42.2-4 4.3-6 6.4-12.1 8.8 7.3 6.3 22.1 6.2 29.6 1.9-.3 3.4-.5 4.5-.5 7.8 0 10.3-11.4 24.4-15.5 28.1-2-.1-9.2.9-20.8-5.5.7 8.7 4.2 14 7.4 18 7.5 9.4 24.5 14.7 39.5 14.3-.9 10.1.8 22.1 2.8 33.3.4 2.2.9 4.9.9 5.5v.4c0 4.4.3 11.5-9.7 18.7-4.6 3.3-7.5 3.2-10.9 2.6 2.3 5.3 8.4 9.7 12.2 11.6 16.1 8.2 32.7 2.6 43.1-3 4.1 12.6.1 22.2 2.2 34.2 3.2 18 13.4 31.2 13.9 31.7.8 1 1.9 1.9 3.1 2.5l31.6 14.6-.8-10.3c1.4 2 2.4 3.3 2.5 3.5.5.6 1 1.2 1.7 1.7.8.6 18.9 14.9 32.4 22.1 10 5.4 18.8 5.9 21.1 5.9 2.3 0 11.1-.6 21.1-5.9 13.5-7.2 31.6-21.5 32.4-22.1.6-.5 1.2-1 1.7-1.7.1-.2 1.1-1.5 2.5-3.5l-.8 10.3 31.6-14.6c1.2-.6 2.3-1.4 3.1-2.5.4-.6 10.7-13.7 13.9-31.7 2.1-12.1-1.8-21.7 2.2-34.2 10.5 5.6 27.1 11.2 43.1 3 3.8-1.9 9.9-6.3 12.2-11.6-3.4.6-6.3.7-10.9-2.6-10-7.2-9.7-14.3-9.7-18.7v-.4c0-.6.5-3.3.9-5.5 2-11.2 3.7-23.2 2.8-33.3 15 .4 32-4.9 39.5-14.3 3.2-4 6.7-9.2 7.4-18-11.2 6.3-18.4 5.3-20.4 5.4m-38.3 16.1c9 11.1 0 44.5 0 49.5s-.4 15.4 12.9 25.8c-20.8 10.8-44.5-9-44.5-9s-5.4 19-5.4 24 2.9 6.1 0 22.2-12.2 28-12.2 28l-19.4 9s2.2-18.6-3.2-23c-3.9 11.1-14 24.4-14 24.4s-18.6 14-31.6 21.5c6.5-7.9 10.9-29.8 10.9-29.8l-27.8 29.8-27.8-29.8s4.5 21.9 10.9 29.8c-12.9-7.5-31.6-21.5-31.6-21.5s-10-13.3-14-24.4c-5.4 4.3-3.2 23-3.2 23l-19.4-9s-9.3-11.8-12.2-28c-2.9-16.1 0-17.2 0-22.2s-5.4-24-5.4-24-23.7 19.7-44.5 9c13.3-10.4 12.9-20.8 12.9-25.8s-9-38.4 0-49.5c-13.3 5.4-38 .7-44.8-8.6 25.8 5.4 43.7-9 47.7-15.4-11.1 5-31.2 7.2-31.2 7.2s15.1-15.8 14.3-25.5c-.7-9.7 2.2-22.6 2.2-22.6l-21.9 8.2s24-24.4 30.5-45.5c6.5-21.2 17.2-53.1 42.3-69.2 15-27.3 35.1-53.8 35.1-53.8l26.7-19 8.4 12.6L250.2 29l25.1 31.2 8.4-12.6 26.7 19s20.1 26.5 34.8 53.8c25.1 16.1 35.9 48.1 42.3 69.2 6.5 21.2 30.5 45.5 30.5 45.5l-21.9-8.2s2.9 12.9 2.1 22.6c-.7 9.7 14.3 25.5 14.3 25.5s-20.1-2.2-31.2-7.2c3.9 6.5 21.9 20.8 47.7 15.4-6.6 9.4-31.4 14.1-44.6 8.7"/>
      </defs>
      <clipPath id="h">
        <use xlink:href="#g" overflow="visible"/>
      </clipPath>
      <g clip-path="url(#h)">
        <defs>
          <path id="i" d="M57 18.4h386.4v459.5H57z"/>
        </defs>
        <clipPath id="j">
          <use xlink:href="#i" overflow="visible"/>
        </clipPath>
        <path clip-path="url(#j)" fill="#2fb228" d="M44 5.3h412.5v485.4H44z"/>
      </g>
    </g>
  </g>
  <defs>
    <path id="k" d="M378.3 208.7c-9.3-24-32.6-44.1-32.6-44.1l-21.5-26.2-42 18.3 32.3-30.5-27.6-43-13.6 22.6-23-39.1-23 39.1-13.6-22.6-27.6 43 32.3 30.5-42-18.3-21.5 26.2s-23.3 20.1-32.6 44.1c10.4-6.1 13.3-8.2 13.3-8.2l-9.3 56.3 43.8-44.5 15.4-33 50.6 22.6h28.6l50.6-22.6 15.4 33 43.8 44.5-9.3-56.3c-.2-.1 2.7 2.1 13.1 8.2"/>
  </defs>
  <clipPath id="l">
    <use xlink:href="#k" overflow="visible"/>
  </clipPath>
  <path clip-path="url(#l)" fill="#2fb228" d="M109.2 53.6h282.2v216.2H109.2z"/>
  <g>
    <defs>
      <path id="m" d="M361.4 276.8c-4.3-7.5-20.1-20.1-20.1-20.1l-28.7-15.1-26.9 8.2 18.7-22.2-40.5-16.1-13.6 10.4-13.6-10.4-40.5 16.1 18.7 22.2-26.9-8.2-28.7 15.1s-15.8 12.6-20.1 20.1c10-6.1 21.2-7.2 21.2-7.2s-19 38.7-19.7 65.3c29-36.2 64.2-73.2 64.2-73.2l45.5 11.5 45.5-11.5s35.1 36.9 64.2 73.2c-.7-26.5-19.7-65.3-19.7-65.3s11 1.1 21 7.2zm-101.8-27.2H241l-15.8-17.9h12.6l12.5 8.6 12.6-8.6h12.6l-15.9 17.9z"/>
    </defs>
    <clipPath id="n">
      <use xlink:href="#m" overflow="visible"/>
    </clipPath>
    <path clip-path="url(#n)" fill="#2fb228" d="M126 198.5h248.4V348H126z"/>
  </g>
  <g>
    <defs>
      <path id="o" d="M283.9 273.2l-33.7 9.7-33.7-9.7-21.8 14.4v34l16.1-24.2-1.8-11.6 13.4 14.3 8.1-6.4 10.1 10 9.6-8.2 9.7 8.2 10.1-10 8 6.4 13.5-14.3-1.8 11.6 16.1 24.2v-34z"/>
    </defs>
    <clipPath id="p">
      <use xlink:href="#o" overflow="visible"/>
    </clipPath>
    <path clip-path="url(#p)" fill="#fff" d="M181.6 260.2h137.3v74.5H181.6z"/>
  </g>
  <g>
    <defs>
      <path id="q" d="M275.3 367.5c-10.4 6.1-25.1 5.2-25.1 5.2s-14.7.9-25.1-5.2c-10.4-6.1-18.6-16.5-18.6-16.5v18.6l5 9.3 4.3-4.3 34.4 16.5 34.4-16.5 4.3 4.3 5-9.3V351c.1 0-8.2 10.4-18.6 16.5"/>
    </defs>
    <clipPath id="r">
      <use xlink:href="#q" overflow="visible"/>
    </clipPath>
    <path clip-path="url(#r)" fill="#fff" d="M193.4 338H307v66.3H193.4z"/>
  </g>
  <g>
    <defs>
      <path id="s" d="M316.9 358.2c-6.5 14.7-25.5 27.3-25.5 27.3L250.2 398 209 385.5s-19-12.6-25.5-27.3c-.7 8.6 0 23 0 23s20.8 20.4 46.6 21.9c-9 3.2-28.7 0-28.7 0s20.4 21.2 48.8 21.9c28.4-.8 48.8-22 48.8-22s-19.7 3.2-28.7 0c25.8-1.4 46.6-21.9 46.6-21.9s.8-14.3 0-22.9"/>
    </defs>
    <clipPath id="t">
      <use xlink:href="#s" overflow="visible"/>
    </clipPath>
    <path clip-path="url(#t)" fill="#2fb228" d="M170.2 345.2h160.2V438H170.2z"/>
  </g>
  <g>
    <defs>
      <path id="u" d="M217.4 205.3l-26.9-11.8-3.2 13.6s22.7 2.9 30.1-1.8"/>
    </defs>
    <clipPath id="v">
      <use xlink:href="#u" overflow="visible"/>
    </clipPath>
    <path clip-path="url(#v)" fill="#fff" d="M174.2 180.4h56.2V221h-56.2z"/>
  </g>
  <g>
    <defs>
      <path id="w" d="M283.1 205.3l26.9-11.8 3.2 13.6s-22.7 2.9-30.1-1.8"/>
    </defs>
    <clipPath id="x">
      <use xlink:href="#w" overflow="visible"/>
    </clipPath>
    <path clip-path="url(#x)" fill="#fff" d="M270 180.4h56.2V221H270z"/>
  </g>
</svg>
