<svg id="van" xmlns="http://www.w3.org/2000/svg" width="500" height="500">
  <defs>
    <style>
      .cls-2{fill:#2fb228}.cls-3{fill:#fff}
    </style>
  </defs>
  <path d="M377 269.22c10.77 4.85 30.2 6.94 30.2 6.94s-14.57-15.28-13.88-24.65-2.08-21.87-2.08-21.87l21.17 8S389.19 214 383 193.54s-16.67-51.37-41-67c-14.24-26.38-33.67-52.07-33.67-52.07l-25.88-18.4-8.15 12.16L250 38l-24.3 30.2-8.14-12.15-25.88 18.4s-19.43 25.72-33.68 52.1c-24.29 15.62-34.71 46.51-41 67s-29.5 44.09-29.5 44.09l21.17-8s-2.77 12.5-2.08 21.87-13.88 24.65-13.88 24.65 19.43-2.09 30.19-6.94c-3.81 6.24-21.17 20.13-46.16 14.92 6.59 9 30.54 13.54 43.39 8.33-8.68 10.76 0 43 0 47.9s.34 14.93-12.5 25c20.13 10.41 43-8.68 43-8.68s5.21 18.4 5.21 23.26-2.78 5.9 0 21.52a67.56 67.56 0 0 0 11.8 27.07l18.75 8.68s-2.09-18.05 3.12-22.22c3.82 10.77 13.54 23.61 13.54 23.61s18.05 13.54 30.55 20.83c-6.25-7.64-10.59-28.82-10.59-28.82L250 459.44l26.9-28.82s-4.34 21.18-10.59 28.82c12.5-7.29 30.55-20.83 30.55-20.83s9.72-12.84 13.54-23.61c5.21 4.17 3.12 22.22 3.12 22.22l18.75-8.68a67.56 67.56 0 0 0 11.8-27.07c2.78-15.62 0-16.66 0-21.52s5.21-23.26 5.21-23.26 22.91 19.09 43 8.68c-12.85-10.07-12.5-20.14-12.5-25s8.68-37.14 0-47.9c12.85 5.21 36.8.7 43.39-8.33-24.95 5.21-42.31-8.68-46.17-14.92z" fill="#09226b"/>
  <path class="cls-2" d="M416.89 276.93c-4-3.55-15-17.24-15-27.17a74.1 74.1 0 0 0-.45-7.51c7.26 4.15 21.58 4.23 28.62-1.87-6-2.35-7.86-4.33-11.74-8.52-.21-.22-21.92-22.44-27.5-40.71-5.17-17-15.83-51.91-42.57-70.31-14.24-26-32.57-50.27-33.36-51.32a8.39 8.39 0 0 0-1.79-1.73L280.77 45.1l-7.08 9.28S256.59 35.17 250 27.73c-6.59 7.44-23.69 26.65-23.69 26.65l-7.08-9.28-32.31 22.69a8.39 8.39 0 0 0-1.79 1.73c-.79 1-19.12 25.36-33.36 51.32-26.74 18.4-37.4 53.33-42.57 70.31-5.58 18.27-27.3 40.49-27.5 40.71-3.88 4.19-5.79 6.17-11.74 8.52 7 6.1 21.36 6 28.62 1.87a74.1 74.1 0 0 0-.45 7.51c0 9.93-11 23.62-15 27.17-2-.13-8.92.84-20.11-5.34A30.13 30.13 0 0 0 70.15 289c7.27 9.09 23.7 14.23 38.23 13.84-.91 9.76.81 21.39 2.71 32.24.37 2.1.83 4.72.87 5.3v.39c0 4.3.3 11.17-9.35 18.14-4.43 3.2-7.22 3.13-10.51 2.51 2.27 5.16 8.14 9.38 11.81 11.25 15.55 7.93 31.63 2.53 41.76-2.91 3.94 12.15.1 21.48 2.17 33.16a76 76 0 0 0 13.44 30.72 8.36 8.36 0 0 0 3 2.37l30.62 14.12-.76-9.95c1.38 2 2.32 3.23 2.45 3.4a8.24 8.24 0 0 0 1.62 1.61c.75.56 18.3 14.4 31.34 21.35a46.39 46.39 0 0 0 20.45 5.73 46.39 46.39 0 0 0 20.45-5.74c13-6.95 30.59-20.79 31.34-21.35a8.24 8.24 0 0 0 1.62-1.61c.13-.17 1.07-1.42 2.44-3.4l-.75 9.95L335.72 436a8.36 8.36 0 0 0 3-2.37 76 76 0 0 0 13.44-30.72c2.07-11.68-1.77-21 2.17-33.16 10.13 5.44 26.21 10.84 41.76 2.91 3.67-1.87 9.54-6.09 11.81-11.25-3.29.62-6.08.69-10.51-2.51-9.65-7-9.36-13.84-9.35-18.14v-.39c0-.58.5-3.2.87-5.3 1.9-10.85 3.62-22.48 2.71-32.24 14.53.39 31-4.75 38.23-13.84a30.13 30.13 0 0 0 7.15-17.4c-11.19 6.18-18.14 5.21-20.11 5.34zm-37.07 15.54c8.68 10.76 0 43 0 47.9s-.35 14.93 12.5 25c-20.13 10.41-43-8.68-43-8.68s-5.21 18.4-5.21 23.26 2.78 5.9 0 21.52a67.56 67.56 0 0 1-11.8 27.07l-18.75 8.68s2.09-18.05-3.12-22.22c-3.82 10.77-13.54 23.61-13.54 23.61s-18.05 13.54-30.55 20.83c6.25-7.64 10.59-28.82 10.59-28.82L250 459.44l-26.9-28.82s4.34 21.18 10.59 28.82c-12.5-7.29-30.55-20.83-30.55-20.83s-9.72-12.84-13.54-23.61c-5.21 4.17-3.12 22.22-3.12 22.22l-18.75-8.68a67.56 67.56 0 0 1-11.8-27.07c-2.78-15.62 0-16.66 0-21.52s-5.21-23.26-5.21-23.26-22.91 19.09-43 8.68c12.84-10.07 12.5-20.14 12.5-25s-8.68-37.14 0-47.9c-12.85 5.21-36.8.7-43.39-8.33 25 5.21 42.35-8.68 46.16-14.92-10.76 4.85-30.19 6.94-30.19 6.94s14.57-15.28 13.88-24.65 2.08-21.87 2.08-21.87l-21.17 8s23.26-23.61 29.5-44.09 16.67-51.37 41-67c14.24-26.38 33.67-52.07 33.67-52.07l25.88-18.4 8.14 12.15L250 38l24.3 30.2 8.14-12.15 25.88 18.4s19.43 25.69 33.67 52.07c24.29 15.62 34.71 46.51 41 67s29.5 44.09 29.5 44.09l-21.17-8s2.77 12.5 2.08 21.87 13.88 24.65 13.88 24.65-19.43-2.09-30.2-6.94c3.82 6.24 21.18 20.13 46.17 14.92-6.63 9.06-30.58 13.57-43.43 8.36z"/>
  <path class="cls-2" d="M373.92 211.94c-9-23.26-31.59-42.69-31.59-42.69l-20.82-25.34-40.62 17.7 31.24-29.51-26.72-41.65-13.19 21.87L250 74.48l-22.22 37.84-13.19-21.87-26.72 41.65 31.24 29.51-40.62-17.7-20.82 25.34s-22.57 19.43-31.59 42.69c10.06-5.9 12.84-8 12.84-8l-9 54.49 42.35-43 14.92-31.93 48.94 21.87h27.77l48.95-21.87 14.92 31.93 42.35 43-9-54.49s2.73 2.06 12.8 8z"/>
  <path class="cls-2" d="M357.61 277.89c-4.17-7.29-19.44-19.44-19.44-19.44l-27.77-14.57-26 8 18.05-21.52-39.22-15.62L250 224.78l-13.19-10.06-39.23 15.62 18.06 21.52-26-8-27.77 14.57s-15.27 12.15-19.44 19.44a54.41 54.41 0 0 1 20.44-6.87s-18.39 37.49-19.09 63.18c28.12-35.06 62.14-70.82 62.14-70.82L250 274.42l44.08-11.11s34 35.76 62.14 70.82c-.7-25.69-19.09-63.18-19.09-63.18a54.41 54.41 0 0 1 20.48 6.94zM259 251.51h-18l-15.3-17.35h12.15l12.15 8.33 12.15-8.33h12.15z"/>
  <path class="cls-3" d="M282.63 274.42L250 283.79l-32.63-9.37-21.17 13.89v32.97l15.62-23.43-1.74-11.28 13.02 13.89 7.81-6.25 9.72 9.72 9.37-7.99 9.37 7.99 9.72-9.72 7.81 6.25 13.02-13.89-1.74 11.28 15.62 23.43v-32.97l-21.17-13.89zm-8.33 91.29c-10.07 5.9-24.3 5.08-24.3 5.08s-14.23.82-24.3-5.08-18-16-18-16v18.09l4.86 9 4.17-4.16 33.32 16 33.32-16 4.17 4.16 4.86-9v-18.05s-8.04 10.06-18.1 15.96z"/>
  <path class="cls-2" d="M314.56 356.69c-6.24 14.23-24.64 26.38-24.64 26.38L250 395.22l-39.92-12.15s-18.4-12.15-24.64-26.38c-.7 8.33 0 22.21 0 22.21s20.13 19.79 45.12 21.18c-8.68 3.12-27.77 0-27.77 0s19.79 20.48 47.21 21.17c27.42-.69 47.21-21.17 47.21-21.17s-19.09 3.12-27.77 0c25-1.39 45.12-21.18 45.12-21.18s.7-13.9 0-22.21z"/>
  <path class="cls-3" d="M218.19 208.68l-26-11.45-3.12 13.18s21.93 2.78 29.12-1.73zm63.62 0l26-11.45 3.12 13.18s-21.93 2.78-29.12-1.73z"/>
</svg>
