<svg id="Layer_1" data-name="Layer 1" xmlns="http://www.w3.org/2000/svg" width="500" height="500">
  <defs>
    <style>
      .cls-2{fill:#2fb228}.cls-3{fill:#fff}
    </style>
  </defs>
  <path d="M349.15 193c8.37 3.78 23.51 5.4 23.51 5.4s-11.35-11.89-10.81-19.18-1.62-17-1.62-17l16.48 6.22s-18.11-18.38-23-34.32-13-40-31.89-52.16c-11.08-20.54-26.21-40.54-26.21-40.54l-20.12-14.35-6.34 9.46L250.24 13l-18.92 23.53-6.32-9.46-20.16 14.32s-15.14 20-26.22 40.54c-18.91 12.16-27 36.21-31.89 52.16s-23 34.32-23 34.32l16.49-6.22s-2.16 9.73-1.62 17-10.81 19.18-10.81 19.18 15.13-1.62 23.51-5.4c-3 4.86-16.49 15.67-35.94 11.62 5.13 7 23.78 10.54 33.78 6.49-6.76 8.37 0 33.51 0 37.29s.27 11.62-9.73 19.46C155.11 276 173 261.1 173 261.1s4 14.32 4 18.11-2.16 4.59 0 16.75a52.56 52.56 0 0 0 9.19 21.04l14.59 6.76s-1.62-14.06 2.44-17.3c3 8.38 10.53 18.38 10.53 18.38s14.06 10.54 23.79 16.21c-4.87-5.94-8.25-22.43-8.25-22.43l21 22.43 20.94-22.43s-3.38 16.49-8.24 22.43c9.73-5.67 23.78-16.21 23.78-16.21s7.57-10 10.54-18.38c4.05 3.24 2.43 17.3 2.43 17.3l14.54-6.76a52.56 52.56 0 0 0 9.19-21c2.17-12.16 0-13 0-16.75s4.06-18.11 4.06-18.11S345.36 276 361 267.86c-10-7.84-9.73-15.68-9.73-19.46s6.75-28.92 0-37.29c10 4 28.64.54 33.78-6.49-19.42 4.05-32.93-6.76-35.9-11.62z" fill="#09226b"/>
  <path class="cls-2" d="M98.9 368.53l5 11.39 4.89-11.39h3.6l-7.84 18h-1.19l-8.09-18zm40.69 0l7.84 17.74h-3.62L142 382h-7.89l-1.71 4.32h-3.6l7.32-17.74zm-4.47 10.82h5.73l-3-7zm35.61-10.82l10.54 12.38v-12.38h3.35v17.74h-2.94l-10.61-12.59v12.59h-3.35v-17.74zm45.27-.23a12.66 12.66 0 0 1 3 .34 15.05 15.05 0 0 1 3.13 1.17V373a14.93 14.93 0 0 0-3-1.35 10 10 0 0 0-2.9-.42 7.42 7.42 0 0 0-3.42.78 5.79 5.79 0 0 0-2.37 2.2 6.42 6.42 0 0 0 0 6.35 5.6 5.6 0 0 0 2.36 2.18 7.56 7.56 0 0 0 3.43.77 9.24 9.24 0 0 0 2.79-.42 20 20 0 0 0 3.34-1.51v3.22a16 16 0 0 1-3.17 1.29 13.57 13.57 0 0 1-3.38.38 11.07 11.07 0 0 1-5-1.12 8.42 8.42 0 0 1-3.47-3.22 8.79 8.79 0 0 1-1.26-4.6 9.07 9.07 0 0 1 1.3-4.82 8.75 8.75 0 0 1 3.58-3.29 11.2 11.2 0 0 1 5.04-1.12zm36.63 0a10.75 10.75 0 0 1 5 1.13 9 9 0 0 1 0 15.89 11.18 11.18 0 0 1-10 0 8.75 8.75 0 0 1-4.76-7.9 9 9 0 0 1 1.25-4.58 8.75 8.75 0 0 1 3.47-3.33 10.47 10.47 0 0 1 5.04-1.21zm-6.26 9.1a6.36 6.36 0 0 0 .8 3.18 5.51 5.51 0 0 0 2.23 2.18 6.62 6.62 0 0 0 3.23.78 6.14 6.14 0 0 0 4.49-1.72 5.9 5.9 0 0 0 1.76-4.42 6.42 6.42 0 0 0-.8-3.18 5.47 5.47 0 0 0-2.23-2.19 6.81 6.81 0 0 0-3.25-.77 6.69 6.69 0 0 0-3.24.78 5.48 5.48 0 0 0-2.22 2.18 6.56 6.56 0 0 0-.77 3.18zm40.76-8.87v10.32a5.62 5.62 0 0 0 .48 2.53 3.67 3.67 0 0 0 1.55 1.55 5.11 5.11 0 0 0 2.52.61 5.6 5.6 0 0 0 2.67-.58 3.65 3.65 0 0 0 1.61-1.57 6.35 6.35 0 0 0 .5-2.77v-10.09h3.43v10.54a7 7 0 0 1-2.14 5.5 8.76 8.76 0 0 1-6.07 1.93 9.79 9.79 0 0 1-4.28-.88 6.28 6.28 0 0 1-2.76-2.53 7.77 7.77 0 0 1-.95-3.9v-10.66zm36.54 0l5 11.39 4.89-11.39h3.59l-7.83 18h-1.2l-8.09-18zm45.26 0v2.68h-8v4.66h7.7v2.68h-7.7v5h8.22v2.68h-11.69v-17.7zm27.97 0a6 6 0 0 1 4.08 1.38 4.58 4.58 0 0 1 1.57 3.61 4.49 4.49 0 0 1-.78 2.63 5.15 5.15 0 0 1-2.31 1.77 5.25 5.25 0 0 1 1.51 1.25 15.81 15.81 0 0 1 1.63 2.65c1.09 2.15 1.89 3.64 2.42 4.45h-3.82a19.46 19.46 0 0 1-1.07-1.87 38.1 38.1 0 0 0-2.16-3.81 5.15 5.15 0 0 0-1.32-1.4 2.59 2.59 0 0 0-1.46-.41h-1.25v7.49h-3.43v-17.74zm-.77 7.57a3.09 3.09 0 0 0 2.11-.68 2.33 2.33 0 0 0 .77-1.84 2.17 2.17 0 0 0-.76-1.82 3.44 3.44 0 0 0-2.17-.6h-2.14v4.94z"/>
  <path class="cls-3" d="M133.45 495l-4.51-7.99V410l4.51-8H99.27l4.52 8.02v76.97L99.27 495h34.18zm-62.31 0l-4.52-8v-65.99l-9.88-3.96h29.03l5.79 6.29V402H13.85v21.34l5.78-6.29h21.85V487l-4.52 8h34.18zm124.53 0l-4.52-8v-65.72l-10.55-4.23h25.83l3.59 6.29 6.74-21.34h-75.69v21.34l5.79-6.29h19.15V487l-4.52 8h34.18zm274.92-52.23c-5.06-1.23-29.5-5.16-34.1-5.84s-4-3.81-4-3.81v-8.48l-11.12-4.45 48.54-.45 1.8 6.51L486.15 402h-63c-9.88 0-15.16 6.74-15.16 12.7v24.1c0 7.41 4.83 13.51 9.77 14.07s34.05 5.95 37.87 6.29 5.05 1.12 5.05 3.48v11.9c0 3-1.12 3-3 3h-35.95l-4-4.94-13.29 22.4h63.79c10 0 17.14-7.86 17.14-12.58v-25.49c0-10.79-9.73-12.93-14.78-14.16zM228.55 402l3.75 6.64-24.84 78.64-6.13 7.72H236l-2.88-5 4.41-16.77-8.07-3.23 35-.11 5.23 19.87-3 5.29h34.63l-5.8-7.3-24.72-78.37L275 402zm14 52.07l8.87-33.68 8.87 33.68zm152.46 33.39v-79.43l3.41-6.03h-33.04l4.49 7.96v48.3L336.44 402h-30.08l4.39 7.77v77.46l-4.39 7.77h34.07l-4.54-8.04v-43L366.22 495h33.05l-4.26-7.54z"/>
  <path class="cls-2" d="M380.17 199c-3.12-2.77-11.69-13.42-11.69-21.15a55.48 55.48 0 0 0-.36-5.85c5.65 3.23 16.8 3.29 22.28-1.46-4.63-1.83-6.11-3.37-9.13-6.63-.17-.18-17.07-17.47-21.41-31.7-4-13.22-12.33-40.41-33.15-54.74a372.74 372.74 0 0 0-26-39.95 6.19 6.19 0 0 0-1.4-1.35l-25.12-17.65-5.51 7.22S255.37 10.79 250.24 5c-5.13 5.79-18.45 20.74-18.45 20.74l-5.5-7.22-25.16 17.66a6.36 6.36 0 0 0-1.39 1.35 372 372 0 0 0-26 40C153 91.81 144.65 119 140.62 132.22c-4.34 14.23-21.25 31.52-21.41 31.7-3 3.26-4.51 4.8-9.14 6.63 5.48 4.75 16.63 4.69 22.28 1.46a58.25 58.25 0 0 0-.35 5.85c0 7.73-8.58 18.38-11.69 21.15-1.54-.11-7 .65-15.66-4.16a23.43 23.43 0 0 0 5.57 13.54c5.66 7.08 18.45 11.08 29.76 10.78-.71 7.6.63 16.65 2.11 25.1.29 1.64.65 3.67.68 4.13v.3c0 3.35.23 8.69-7.28 14.12-3.45 2.5-5.62 2.44-8.18 1.95 1.77 4 6.33 7.31 9.19 8.77 12.11 6.17 24.63 2 32.52-2.27 3.06 9.46.07 16.72 1.68 25.81A59.07 59.07 0 0 0 181.17 321a6.47 6.47 0 0 0 2.33 1.85l23.84 11-.59-7.75c1.07 1.55 1.81 2.52 1.9 2.65a6.27 6.27 0 0 0 1.27 1.25c.58.44 14.25 11.21 24.39 16.63a36.29 36.29 0 0 0 15.93 4.46 36.23 36.23 0 0 0 15.92-4.46c10.15-5.42 23.81-16.19 24.4-16.63a6.22 6.22 0 0 0 1.26-1.25c.1-.13.83-1.1 1.9-2.65l-.59 7.75 23.84-11a6.42 6.42 0 0 0 2.34-1.85 59 59 0 0 0 10.46-23.92c1.62-9.09-1.37-16.35 1.69-25.81 7.89 4.23 20.41 8.44 32.52 2.27 2.85-1.46 7.42-4.75 9.19-8.77-2.56.49-4.74.55-8.19-1.95-7.51-5.43-7.28-10.77-7.28-14.12v-.3c0-.46.39-2.49.68-4.13 1.49-8.45 2.82-17.5 2.12-25.1 11.3.3 24.1-3.7 29.75-10.78a23.37 23.37 0 0 0 5.57-13.54c-8.71 4.81-14.12 4.05-15.65 4.15zm-28.86 12.1c6.75 8.37 0 33.51 0 37.29S351 260 361 267.86c-15.68 8.1-33.51-6.76-33.51-6.76s-4.06 14.32-4.06 18.11 2.17 4.59 0 16.75a52.56 52.56 0 0 1-9.15 21.04l-14.59 6.76s1.62-14.06-2.43-17.3c-3 8.38-10.54 18.38-10.54 18.38s-14.05 10.54-23.78 16.21c4.86-5.94 8.24-22.43 8.24-22.43l-20.94 22.43-21-22.43s3.38 16.49 8.25 22.43c-9.73-5.67-23.79-16.21-23.79-16.21s-7.56-10-10.53-18.38c-4.06 3.24-2.44 17.3-2.44 17.3L186.19 317a52.56 52.56 0 0 1-9.19-21c-2.16-12.16 0-13 0-16.75s-4-18.15-4-18.15-17.84 14.86-33.51 6.76c10-7.84 9.73-15.68 9.73-19.46s-6.76-28.92 0-37.29c-10 4-28.65.54-33.78-6.49 19.45 4 33-6.76 35.94-11.62-8.38 3.78-23.51 5.4-23.51 5.4s11.35-11.89 10.81-19.18 1.62-17 1.62-17l-16.49 6.22s18.11-18.38 23-34.32 13-40 31.89-52.16c11.08-20.54 26.22-40.54 26.22-40.54L225 27.07l6.34 9.46L250.24 13l18.91 23.51 6.34-9.46 20.15 14.32s15.13 20 26.21 40.54c18.92 12.16 27 36.21 31.89 52.16s23 34.32 23 34.32l-16.48-6.22s2.16 9.73 1.62 17 10.81 19.18 10.81 19.18-15.14-1.62-23.51-5.4c3 4.86 16.48 15.67 35.94 11.62-5.12 7.08-23.81 10.59-33.81 6.54z"/>
  <path class="cls-2" d="M346.71 148.41c-7-18.11-24.59-33.24-24.59-33.24l-16.21-19.73-31.62 13.78 24.32-23-20.81-32.39-10.27 17-17.29-29.44-17.3 29.46-10.27-17-20.81 32.4 24.33 23-31.62-13.81-16.22 19.73s-17.56 15.13-24.59 33.24c7.84-4.59 10-6.22 10-6.22l-7 42.43 33-33.51 11.62-24.86 38.11 17h21.62l38.1-17 11.62 24.86 33 33.51-7-42.43s2.05 1.63 9.88 6.22z"/>
  <path class="cls-2" d="M334 199.76c-3.24-5.68-15.13-15.14-15.13-15.14l-21.62-11.35-20.25 6.22 14-16.76-30.53-12.16-10.27 7.84-10.2-7.84-30.54 12.16 14 16.76-20.26-6.22-21.6 11.35s-11.89 9.46-15.14 15.14a42.33 42.33 0 0 1 15.95-5.41s-14.33 29.19-14.87 49.19c21.89-27.3 48.38-55.13 48.38-55.13l34.32 8.64 34.32-8.64s26.48 27.83 48.37 55.13c-.54-20-14.86-49.19-14.86-49.19a42.26 42.26 0 0 1 15.93 5.41zm-76.75-20.54h-14l-11.89-13.51h9.46l9.46 6.48 9.46-6.48h9.45z"/>
  <path class="cls-3" d="M275.64 197.05l-25.4 7.3-25.4-7.3-16.49 10.81v25.68l12.16-18.25-1.35-8.78 10.13 10.81 6.08-4.86 7.57 7.56 7.3-6.21 7.29 6.21 7.57-7.56 6.08 4.86 10.13-10.81-1.35 8.78 12.17 18.25v-25.68l-16.49-10.81zm-6.49 71.08c-7.83 4.59-18.91 3.95-18.91 3.95s-11.08.64-18.92-3.95-14-12.43-14-12.43v14.05l3.78 7 3.24-3.24 26 12.43 25.94-12.43 3.24 3.24 3.79-7V255.7s-6.31 7.83-14.16 12.43z"/>
  <path class="cls-2" d="M300.5 261.1c-4.86 11.08-19.18 20.54-19.18 20.54l-31.08 9.46-31.08-9.46s-14.32-9.46-19.16-20.54a170.24 170.24 0 0 0 0 17.3s15.68 15.4 35.13 16.48c-6.75 2.43-21.62 0-21.62 0s15.41 15.95 36.76 16.49c21.35-.54 36.75-16.49 36.75-16.49s-14.86 2.43-21.62 0c19.46-1.08 35.13-16.48 35.13-16.48a170.24 170.24 0 0 0-.03-17.3z"/>
  <path class="cls-3" d="M225.47 145.87L205.22 137l-2.43 10.27s17.1 2.11 22.68-1.4zm49.53 0l20.25-8.87 2.43 10.27s-17.09 2.11-22.68-1.4z"/>
</svg>
