<svg id="Layer_3" data-name="Layer 3" xmlns="http://www.w3.org/2000/svg" width="490" height="228.53">
  <defs>
    <style>
      .cls-1{fill:#0072ce}.cls-2{fill:#fff}
    </style>
  </defs>
  <path class="cls-1" d="M493.59 283.87c-16.57 29.25-29.17 23.23-32.4 20.45-.53-.46-1-.94-1-.94-4.94-6.13-.53-15.13 4.84-21.36 30.63-35.48 17.25-85.7 17.25-85.7-4.62 25.91-8.64 18.82-8.64 18.82-.62-1.34.6-10 .6-10-11.35 25.7-31.68 33.38-40.27 37.22-28.21 12.64-25.82 35.14-25.82 35.14 9.32-20.52 30.32-25.64 30.32-25.64-10.55 8-8.68 27.22-9.62 46.44-2.35 47.88-42.85 66.09-42.85 66.09 113.31-17.72 107.59-80.52 107.59-80.52z" transform="translate(-3.63 -135.86)"/>
  <path class="cls-1" d="M429.47 236.69c65-25.1 39.62-100.83 39.62-100.83-7.72 42.56-31.25 54.32-50.16 62.73-78.74 35-43.22 103.53-43.22 103.53-5-45.9 49.62-63.83 53.76-65.43z" transform="translate(-3.63 -135.86)"/>
  <path class="cls-2" d="M46.36 312.09h43.18c1.38-8.11 2.71-15.59 4.09-23.7H50.45zM357.11 317c-1 5.61-1.88 11.15-2.79 15.51h-22.61q8.12-44.9 16.17-91.68h-27.67l-5.16 4.37c-6.28 36.32-12.55 71.8-18.83 107.3l3.16 3.71h79.44l4.45-3.71 7.84-44.53c-11.32 3.46-21.03 6.03-34 9.03zM291.82 311.94c1.38-8.11 2.71-15.59 4.09-23.7H253.2L249 312z" transform="translate(-3.63 -135.86)"/>
  <path class="cls-2" d="M243.15 325l9.65-54.79h52c1.17-7.48 3-17.61 4.37-25l-2.84-3.67h-78l-3.41 3q-9.55 54-19.07 108l3.14 3.77h76.62l4.54-3.54c1.12-6.38 2.24-12.68 3.39-18.91h-51.86v-.06-.05l1.24-7.24c.08-.59.14-1.04.23-1.51zM215.23 241.52h-29c-.25 1.25-.46 2.55-.67 3.74q-6.24 35.43-12.49 70.83c-.63 3.58-1.52 7.13-4.29 10.26-5.37 6.06-12 7.92-19.5 7.82-12.45-.18-18.33-6.53-16.31-18 4.2-23.89 8.41-48 12.62-71.87a27.66 27.66 0 0 0 .55-3.34L118 241l-5 4.22c-4.14 23.54-8.2 47.17-12.46 70.7-2.88 16 3.05 27.55 16.37 35.12 14.26 8.1 31 8.41 48.71 4.12 17.21-4.18 37-18 40.24-41s8-46.19 12-69.32zM104.14 241.59H26.3l-3.61 3.2q-9.56 53.97-19.06 107.87l3.11 3.73h24l4.73-3.81L50 270.31h52.43c1.19-7.48 3.06-17.73 4.41-25.14z" transform="translate(-3.63 -135.86)"/>
  <g>
    <path class="cls-1" d="M156.59 220.93v-21h4.94v17.54h8.74v3.47zM208.49 220.9v-21h4.94v17.54h8.74v3.47z" transform="translate(-3.63 -135.86)"/>
    <path class="cls-1" d="M267.62 63.85h-6.11l-6.46 21.21h5.14l1.06-4.2.93-3.76-.01-.01.04-.18 2.32-9.32h.07l2.37 9.35-3.14.01-.75 3.74h4.75l1.14 4.36h5.14l-6.49-21.2zM108.91 63.94l-6.1.01-6.46 21.2h5.14l1.06-4.2.92-3.76.04-.19 2.32-9.31h.07l2.37 9.35h-3.14l-.75 3.74h4.75l1.13 4.36h5.15l-6.5-21.2z"/>
    <path class="cls-1" d="M326.14 209.23l-3.81-1.41c-2.09-.76-2.54-1.56-2.54-2.85s.58-2.31 2.81-2.31c1.82 0 2.62.71 2.67 3l4.92-.74c-.07-3.94-3.32-5.53-7.67-5.52-4.66 0-7.62 2.09-7.62 6.18 0 3.5 2 5.06 6.39 6.35 3.26 1 4.38 1.67 4.38 3.59s-1.45 2.59-3 2.59c-2.54 0-3.19-1.2-3.23-3.09l-4.91-.74v.83c0 3.88 2.17 6.12 7.76 6.12 5.35 0 8.48-2 8.48-6.45.05-2.55-.92-4.17-4.63-5.55zM55.27 199.84h-8.12v16.21h5V203h2.05c3.77 0 4.22 2.54 4.22 7.3 0 5.71-.68 7.66-4.11 7.66h-7.14V221H55c6.55 0 8.4-3.45 8.39-10.9-.03-6.1-1.26-10.26-8.12-10.26z" transform="translate(-3.63 -135.86)"/>
  </g>
</svg>
