<svg id="paris" xmlns="http://www.w3.org/2000/svg" viewBox="0 0 500 500">
  <style>
    .st0{fill:#fff}
  </style>
  <path class="st0" d="M275.3 265c12.5 32.3 48.8 48.4 81.1 35.9s48.4-48.8 35.9-81.1c-5.8-15.1-17.3-27.4-32-34.2 27.6 18.2 35.3 55.3 17.1 82.9s-55.3 35.3-82.9 17.1c-7.9-5.2-14.5-12.3-19.2-20.6z"/>
  <path class="st0" d="M328.5 274c-14.5 2.1-29.3-2.3-40.2-12.2 16.5 21.6 47.3 25.8 68.9 9.3 21.6-16.5 25.8-47.3 9.3-68.9-1.4-1.8-2.9-3.5-4.5-5.1 15.5 22.5 9.8 53.2-12.6 68.7-6.2 4.3-13.4 7.1-20.9 8.2z"/>
  <path class="st0" d="M412.8 192.4c-21.9-33.5-70.6-45.9-86.4-50.6s-23.5-10.4-28.3-18.7-2.8-21.3 4.8-31.9c-10.6 7.7-15.5 14.2-17.7 20.5l-.1.2c-.7 2-1.2 4.2-1.5 6.3-1.7 12 .5 24.3 6.3 35 9.3 17.3 29.2 29 42.5 37.2s20.7 25.9 14.1 40.9-24 21.7-38.9 19.9-39.3-18-46.1-28.1c0 0 20.1 36.5 53.2 36.5 26.9 0 44.7-16.4 44.7-38.9s-8.7-32.4-36.9-48.8c-8.6-4.7-16-11.4-21.6-19.6 8.4 6.1 17.8 10.8 27.8 13.8 44.7 11.2 65.2 35.9 71.7 50s13.7 45.8-13.6 78.2c-40.2 42.5-88.7 18.2-105 3.3-13.6-12.5-28.1-40-38.3-70.3-1.4-4.9-31.5-83.2-102.4-76.6S50.2 214 51.7 245.4c3.5 77.6 69.7 92.4 93.5 91.1 19.2-1 31.4-8.8 31.4-8.8s-7.3 1.4-12.1.8c-21.7-2-38.5-22.6-38.5-41.9 0-23.6 19.1-42.7 42.7-42.8 11.6 0 22.7 4.7 30.8 13.1-16.1-21-46.2-25-67.2-8.9s-25 46.2-8.9 67.2c3.4 4.4 7.5 8.2 12.2 11.2C89.7 315 73.8 286 69.9 254.9c-3.4-27 16.2-76 68.2-81.7 49.1-5.5 76 42 82.5 58.2 0 0 16.8 43.7 26.9 102.6s18.1 136 18.1 136l24.4-95.8s-21.6-16.5-27.5-57.5c29.6 49.2 102.6 40.3 136.5 4.2 37.5-40.1 35.7-95 13.8-128.5z"/>
  <path class="st0" d="M145.3 184.1c-36.1 0-65.4 29.3-65.4 65.4 0 11.2 2.9 22.2 8.3 31.9-9.2-36.2 12.7-72.9 48.9-82.1 23.8-6 49.1 1.3 65.9 19.3-11.4-21.2-33.6-34.5-57.7-34.5z"/>
  <path class="st0" d="M159.2 221c15.1 0 29.6 6.2 39.9 17.3-14.1-25.7-46.3-35.1-72-21-25.7 14.1-35.1 46.3-21 72-7.4-29.3 10.3-59.1 39.6-66.6 4.4-1.1 9-1.7 13.5-1.7zM351.2 84.9c24.8-.1 20.8 8.6 20.8 8.6 8.1-1.2 13.1-4.3 12-11.1-1-6-7-9.1-13.5-8.6-.7-5.6 6.8-12 6.8-12s-10.8-4-19.1 3.5c-1.4-6.6 1.3-13.2 4.7-15.9-3.7-3.2-14-2.1-20 6.3-4.5-5.7-3.5-13 1.9-18.9-7.7-1.4-20.3 5.6-23.3 15.4-4.7-4.9-7.4-15.1-2.7-22.2-10.2 5.4-19.7 13.1-19.7 30.4.1 24.6 31 24.6 52.1 24.5zM371.4 103.8s-9.1 0-9.7 14.9c-.6 15.6 5.1 27.3 18.1 26.3 11.9-.9 14.1-15 6.3-22.6-6.7-6.4-15.4-8.2-16.1-12.8s1.4-5.8 1.4-5.8z"/>
</svg>
