<svg id="Layer_1" data-name="Layer 1" xmlns="http://www.w3.org/2000/svg" width="480" height="366.6">
  <defs>
    <style>
      .cls-1{fill:#67a2b2}.cls-2{fill:#0fefd9}.cls-3{fill:#fff}
    </style>
  </defs>
  <path class="cls-1" d="M265.8 164.7h-62.68l-24.66 31.65h31.27L193.4 224h-23c-2.93 0-11.8-3.59-19-11.9-5.61-6.45-11.79-17.65-9.44-34.43 4.32-30.67 35.66-46.18 41.59-46.18h35.06l-1.23 15.42 2.35-3 60.12-77.21-66.34 29.38h-25.94c-13.43 0-32 8.47-47.27 21.6-18.61 16-30.57 36.94-33.68 59-3.31 23.56 3.07 45.44 18 61.6 11.78 12.78 28.17 21 41.76 21h47.02z" transform="translate(-10 -66.7)"/>
  <path class="cls-1" d="M385.41 155.14h-97.4l95.37-125.91H274.32l-21.17 35.39h61.26l-76.1 100.48-49.39 62.9 76.38-37.48h92.55l27.56-35.38z"/>
  <path class="cls-2" d="M86.11 331.68h-5.59l-2.92-2.25.22-.38v-8.32l-.22-.41 2.92-2.25h7.84v3.35l-.81-.67h-6l-.86.65v7l.86.65h3.63l.86-.65v-4l-.67-.79h4.14l-.67.79v5.26zM127.75 318.89l-.67-.79h4.16l-.67.79v10.18l.22.38-2.92 2.23h-5.48l-2.91-2.23.21-.38v-10.18l-.67-.79h4.16l-.67.79v9.46l.84.67h3.54l.86-.67zM163.81 329.22l-.59 1.69.52.77h-4.49l.81-.79 4.54-12-.72-.82h4.79l-.7.82 4.5 12 .79.79h-4.66l.71-.79-.55-1.67zm4.09-2.59l-1.65-4.56-1.55 4.56zM211.24 326v-7.12l-.67-.82h4.13l-.67.82v12l.67.79h-4l.6-.79-5-7.27v7.27l.67.79h-4.16l.67-.79v-12l-.67-.82h3.95l-.46.74zM252.9 331.68h-5.6l-2.92-2.25.22-.38v-8.32l-.22-.41 2.92-2.25h7.84v3.35l-.81-.67h-6.05l-.86.65v7l.86.65h3.63l.87-.65v-4l-.67-.79h4.13l-.67.79v5.26zM285.8 329.14l6.7-8.39h-5.86l-.81.69v-3.34h8.91l2 2-6.94 8.9h6.28l.82-.69v3.35h-8.52zM330.93 318.07l-.67.82v3.32h5.19v-3.32l-.67-.82h4.13l-.67.82v12l.67.79h-4.13l.67-.79v-6h-5.19v6l.67.79h-4.16l.67-.79v-12l-.67-.82zM377.39 331.68h-5.88l-2.92-2.25.22-.38v-8.32l-.22-.41 2.92-2.25h5.91l2.91 2.25-.23.41v8.32l.23.4zm-.09-10.28l-.86-.65h-3.95l-.86.65v7l.86.65h3.95l.86-.65zM418.91 318.89l-.67-.79h4.16l-.67.79v10.18l.22.38-2.95 2.23h-5.48l-2.91-2.23.21-.38v-10.18l-.67-.79h4.16l-.67.79v9.46l.84.67h3.54l.86-.67z" transform="translate(-10 -66.7)"/>
  <g>
    <path class="cls-3" d="M45.53 394.37c-10.39-.53-11.45-6.13-9.32-10.39s4.75-8.55 9.54-16.27 14.59-8.13 23.91-8.13 21.09 1.23 21.09 1.23l7.13-13c-31.7-3.2-43.39-1.91-56.44 3.15s-17.54 14.11-22.87 23.17-9 14.64-8.52 21.57c1 12.52 21.57 12.78 29.3 12.78 17.3 0 27.4-2.54 27.4-2.54l6.93-13.58s-17.77 2.54-28.15 2.01z" transform="translate(-10 -66.7)"/>
    <path class="cls-3" d="M473.08 293.04l6.92-13.05h-58.86l-32.22 59.87h59.92l6.92-12.46h-36.03l5.42-10.12h31.68l6.92-13.05h-31.61l5.99-11.19h34.95z"/>
    <path class="cls-3" d="M406.38 372H368l-6.9 13h15.81l-4.85 9.09a68.34 68.34 0 0 1-13.15 1.3c-10.45-.53-11.52-6.12-9.37-10.39s5.62-10.38 10.45-18.11 14.46-7.72 23.84-7.72a212.85 212.85 0 0 1 21.95 1.6l7-13c-31.89-3.2-43.46-2.19-56.59 2.87s-18.48 14.38-23.84 23.44-9.11 14.64-8.58 21.57c1 12.52 21.71 12.78 29.48 12.78 19 0 37.37-6.92 37.37-6.92zM214.59 346.69l-61.79 59.87h24l14.53-15.39h23.1l-1.94 15.39h24l2.13-59.87zm-11.71 32L218 362.32l-2 16.33z" transform="translate(-10 -66.7)"/>
    <path class="cls-3" d="M144.4 279.99l-12.41 23.17h-22.1l12.4-23.18-23.97.01-32.22 59.87h23.97l13.12-24.18h22.1l-13.12 24.18h23.97l32.23-59.87H144.4z"/>
    <path class="cls-3" d="M318 346.58h-57.36l-20 49.86h9l-15.73 36.86 38-40.39h-10L276 359.34h26.91c2.46 0 4.31 1.22 3.24 4.9s-3.16 9.08-10.28 9.08-11.16-.12-11.16-.12L279 385.83l8 20.84h24.1l-10.26-21c9.39-.53 18.45-2.82 23.61-11.37 6.22-10.3 3.71-6.38 6.85-13.49s-2.06-14.23-13.3-14.23z" transform="translate(-10 -66.7)"/>
  </g>
</svg>
