<svg id="Layer_3" data-name="Layer 3" xmlns="http://www.w3.org/2000/svg" width="480" height="398.04">
  <defs>
    <style>
      .cls-2{fill:#fff}
    </style>
  </defs>
  <path fill="#e5d456" d="M376.6 29.55l-83.19 76.53L239.88 77l-53.42 29.02-83.25-76.47L84.73 0l23.86 78.7 5.68 8.22 25.68 26.22 1.14 1.44-21.16-5.31 9.12 29.66 2.71 2.61 27.15 21.79.76.85-19.98-1.67 17.13 25.81 1.51 1.17 16.54 10.26 2.87 4.03 4.38 16.47 4.67 7.82 31.62 45.95.97 1.12 12.25 7.75 1.66.89-5.95-15.05-39.02-97.97-1.67-11.76h.65l37.87 7.98 1.24 1.92.9 11.59 8.96 24.29 3.62 10.91 3.63-10.91 8.96-24.29.9-11.59 1.24-1.92 37.86-7.98h.66l-1.68 11.76-39.01 97.97-5.96 15.05 1.66-.89 12.25-7.75.98-1.12 31.61-45.95 4.68-7.82 4.37-16.47 2.88-4.03 16.53-10.26 1.52-1.17 17.13-25.81-19.98 1.67.76-.85 27.15-21.79 2.7-2.61 9.13-29.66-21.17 5.31 1.15-1.44 25.68-26.22 5.69-8.22L395.06 0 376.6 29.55z"/>
  <path class="cls-2" d="M60.89 361.14h4.68v16.11h6.77V381H60.89zM98.5 381.43c-6.16 0-7-4-7-10.34s.84-10.34 7-10.34c6.63 0 7 4.82 7 10.34s-.37 10.34-7 10.34zm0-3.12c1.9 0 2.17-1.76 2.17-7.22s-.28-7.22-2.17-7.22-2.12 1.76-2.12 7.22.25 7.22 2.09 7.22zM132.43 375v.7c0 1.51.42 2.65 2 2.65s2.12-1.23 2.12-2.37c0-4.29-8.56-1.9-8.56-9.34 0-3.18 1.7-5.85 6.52-5.85s6.36 2.37 6.36 5.44v.47h-4.52a4.09 4.09 0 0 0-.39-2.09 1.48 1.48 0 0 0-1.42-.7c-1.17 0-1.87.7-1.87 2.15 0 4.15 8.56 2.06 8.56 9.09 0 4.52-2.51 6.33-6.8 6.33-3.4 0-6.55-1-6.55-5.18V375zM194.72 361.14h5.85l5 19.9h-4.85l-.72-3.79h-4.8l-.7 3.79h-4.85zm2.84 3.62h-.06l-1.64 8.86h3.4zM232.58 361.14H238l3.85 12.93h.06v-12.93h4.35V381h-5.3l-4.1-13.71h-.06V381h-4.18zM280.6 367.19c0-1.28-.14-3.32-1.87-3.32-1.92 0-2.15 2-2.15 7.25s.28 7.19 2.15 7.19c1.59 0 2.15-1.45 2.15-4.18v-.64h-2.2v-3.12h6.55V381H282l-.11-1.9h-.06c-.72 1.78-2.48 2.29-4.29 2.29-5 0-5.83-3.71-5.83-9.92 0-6.52.45-10.76 7.08-10.76 6 0 6.3 4.18 6.3 6.44zM313.21 361.14h11.51v3.79h-6.82v4h6.41v3.79h-6.41v4.54h7.1V381h-11.79zM352.69 361.14h4.68v16.11h6.77V381h-11.45zM391.13 361.14h11.51v3.79h-6.83v4h6.41v3.79h-6.41v4.54h7.14V381h-11.82zM432 375v.7c0 1.51.42 2.65 2 2.65s2.12-1.23 2.12-2.37c0-4.29-8.56-1.9-8.56-9.34 0-3.18 1.7-5.85 6.52-5.85s6.36 2.37 6.36 5.44v.47H436a4.09 4.09 0 0 0-.39-2.09 1.48 1.48 0 0 0-1.42-.7c-1.17 0-1.87.7-1.87 2.15 0 4.15 8.56 2.06 8.56 9.09 0 4.52-2.51 6.33-6.8 6.33-3.4 0-6.55-1-6.55-5.18V375zM177.33 395.2h-9.19v53.57h33.05v-8.72h-23.86zM238.85 448.08h9v-52.72h-9zM447.15 395.2v8.57h17.43v45h8.71v-45h17.43v-8.57zM120.67 397.78c-.72-1.62-1.36-2.58-3.5-2.58h-5.72c-2.14 0-2.78 1-3.5 2.58-5.25 11.81-20.6 45.82-22.93 51h7.86c2.08 0 2.78-.42 3.6-2.26 5.77-13 17.84-40.61 17.84-40.61s12.07 27.62 17.84 40.61c.82 1.84 1.51 2.26 3.6 2.26h7.86c-2.35-5.19-17.7-39.2-22.95-51zM310 397.78c-.72-1.62-1.36-2.58-3.5-2.58h-5.72c-2.14 0-2.78 1-3.5 2.58-5.25 11.81-20.6 45.82-22.93 51h7.86c2.08 0 2.78-.42 3.6-2.26 5.77-13 17.84-40.61 17.84-40.61s12.07 27.62 17.84 40.61c.82 1.84 1.51 2.26 3.6 2.26h7.86c-2.35-5.19-17.7-39.2-22.95-51zM57.85 397.46C52.08 410.45 40 438.07 40 438.07s-12.07-27.62-17.84-40.61c-.82-1.84-1.51-2.26-3.6-2.26h-7.84c2.33 5.19 17.68 39.2 22.93 51 .72 1.62 1.36 2.58 3.5 2.58h5.72c2.14 0 2.78-1 3.5-2.58 5.25-11.81 20.6-45.82 22.93-51h-7.86c-2.08 0-2.78.42-3.59 2.26zM405.63 434l-25.92-37.7a2.47 2.47 0 0 0-1.59-1.11H367.2v53.6h9.28v-41.92l29.06 41.85h9.06V395.2h-9z" transform="translate(-10.72 -50.76)"/>
</svg>
