<svg id="Layer_3" data-name="Layer 3" xmlns="http://www.w3.org/2000/svg" width="461.39" height="480">
  <defs>
    <style>
      .cls-1{fill:#af272f}
    </style>
  </defs>
  <path class="cls-1" d="M124.26 320.85h14.42v3.48h-10.8v8.44h9.22v3.38h-9.22v9.45h-3.61zM166.25 342.09h10.1v3.54h-13.71v-24.78h3.61zM207.29 320.75a12 12 0 0 1 4.83 1 12.45 12.45 0 0 1 7.53 11.51 12.2 12.2 0 0 1-1 4.83 12.35 12.35 0 0 1-6.57 6.62 12 12 0 0 1-4.83 1 11.89 11.89 0 0 1-4.81-1 12.39 12.39 0 0 1-6.55-6.62 12.2 12.2 0 0 1-1-4.83 12.42 12.42 0 0 1 7.51-11.51 11.91 11.91 0 0 1 4.89-1zm0 21.44a8 8 0 0 0 3.33-.71 8.73 8.73 0 0 0 2.74-1.92 9.27 9.27 0 0 0 1.84-9.82 9.21 9.21 0 0 0-1.84-2.88 8.61 8.61 0 0 0-2.74-1.93 8 8 0 0 0-3.33-.71 7.91 7.91 0 0 0-3.31.71 8.66 8.66 0 0 0-2.72 1.93 9.28 9.28 0 0 0-2.52 6.38 9.11 9.11 0 0 0 2.52 6.32 8.79 8.79 0 0 0 2.72 1.92 7.91 7.91 0 0 0 3.31.71zM259.28 332.06a8.75 8.75 0 0 1-1.4 2.74 8.5 8.5 0 0 1-2.28 2.06.41.41 0 0 1-.17.1.42.42 0 0 0-.17.1l4.36 8.58h-3.82l-3.8-7.47c-.27 0-.54.08-.81.1s-.56 0-.88 0h-4.42v7.33h-3.61v-24.79h8a10.16 10.16 0 0 1 5.3 1.45 8.43 8.43 0 0 1 3.68 4.83q0 .17.07.3a2.16 2.16 0 0 0 .1.3v.17a1.29 1.29 0 0 1 .08.37c0 .13 0 .27.05.41a2.56 2.56 0 0 1 0 .4v.96a2.59 2.59 0 0 1 0 .41v.07c0 .13 0 .26-.05.39a1.72 1.72 0 0 1-.08.39v.13a3.08 3.08 0 0 0-.15.67zm-8.54 3.07a4.43 4.43 0 0 0 2-.47 5.3 5.3 0 0 0 1.6-1.25 6.35 6.35 0 0 0 1.08-1.78 5.53 5.53 0 0 0 0-4.15 6 6 0 0 0-1.08-1.78 5.43 5.43 0 0 0-1.6-1.24 4.43 4.43 0 0 0-2-.47h-4.83v11.14zM284.92 320.85h3.61v24.75h-3.61zM322.48 320.85a11.28 11.28 0 0 1 4.68 1 12.09 12.09 0 0 1 3.8 2.67 12.8 12.8 0 0 1 2.57 3.93 12.26 12.26 0 0 1 .95 4.81 12.67 12.67 0 0 1-.91 4.81A12.24 12.24 0 0 1 331 342a11.93 11.93 0 0 1-3.8 2.65 11.54 11.54 0 0 1-4.76 1h-8.64v-24.8zm-.4 21.58a8.25 8.25 0 0 0 3.48-.73 8.45 8.45 0 0 0 2.74-2 9.11 9.11 0 0 0 1.79-2.93 10.25 10.25 0 0 0 0-7.14 8.93 8.93 0 0 0-1.81-2.93 8.64 8.64 0 0 0-2.75-2 8.17 8.17 0 0 0-3.44-.73h-4.63v18.4zM353.08 345.56l10.1-24.75 10.1 24.75h-3.68l-.74-2h-11.33l-.78 2zm5.67-5.13h8.85l-4.42-11.35z" transform="translate(-19.35 -11.27)"/>
  <path d="M159.39 359.11h-13.26l-26.83 65.77v30.18h9.77l3.14-7.92h41.19l3 7.92h22.12zm-19.66 68.55l13-33.41 13 33.41z" transform="translate(-19.35 -11.27)"/>
  <path d="M294.37 408.99v-61.15h-19.25v23.09l-25.45 6.16v-29.25h-21.3v85.33l4.35 10.5h16.95v-44.02l-5.73-1.43 5.73-1.38 25.45-6.16v.02l.06-.02-.06 2.84v15.27h-.09l.09.19v34.69h.01v.33l15.39 10.08 3.86-.11v-44.98h-.01zM461.39 351.7l-.11-3.86H433.27l-4.34 9.13-21.16 44.52-21.3-44.64-4.3-9.01h-17.19l.09 54.79.02 8.51v68.47l4.27.12 7.33-4.8 9.69-6.35v-57.44l.01-6.41 21.4 45.62 21.22-45.46.01 6.25v38.72l17.03 11.15 4.27-.12v-49.75l.01-7.78.06-36.26.92-.01 10.08-15.39zM78.48 348.12l-4.3 9.01-21.3 44.64-17.1-35.99-8.4-17.66H.11L0 351.97l10.07 15.4h.2l.05 36.26.02 7.78v49.75l4.27.12 17.02-11.14v-38.73l.01-6.25 21.22 45.47L74.26 405l.01 6.41v57.45l9.7 6.34 7.33 4.8 4.27-.12v-68.47l.01-8.51.09-54.78H78.48zM320.17 400.56l-4.83-2.54h30.27l2.84-18.85h-28.28v-12.12h34.64l2.84-19.21h-57.02v85.33l4.38 10.62h54.25v-19.44h-39.09v-23.79zM211.63 347.84l-16.47 39.84-8.47-20.49h.04l-.29-.61-7.74-18.74h-28.44l-.1 3.86 10.07 15.39 3.56.02 20.66 44.96v20.96l4.42 10.76h16.88v-31.72l17.49-38.06v-26.17h-11.61z"/>
  <path d="M385.82 39.17a24.68 24.68 0 0 0 4.71-8.27c1.17-4.29 1.71-15-9.07-18.12a17 17 0 0 1 .73 16 10.86 10.86 0 0 0-2.19-4.04c1.59 5.64-.18 11.5-3.91 16.14 2.83-4.78 4-11.82-1.75-20.59-2.77-4.51-13.58-12.87-26.72-7 3.63.76 15 2.91 16.86 11.76a18.54 18.54 0 0 0-6.12-1.49 20.89 20.89 0 0 1 12.67 15.56c-2.34-5.78-7.2-11.45-16.65-11.55-5.91.53-16.2 4.77-17.79 21.12 2.27-3 5.92-11.6 16.59-9.49a5.26 5.26 0 0 0-3.66 5.8c7.23-6.17 16.14-4.89 21-.41-32.72 4.16-54.92 30.6-58.52 35.1l-20.7-13.58a.9.9 0 0 0-1.24.26L281 80.24q-2.7-.8-5.46-1.48a118.08 118.08 0 0 0-48.11-1.67 116.84 116.84 0 0 0-44.79 17.15 121.86 121.86 0 0 0-54 123.16 119.82 119.82 0 0 0 17 45 123.05 123.05 0 0 0 31.76 33.89q3.31 2.39 6.77 4.53c.9.56 1.8 1.09 2.71 1.62l3.66.08.56-.28 24.87-12.59V189.29l31.58 52.36 31.58-52.36v100.36L304 302.24l.56.28 4.16-.09c.75-.44 1.48-.9 2.21-1.35.46-.29.93-.55 1.39-.85a120.75 120.75 0 0 0 52.71-74.41 119.8 119.8 0 0 0 1.51-48.1 121.94 121.94 0 0 0-17.12-45.52 126.46 126.46 0 0 0-15.66-20l7.85-12a.9.9 0 0 0-.26-1.24l-20.41-13.45C343.3 56.93 372 50.41 372 50.41c-1.49 7.74-4.79 13.45-14.1 14.41.89 1.16 3.48 1.66 6.22.62-1.88 8.4-17.66 7.89-22 7.4 15 11.76 29.64 4.06 32 2 7.88-8.43 6.51-17.54 3.16-24.26A24 24 0 0 1 379 73.83a21.34 21.34 0 0 0 4-6c3.31 3.26-2.52 19.64-5 23.12 15.69-5.34 17.29-20.73 17.05-26.82-2-11.91-8.54-16.92-14.66-18.73 6.77 1 13.19 4.78 16.26 10.78a6 6 0 0 0-1.71-5.36c7.62.63 9.81 11.28 10.5 14.33 7.86-22.07-15.44-26.32-19.62-25.98zM159.17 212.31a95.91 95.91 0 0 1 1-37.23 98.53 98.53 0 0 1 9.07-24.52q1.33-2.5 2.8-4.91c.7-1.14 1.42-2.27 2.16-3.38 1-1.49 2.07-2.94 3.16-4.37l6.53 7.72h.29l.07 94.79v22.27a97.67 97.67 0 0 1-12.09-15.63 94.62 94.62 0 0 1-12.99-34.74zM285.6 123.38l-12.54 20.41-25.41 41.36-25.41-41.36-12.54-20.41h-18.46a92.69 92.69 0 0 1 7.67-5.77A83.42 83.42 0 0 1 232 104.56a84.59 84.59 0 0 1 35.68 1.58 90.39 90.39 0 0 1 31.59 15.28c.84.64 1.66 1.3 2.49 2zm25.45 177.5l10.68-155.23c.49.75 1 1.48 1.46 2.25.73 1.19 1.43 2.4 2.11 3.62a96.51 96.51 0 0 1 10.87 31.29 95.23 95.23 0 0 1-15.09 69.55 89.72 89.72 0 0 1-10 12.07v-22.27l.08-96.53h.29L317 139q2.48 3.23 4.73 6.65z" transform="translate(-19.35 -11.27)" fill-rule="evenodd"/>
</svg>
