<svg width="480" height="191" xmlns="http://www.w3.org/2000/svg">
  <g fill="none" fill-rule="evenodd">
    <path d="M39.87 12.08v.46c0 1.47.42 2.41 2.08 2.41a1.81 1.81 0 0 0 1.89-1.93c0-1.43-.73-1.95-2.81-2.68-2.81-1-4.1-2.12-4.1-4.73 0-3 1.86-4.61 4.85-4.61 2.8 0 4.84 1.21 4.84 4.21v.44h-3c0-1.47-.51-2.32-1.71-2.32a1.62 1.62 0 0 0-1.8 1.82c0 1 .28 1.55 1.62 2.12l2.43 1.06c2.37 1 3 2.23 3 4.14 0 3.31-2 4.8-5.44 4.8-3.58 0-5-1.66-5-4.56v-.63h3.15z" fill="#FFF"/>
    <path d="M71.64 1.31h3.9l4.14 15.66H76.4l-.73-3.32h-4.16l-.73 3.32h-3.29l4.15-15.66zm.41 9.76h3.07l-1.51-7-1.56 7z" fill="#FFF" fill-rule="nonzero"/>
    <path fill="#FFF" d="M104.3 1.31l3.82 10.72V1.31h2.9v15.66h-3.6l-3.86-11v11h-2.89V1.31zm60.16 0h8.75V3.9h-5.59v3.68h5.26v2.59h-5.26v6.8h-3.16z"/>
    <path d="M194.5 1.31h5.83c2.59 0 4.17 1.36 4.17 4 0 2.09-.84 3.49-2.61 3.86v.05c2.14.28 2.47 1.47 2.52 4.78 0 1.64.11 2.5.7 2.8v.14h-3.42a3.13 3.13 0 0 1-.4-1.65l-.08-3c-.05-1.23-.6-2-1.87-2h-1.69v6.63h-3.15V1.31zm3.15 6.84H199a2.06 2.06 0 0 0 2.37-2.35 2 2 0 0 0-2.19-2.17h-1.5l-.03 4.52zm31.97-6.84h3.9l4.15 15.66h-3.29l-.73-3.32h-4.16l-.72 3.32h-3.29l4.14-15.66zm.42 9.76h3.07l-1.52-7-1.55 7z" fill="#FFF" fill-rule="nonzero"/>
    <path fill="#FFF" d="M262.29 1.31l3.81 10.72V1.31h2.9v15.66h-3.59l-3.86-11v11h-2.89V1.31zm35.52 5.28c0-2.28-.46-3.26-1.89-3.26-1.6 0-2 1.6-2 6 0 4.73.65 5.59 2 5.59 1.14 0 2-.59 2-4h3.16c0 3.38-.84 6.29-5 6.29-4.74 0-5.33-3.37-5.33-8.13 0-4.76.59-8.14 5.33-8.14 4.51 0 4.84 3.31 4.84 5.59l-3.11.06zm25.12 10.38V1.31h3.16v15.66zm27.93-4.89v.46c0 1.47.42 2.41 2.09 2.41a1.81 1.81 0 0 0 1.88-1.93c0-1.43-.72-1.95-2.81-2.68-2.8-1-4.1-2.12-4.1-4.73 0-3 1.87-4.61 4.85-4.61 2.81 0 4.85 1.21 4.85 4.21v.44h-3c0-1.47-.5-2.32-1.71-2.32a1.62 1.62 0 0 0-1.8 1.82c0 1 .29 1.55 1.62 2.12l2.44 1.06c2.37 1 3 2.23 3 4.14 0 3.31-2 4.8-5.44 4.8-3.44 0-5-1.66-5-4.56v-.63h3.13zm35.41-5.49c0-2.28-.46-3.26-1.88-3.26-1.61 0-2 1.6-2 6 0 4.73.66 5.59 2 5.59 1.14 0 2-.59 2-4h3.16c0 3.38-.83 6.29-5 6.29-4.73 0-5.33-3.37-5.33-8.13 0-4.76.6-8.14 5.33-8.14 4.52 0 4.85 3.31 4.85 5.59l-3.13.06z"/>
    <path d="M416.24 1c4.74 0 5.33 3.38 5.33 8.14 0 4.76-.59 8.13-5.33 8.13s-5.33-3.37-5.33-8.13c0-4.76.6-8.14 5.33-8.14zm0 13.95c1.87 0 2.17-1.6 2.17-5.81 0-4.21-.3-5.81-2.17-5.81-1.87 0-2.17 1.62-2.17 5.81 0 4.19.31 5.81 2.17 5.81z" fill="#FFF" fill-rule="nonzero"/>
    <path fill="#D6C152" d="M80.05 143.13v17.51l1.74 6.61 1.73-6.61v-17.51l-1.73-6.6zm-8.09 1.66v14.19l1.73 5.36 1.74-5.36v-14.19l-1.74-5.36zm16.77-.93v16.05l1.73 11.54 1.73-11.54v-16.05l-1.73-11.54zm9.25-2.39v20.84l1.73 10.35 1.74-10.35v-20.84l-1.74-10.35zm8.67-2.93v26.7l1.73 9.73 1.74-9.73v-26.7l-1.74-9.74zm8.67-2.77v32.24l1.74 9.58 1.73-9.58v-32.24l-1.73-9.58zm8.67-11.14v54.52l1.74 11.54 1.73-11.54v-54.52l-1.73-11.55zm53.19 18.5v17.51l1.74 6.61 1.73-6.61v-17.51l-1.73-6.6zm8.1 1.66v14.19l1.73 5.36 1.74-5.36v-14.19l-1.74-5.36zm-16.77-.93v16.05l1.74 11.54 1.73-11.54v-16.05l-1.73-11.54zm-9.25-2.39v20.84l1.74 10.35 1.73-10.35v-20.84L161 131.12zm-8.67-2.93v26.7l1.73 9.73 1.74-9.73v-26.7l-1.74-9.74zm-8.67-2.77v32.24l1.73 9.58 1.73-9.58v-32.24l-1.73-9.58zm-8.68-11.14v54.52l1.74 11.54 1.73-11.54v-54.52l-1.73-11.55zm60.13 21.33v11.85l1.74 4.46 1.73-4.46v-11.85l-1.73-4.46zm8.67.5v10.85l1.74 7.81 1.73-7.81v-10.85l-1.73-7.81zm9.25-1.62v14.09l1.74 7 1.73-7v-14.09l-1.73-7zm8.68-1.98v18.05l1.73 6.59 1.74-6.59v-18.05l-1.74-6.59zm8.67-1.88v21.81l1.73 6.48 1.74-6.48v-21.81l-1.74-6.48zm8.67-7.53v36.87l1.74 7.81 1.73-7.81v-36.87l-1.73-7.81zm53.19 12.51v11.85l1.74 4.46 1.73-4.46v-11.85l-1.73-4.46zm-8.67.5v10.85l1.73 7.81 1.74-7.81v-10.85l-1.74-7.81zm-9.25-1.62v14.09l1.73 7 1.74-7v-14.09l-1.74-7zm-8.67-1.98v18.05l1.73 6.59 1.74-6.59v-18.05l-1.74-6.59zm-8.67-1.88v21.81l1.73 6.48 1.73-6.48v-21.81l-1.73-6.48zm-8.68-7.53v36.87l1.74 7.81 1.73-7.81v-36.87l-1.73-7.81zm53.19 14.43v8.01l1.74 3.02 1.73-3.02v-8.01l-1.73-3.02zm8.68.34v7.34l1.73 5.28 1.73-5.28v-7.34l-1.73-5.28zm9.25-1.1v9.53l1.73 4.74 1.73-4.74v-9.53l-1.73-4.74zm8.67-1.34v12.21l1.73 4.46 1.74-4.46v-12.21l-1.74-4.46zm8.67-1.27v14.75l1.73 4.38 1.74-4.38v-14.75l-1.74-4.38zm8.67-5.09v24.94l1.74 5.28 1.73-5.28v-24.94l-1.73-5.29zm53.19 8.46v8.01l1.74 3.02 1.73-3.02v-8.01l-1.73-3.02zm-8.67.34v7.34l1.73 5.28 1.74-5.28v-7.34l-1.74-5.28zm-9.25-1.1v9.53l1.73 4.74 1.74-4.74v-9.53l-1.74-4.74zm-8.67-1.34v12.21l1.73 4.46 1.74-4.46v-12.21l-1.74-4.46zm-8.67-1.27v14.75l1.73 4.38 1.73-4.38v-14.75l-1.73-4.38zm-8.68-5.09v24.94l1.74 5.28 1.73-5.28v-24.94l-1.73-5.29zm-316.25 8.46v8.01l1.74 3.02 1.73-3.02v-8.01l-1.73-3.02zm8.68.34v7.34l1.73 5.28 1.73-5.28v-7.34l-1.73-5.28zm9.25-1.1v9.53l1.73 4.74 1.73-4.74v-9.53l-1.73-4.74zm8.67-1.34v12.21l1.73 4.46 1.74-4.46v-12.21l-1.74-4.46zm358.23 5.02H404.4v2.31h17.12l10.63-1.15zM2.58 151.96l10.63 1.15h17.12v-2.31H13.21z"/>
    <path fill="#FFF" d="M146.48 61.27h-32.19v-30.5H86.62v87h28.24V83.29h31.62v34.45h27.67v-87h-27.67zM480 152.19c-10.09-14.12-44.36-63.56-54.47-78 10.12-14.51 20.22-28.68 30.32-43.37h-33.77C412 45.51 401.73 59.63 392.13 73.98V30.77h-27.67v87h27.67V74.52c10.16 14.78 44 63.55 54.1 77.67H480z"/>
    <path d="M252.21 30.77h-51.08c-12.404 0-22.46 10.056-22.46 22.46v42.05c0 12.404 10.056 22.46 22.46 22.46h51.08c12.402-.006 22.454-10.058 22.46-22.46V53.23c-.006-12.402-10.058-22.454-22.46-22.46zm-4.08 56.59a7.23 7.23 0 0 1-7.23 7.23h-30.73a7.23 7.23 0 0 1-7.22-7.23V60.59a7.23 7.23 0 0 1 7.22-7.23h30.73a7.23 7.23 0 0 1 7.23 7.23v26.77z" fill="#FFF" fill-rule="nonzero"/>
    <path d="M278.62 53.06v42.49a22 22 0 0 0 22.19 22.19h59.69V95.15h-49.65a7.38 7.38 0 0 1-7.38-7.25V60.71a7.47 7.47 0 0 1 7.38-7.35h49.65V30.77h-59.69a22.09 22.09 0 0 0-22.19 22.29zM18 30.75c-8.06.29-14.34 5.38-16.54 13.6a41.92 41.92 0 0 0-.36 20.34c1.83 7.92 6.42 13.1 14.55 15.21l36.46 10.77a3.06 3.06 0 0 1 1.2 2.51A3 3 0 0 1 52 95.77a1.67 1.67 0 0 1-1 .32H1.63v21.64h62.24c9.16 0 15.3-5.18 16.89-13a70.8 70.8 0 0 0 1.14-15.65c-.31-13.41-5.81-18-18.11-21.41-10.33-2.86-20.7-5.59-31-8.44A10.47 10.47 0 0 1 29 57.62a3 3 0 0 1-1.26-2.55 2.69 2.69 0 0 1 2.41-2.9h52v-21.4L18 30.75z" fill="#FFF"/>
  </g>
</svg>
