<svg id="Layer_1" data-name="Layer 1" xmlns="http://www.w3.org/2000/svg" width="480" height="189.69">
  <defs>
    <style>
      .cls-2{fill:#fff}.cls-3{fill:#d6c152}.cls-4{fill:#fc4c02}
    </style>
  </defs>
  <path class="cls-2" d="M49.87 166.23v.46c0 1.47.42 2.41 2.08 2.41a1.81 1.81 0 0 0 1.89-1.93c0-1.43-.73-1.95-2.81-2.68-2.81-1-4.1-2.12-4.1-4.73 0-3 1.86-4.61 4.85-4.61 2.8 0 4.84 1.21 4.84 4.21v.44h-3c0-1.47-.51-2.32-1.71-2.32a1.62 1.62 0 0 0-1.8 1.82c0 1 .28 1.55 1.62 2.12l2.43 1.06c2.37 1 3 2.23 3 4.14 0 3.31-2 4.8-5.44 4.8-3.58 0-5-1.66-5-4.56v-.63zM81.64 155.46h3.9l4.14 15.66H86.4l-.73-3.32h-4.16l-.73 3.32h-3.29zm.41 9.76h3.07l-1.51-7zM114.3 155.46l3.82 10.72v-10.72h2.9v15.66h-3.6l-3.86-11v11h-2.89v-15.66zM174.46 155.46h8.75v2.59h-5.59v3.68h5.26v2.59h-5.26v6.8h-3.16zM204.5 155.46h5.83c2.59 0 4.17 1.36 4.17 4 0 2.09-.84 3.49-2.61 3.86v.05c2.14.28 2.47 1.47 2.52 4.78 0 1.64.11 2.5.7 2.8v.14h-3.42a3.13 3.13 0 0 1-.4-1.65l-.08-3c-.05-1.23-.6-2-1.87-2h-1.69v6.63h-3.15zm3.15 6.84H209a2.06 2.06 0 0 0 2.37-2.35 2 2 0 0 0-2.19-2.17h-1.5zM239.62 155.46h3.9l4.15 15.66h-3.29l-.73-3.32h-4.16l-.72 3.32h-3.29zm.42 9.76h3.07l-1.52-7zM272.29 155.46l3.81 10.72v-10.72h2.9v15.66h-3.59l-3.86-11v11h-2.89v-15.66zM307.81 160.74c0-2.28-.46-3.26-1.89-3.26-1.6 0-2 1.6-2 6 0 4.73.65 5.59 2 5.59 1.14 0 2-.59 2-4h3.16c0 3.38-.84 6.29-5 6.29-4.74 0-5.33-3.37-5.33-8.13s.59-8.14 5.33-8.14c4.51 0 4.84 3.31 4.84 5.59zM332.93 171.12v-15.66h3.16v15.66zM360.86 166.23v.46c0 1.47.42 2.41 2.09 2.41a1.81 1.81 0 0 0 1.88-1.93c0-1.43-.72-1.95-2.81-2.68-2.8-1-4.1-2.12-4.1-4.73 0-3 1.87-4.61 4.85-4.61 2.81 0 4.85 1.21 4.85 4.21v.44h-3c0-1.47-.5-2.32-1.71-2.32a1.62 1.62 0 0 0-1.8 1.82c0 1 .29 1.55 1.62 2.12l2.44 1.06c2.37 1 3 2.23 3 4.14 0 3.31-2 4.8-5.44 4.8s-5-1.66-5-4.56v-.63zM396.27 160.74c0-2.28-.46-3.26-1.88-3.26-1.61 0-2 1.6-2 6 0 4.73.66 5.59 2 5.59 1.14 0 2-.59 2-4h3.16c0 3.38-.83 6.29-5 6.29-4.73 0-5.33-3.37-5.33-8.13s.6-8.14 5.33-8.14c4.52 0 4.85 3.31 4.85 5.59zM426.24 155.15c4.74 0 5.33 3.38 5.33 8.14s-.59 8.13-5.33 8.13-5.33-3.37-5.33-8.13.6-8.14 5.33-8.14zm0 13.95c1.87 0 2.17-1.6 2.17-5.81s-.3-5.81-2.17-5.81-2.17 1.62-2.17 5.81.31 5.81 2.17 5.81z" transform="translate(-10 -155.15)"/>
  <path class="cls-3" d="M80.05 142.13V159.64l1.74 6.61 1.73-6.61V142.13l-1.73-6.6-1.74 6.6zM71.96 143.79v14.19l1.73 5.36 1.74-5.36v-14.19l-1.74-5.36-1.73 5.36zM88.73 142.86v16.05l1.73 11.54 1.73-11.54v-16.05l-1.73-11.54-1.73 11.54zM97.98 140.47v20.84l1.73 10.35 1.74-10.35v-20.84l-1.74-10.35-1.73 10.35zM106.65 137.54v26.7l1.73 9.73 1.74-9.73v-26.7l-1.74-9.74-1.73 9.74zM115.32 134.77v32.24l1.74 9.58 1.73-9.58v-32.24l-1.73-9.58-1.74 9.58zM123.99 123.63V178.15l1.74 11.54 1.73-11.54V123.63l-1.73-11.55-1.74 11.55zM177.18 142.13V159.64l1.74 6.61 1.73-6.61V142.13l-1.73-6.6-1.74 6.6zM185.28 143.79v14.19l1.73 5.36 1.74-5.36v-14.19l-1.74-5.36-1.73 5.36zM168.51 142.86v16.05l1.74 11.54 1.73-11.54v-16.05l-1.73-11.54-1.74 11.54zM159.26 140.47v20.84l1.74 10.35 1.73-10.35v-20.84L161 130.12l-1.74 10.35zM150.59 137.54v26.7l1.73 9.73 1.74-9.73v-26.7l-1.74-9.74-1.73 9.74zM141.92 134.77v32.24l1.73 9.58 1.73-9.58v-32.24l-1.73-9.58-1.73 9.58zM133.24 123.63V178.15l1.74 11.54 1.73-11.54V123.63l-1.73-11.55-1.74 11.55zM193.37 144.96v11.85l1.74 4.46 1.73-4.46v-11.85l-1.73-4.46-1.74 4.46zM202.04 145.46v10.85l1.74 7.81 1.73-7.81v-10.85l-1.73-7.81-1.74 7.81zM211.29 143.84v14.09l1.74 7 1.73-7v-14.09l-1.73-7-1.74 7zM219.97 141.86V159.91l1.73 6.59 1.74-6.59V141.86l-1.74-6.59-1.73 6.59zM228.64 139.98V161.79l1.73 6.48 1.74-6.48V139.98l-1.74-6.48-1.73 6.48zM237.31 132.45V169.32l1.74 7.81 1.73-7.81V132.45l-1.73-7.81-1.74 7.81zM290.5 144.96v11.85l1.74 4.46 1.73-4.46v-11.85l-1.73-4.46-1.74 4.46zM281.83 145.46v10.85l1.73 7.81 1.74-7.81v-10.85l-1.74-7.81-1.73 7.81zM272.58 143.84v14.09l1.73 7 1.74-7v-14.09l-1.74-7-1.73 7zM263.91 141.86V159.91l1.73 6.59 1.74-6.59V141.86l-1.74-6.59-1.73 6.59zM255.24 139.98V161.79l1.73 6.48 1.73-6.48V139.98l-1.73-6.48-1.73 6.48zM246.56 132.45V169.32l1.74 7.81 1.73-7.81V132.45l-1.73-7.81-1.74 7.81zM299.75 146.88v8.01l1.74 3.02 1.73-3.02v-8.01l-1.73-3.02-1.74 3.02zM308.43 147.22v7.34l1.73 5.28 1.73-5.28v-7.34l-1.73-5.28-1.73 5.28zM317.68 146.12V155.65l1.73 4.74 1.73-4.74V146.12l-1.73-4.74-1.73 4.74zM326.35 144.78v12.21l1.73 4.46 1.74-4.46v-12.21l-1.74-4.46-1.73 4.46zM335.02 143.51v14.75l1.73 4.38 1.74-4.38v-14.75l-1.74-4.38-1.73 4.38zM343.69 138.42V163.36l1.74 5.28 1.73-5.28V138.42l-1.73-5.29-1.74 5.29zM396.88 146.88v8.01l1.74 3.02 1.73-3.02v-8.01l-1.73-3.02-1.74 3.02zM388.21 147.22v7.34l1.73 5.28 1.74-5.28v-7.34l-1.74-5.28-1.73 5.28zM378.96 146.12V155.65l1.73 4.74 1.74-4.74V146.12l-1.74-4.74-1.73 4.74zM370.29 144.78v12.21l1.73 4.46 1.74-4.46v-12.21l-1.74-4.46-1.73 4.46zM361.62 143.51v14.75l1.73 4.38 1.73-4.38v-14.75l-1.73-4.38-1.73 4.38zM352.94 138.42V163.36l1.74 5.28 1.73-5.28V138.42l-1.73-5.29-1.74 5.29zM36.69 146.88v8.01l1.74 3.02 1.73-3.02v-8.01l-1.73-3.02-1.74 3.02zM45.37 147.22v7.34l1.73 5.28 1.73-5.28v-7.34l-1.73-5.28-1.73 5.28zM54.62 146.12V155.65l1.73 4.74 1.73-4.74V146.12l-1.73-4.74-1.73 4.74zM63.29 144.78v12.21l1.73 4.46 1.74-4.46v-12.21l-1.74-4.46-1.73 4.46zM421.52 149.8H404.4v2.31h17.12l10.63-1.15-10.63-1.16zM2.58 150.96l10.63 1.15h17.12v-2.31H13.21l-10.63 1.16z"/>
  <path class="cls-4" d="M156.48 215.42h-32.19v-30.5H96.62v87h28.24v-34.48h31.62v34.45h27.67v-87h-27.67zM490 306.34c-10.09-14.12-44.36-63.56-54.47-78 10.12-14.51 20.22-28.68 30.32-43.37h-33.77c-10.08 14.69-20.35 28.81-29.95 43.16v-43.21h-27.67v87h27.67v-43.25c10.16 14.78 44 63.55 54.1 77.67zM262.21 184.92h-51.08a22.46 22.46 0 0 0-22.46 22.46v42.05a22.46 22.46 0 0 0 22.46 22.46h51.08a22.47 22.47 0 0 0 22.46-22.46v-42.05a22.47 22.47 0 0 0-22.46-22.46zm-4.08 56.59a7.23 7.23 0 0 1-7.23 7.23h-30.73a7.23 7.23 0 0 1-7.22-7.23v-26.77a7.23 7.23 0 0 1 7.22-7.23h30.73a7.23 7.23 0 0 1 7.23 7.23zM288.62 207.21v42.49a22 22 0 0 0 22.19 22.19h59.69V249.3h-49.65a7.38 7.38 0 0 1-7.38-7.25v-27.19a7.47 7.47 0 0 1 7.38-7.35h49.65v-22.59h-59.69a22.09 22.09 0 0 0-22.19 22.29zM28 184.9c-8.06.29-14.34 5.38-16.54 13.6a41.92 41.92 0 0 0-.36 20.34c1.83 7.92 6.42 13.1 14.55 15.21l36.46 10.77a3.06 3.06 0 0 1 1.2 2.51 3 3 0 0 1-1.31 2.59 1.67 1.67 0 0 1-1 .32H11.63v21.64h62.24c9.16 0 15.3-5.18 16.89-13a70.8 70.8 0 0 0 1.14-15.65c-.31-13.41-5.81-18-18.11-21.41-10.33-2.86-20.7-5.59-31-8.44a10.47 10.47 0 0 1-3.79-1.61 3 3 0 0 1-1.26-2.55 2.69 2.69 0 0 1 2.41-2.9h52v-21.4z" transform="translate(-10 -155.15)"/>
</svg>
