<svg xmlns="http://www.w3.org/2000/svg" width="500" height="500">
  <defs>
    <style>
      .cls-1{fill:#0f57ea}
    </style>
  </defs>
  <g id="NY">
    <path class="cls-1" d="M75.75 250L30 204.25v91.5L75.75 250z"/>
    <path class="cls-1" d="M125.73 250L30 345.73v24.22h25.31L175.26 250 55.31 130.05H30v24.22L125.73 250z"/>
    <path class="cls-1" d="M225.23 250L105.28 369.95h49.53L250 274.77l95.19 95.18h49.53L274.77 250l119.95-119.95h-49.53L250 225.23l-95.19-95.18h-49.53L225.23 250zM470 295.75v-91.5L424.25 250 470 295.75z"/>
    <path class="cls-1" d="M444.69 369.95H470v-24.22L374.27 250 470 154.27v-24.22h-25.31L324.74 250l119.95 119.95zM295.21 130.05h-90.42L250 175.26l45.21-45.21zM204.79 369.95h90.42L250 324.74l-45.21 45.21z"/>
  </g>
</svg>
