<svg id="Layer_3" data-name="Layer 3" xmlns="http://www.w3.org/2000/svg" width="449.71" height="480">
  <defs>
    <style>
      .cls-1{fill:#0f57ea}.cls-2{fill:#ff1c26}.cls-3{fill:#fff}
    </style>
  </defs>
  <path class="cls-1" d="M46.76 190.38L0 143.62v93.52l46.76-46.76z"/>
  <path class="cls-1" d="M97.84 190.38L0 288.21v24.77h25.86l122.6-122.6-122.6-122.6H0v24.76l97.84 97.84z"/>
  <path class="cls-1" d="M199.54 190.38l-122.6 122.6h50.63l97.28-97.29 97.29 97.29h50.62l-122.59-122.6 122.59-122.6h-50.62l-97.29 97.28-97.28-97.28H76.94l122.6 122.6zM449.71 237.14v-93.52l-46.76 46.76 46.76 46.76z"/>
  <path class="cls-1" d="M423.84 312.98h25.87v-24.77l-97.84-97.83 97.84-97.84V67.78h-25.87l-122.59 122.6 122.59 122.6zM271.06 67.78h-92.41l46.2 46.21 46.21-46.21zM178.65 312.98h92.41l-46.21-46.21-46.2 46.21z"/>
  <path class="cls-2" d="M121.88 51.92h-8.2l-4.41-20.39v20.39h-7.58V10.31h8.2l4.41 21.42V10.31h7.58zM155.09 51.92h-14V10.31h14v6.76h-5.18v8.61h5.18v6.76h-5.18v12.72h5.18zM207.48 10.31l-5.23 41.61h-9.33l-2.1-25-2.1 25h-9.33l-5.23-41.61h8.3l2 26.19 2.36-26.19h8l2.36 26.19 2-26.19zM279.37 10.31l-5.79 25.11v16.5h-9.33v-16.5l-5.79-25.11h8.3l2.15 16 2.15-16zM318.08 44.13q0 5.07-1.69 6.46-1.85 1.54-8.4 1.54t-8.3-1.49q-1.79-1.49-1.79-6.51V18q0-5 1.79-6.51t8.3-1.49q6.56 0 8.4 1.54 1.69 1.46 1.69 6.46zm-8.81-.1V18.15q0-1.33-1.28-1.33t-1.28 1.33V44q0 1.33 1.28 1.33t1.28-1.33zM357.48 51.92h-8.81V37q0-1.69-1.38-1.69h-1.19v16.61h-8.81V10.31h10.86q5.64 0 7.38 1.43 1.95 1.54 1.95 6.56v7.28q0 5.38-3.95 6 3.95 1.13 3.95 6.3zm-8.82-25.62v-7.53q0-1.69-1.38-1.69h-1.18v10.65h1.18q1.38 0 1.38-1.43zM398.19 51.92h-8.87L385.07 32v19.92h-8.4V10.31h8.4v16.76l3.33-16.76h8.71L392.55 29z" transform="translate(-25.09 -10.05)"/>
  <path class="cls-3" d="M283.33 369a9.31 9.31 0 0 1 9.31-9.31h29.8a9.31 9.31 0 0 1 9.31 9.31v33.74h-20.48v-22.58a1.87 1.87 0 0 0-1.86-1.86h-3.72a1.87 1.87 0 0 0-1.86 1.86v18.22c0 1.83-.15 2.48 1 4L329 433.65c1.3 1.86 2.79 3.72 2.79 7.45v39.62a9.31 9.31 0 0 1-9.31 9.31h-29.8a9.31 9.31 0 0 1-9.31-9.31v-37.24h20.48v26.07a1.87 1.87 0 0 0 1.86 1.86h3.72a1.87 1.87 0 0 0 1.86-1.86v-22.81a5.34 5.34 0 0 0-1.11-3.26s-23-29.79-24.61-32c-1.76-2.44-2.21-3.38-2.21-5.78zM157.63 406.23v-26.07a1.87 1.87 0 0 0-1.86-1.86H152a1.87 1.87 0 0 0-1.86 1.86v89.39a1.87 1.87 0 0 0 1.86 1.86h3.72a1.87 1.87 0 0 0 1.86-1.86v-26.07h20.48v37.25a9.31 9.31 0 0 1-9.31 9.31H139a9.31 9.31 0 0 1-9.31-9.31V369a9.31 9.31 0 0 1 9.31-9.31h29.8a9.31 9.31 0 0 1 9.31 9.31v37.25z" transform="translate(-25.09 -10.05)"/>
  <path class="cls-3" d="M199.09 401.76v18.63h-18.66v40.97h22.39v18.62h-42.88V349.62h42.88v18.63h-22.39v33.51h18.66zM39.15 401.76v18.63H20.49v40.97h22.39v18.62H0V349.62h42.88v18.63H20.49v33.51h18.66z"/>
  <path class="cls-3" d="M396.86 380.16a2 2 0 0 0-1.86-1.86h-3.72a2 2 0 0 0-1.86 1.86v89.39a2 2 0 0 0 1.86 1.86H395a2 2 0 0 0 1.86-1.86zM408 359.68c5.59 0 9.31 3.72 9.31 9.31v111.74c0 5.59-3.72 9.31-9.31 9.31h-29.8c-5.59 0-9.31-3.72-9.31-9.31V369c0-5.59 3.72-9.31 9.31-9.31z" transform="translate(-25.09 -10.05)"/>
  <path class="cls-3" d="M314.75 349.62h20.48v130.36h-20.48z"/>
  <path class="cls-3" d="M453.88 380.16a1.87 1.87 0 0 0-1.88-1.86h-5.59v35.38H452a1.87 1.87 0 0 0 1.86-1.86zm20.49 52.14V490h-20.49v-55.83a1.87 1.87 0 0 0-1.86-1.86h-5.59V490h-20.49V359.68h39.11a9.31 9.31 0 0 1 9.31 9.31v43.76c0 5.59-3.72 9.31-9.31 9.31v.94c5.59 0 9.31 3.72 9.31 9.31" transform="translate(-25.09 -10.05)"/>
  <path class="cls-3" d="M230.22 458.5V349.62h-20.49v130.36h9.48l11.01-21.48zM231.68 461.36l-9.54 18.62h30.47v-18.62h-20.93z"/>
  <path class="cls-3" d="M102.3 393.74v-34h20.48v38.54a3.73 3.73 0 0 1-.34 1.57l-27.59 52.4v37.8H74.36v-40.9a3.73 3.73 0 0 1 .34-1.57z" transform="translate(-25.09 -10.05)"/>
  <path class="cls-3" d="M111.69 426.62l-11.44 21.75 2 3.89v37.8h20.49v-40.9a3.72 3.72 0 0 0-.35-1.57zM85.42 420.16l11.48-22.41-2.05-4v-34H74.36v38.54a3.72 3.72 0 0 0 .35 1.57z" transform="translate(-25.09 -10.05)"/>
</svg>
