<svg xmlns="http://www.w3.org/2000/svg" viewBox="0 0 500 500">
  <path d="M332.3 46.4c3.5 4.2 21.7 30.2 34.5 44.9.6-8.7 1.2-17.1 5.7-24.5-1.2 16.4 12.7 36 17.9 42.4 8.5 11.5 22.4 11.3 20.3-3.2 11.6 9.3 12.5 25.3 1.2 31.5 12.7 13.9 11.8 15.4 18.5 17.4 4.1 1.1 6.3 0 8.1-1.4 1.1-.8 1.3-3.3-1.6-5.2-14.6-9.4-7-28.9-6.3-29 0 .5-2.2 15.7 5.9 20.6 19 11.2 20.2 20.3 18.1 36.1-.8 5-7.8 14.4-17 18.4 1.2-2.9 1.9-6 2.2-9.2-2.5 3.8-11.9 8.6-18.9 8.5 2.9-2.5 5.5-5.4 7.6-8.5-1.6-.5-3.2.5-4.3 1.9-1.2 1.5-7.1 7.5-18.1 4.6 4.1-1.9 4.8-3.6 5.7-6 .5-1.6.2-2.1-1.4-2.4-21.2-3.5-25.7-20.1-46-30.7-2.3-1-4.6-1.9-7-2.6-.9-.3-1.5 0-1.7 1-.6 4.4-2.7 15.4 8.1 19.7 6.8 3.5 24.5 5.8 31.5 24-12.6-7.9-15-7.2-20.3-7.1 8 5.6 11.5 9.8 14.1 15 2.9 6.4 6.9 7 11.1 7.6 8.1 2.1 11-5.4 11.3-5.8 4.8 14.1-1.6 22.3-11 25.4-6.6 2-13.4 3-20.3 2.9-20.9 1.2-21.6-21.5-45.3-17.3 3.2-2.9 11.6-10.6 23.2-2.5-1.5-2.9-1.6-6.5-13.8-9.4 13.5-4.2 22.1 2.1 27.5 4.4.1-.1-.7-12.7-35.5-21-8.2-1.6-52.1-9.4-51.3-40.7 7 14.1 25.6 17.4 34 7.1 1-1.2.8-1.9-.7-2.9-33.9-23.8-142.7 7.2-113.3 48.8-3.3-.3-44.5 2.3-47.9-43.9-3.8 33.4 21.8 48.5 30.3 52.6 13.9 10 176.4 21.3 221.4 42.3 13.3 5.1 15.5 16.2 15.5 27.4.1 92.6-76.7 147.2-143.9 187.6-.6.3-1.3.3-1.9 0-51.1-35.5-146.2-74.3-141.1-198.2 21.6 84.2 132 130 137.7 131.4 10.1-4 53.4-21.6 32.3-54.9 8.6 3.4 14.6 9.2 19.8 16.4 5-12.9 4.3-24.7-6.1-34.8 19.8 2.8 36.7 11 50.3 26.2-32-71-154.4-37.1-193.5-66-38.4-28.6-39.9-67-64.8-90.1 7 1.1 13.8 2.4 19.9 6.3-3.8-12-11.4-20.5-26.2-31.7 6.2-3.5 13.6-4.7 20.9-4.7-7.1-5.2-17.7-13.5-23-22.8 7.8 3.2 20.4.6 24.4-1.9 20.4-17.5 40.3-33.7 62-45 38.8-20.1 80.1-15.7 83.1-23.2.3-.3.2-6.2-.5-8.6-.6-3.9-10-8.7-18.5-13.1 11.3.6 40.6.7 64.5 23.1 5.6-18.3-16.8-44.6-33.9-47 10.6-.2 35.4 4.3 46.5 19.8zm42.3 79.2c3.5 11.1 6.5 17 11.5 19.2 4.8 2 10.4.6 12.7-3.5.5-.9.3-1.3-.8-1.8-2.3-.8-4.4-1.9-6.5-3.2-4.4-2.8-8.9-8.4-16.9-10.7z" fill="#fff"/>
  <path d="M132.3 317.6c-2.6-10-3.7-27.4-2.9-34.3 3.6-65.2-44.2-66.3-60.3-83.8-24-26.9-23-55.5-18-75.4-17.7 24.9-9 76.3-4.2 83.3.6 1.4 1.9 2.4 3.4 2.6 4.5 2.2 19 11.4 28.5 25.9-13.5-.5-24.1-6.1-32.7-16 .6 3.6 12.4 23.3 17.4 29.6 1.4 2 2.2 3 6.3 4 30.9 11 62.5 64.1 62.5 64.1z" fill="#d22630"/>
</svg>
