<svg id="Layer_1" xmlns="http://www.w3.org/2000/svg" viewBox="0 0 500 500">
  <style>
    .st1{fill:#f99d2a}
  </style>
  <g id="Philly">
    <path d="M367.9 154.8H172.6v95.1H91.4l80.9 52.1.6 99.9 57.6-53.3v-46.4l115 .3 49.1-49.1V180s2.6-25.7-26.7-25.2zm-137.4 51.9H328c3.1.1 13.4 1.3 12.9 12.9v12.6l-17 17c-.5.1-1.1.1-1.7.2h-91.7v-42.7z" fill="#fff"/>
    <path class="st1" d="M159.6 186c-15.9-39.1-18.8-71.9-7-90.9-15.5-1.3-33.1 6.2-33.1 6.2 45.7-39.6 99.9-18.7 99.9-18.7 29.2 9.2 63.8 30 98.6 59.2h23.8C262.5 63.2 176.4 18.9 133.3 39s-29.8 98 26.3 186.9V186zM485 387.7c-.1-4.5-.6-9-1.3-13.4l-.4-.1c-2.4-16.4-7.9-35-16.2-55-9-20.8-19.5-41-31.5-60.2 3.2-4 6.2-8 9-11.9 8.8-12.3 16.3-25.6 22.4-39.4 9.4-23.7 8.4-43.3-5-55.7-15.7-14.6-46.2-17.1-84.8-9.4 4.9.8 9.7 2.5 14 5.1 28.5-5.5 57.9-3.1 69.1 13.6 18.8 28.2-30 89.3-30 89.3-.9-1.3-1.7-2.7-2.6-4.1-1.3-2-2.7-4.1-4.1-6.1-5.3-7.9-11-15.8-16.1-22.5v18.7c9.6 13.4 15.6 22.9 15.4 23.1-10.1 13.1-25 27.7-39.2 40.3-8.4 7.6-17.3 15.1-26.9 22.7-7.7 6.2-12.7 9.9-12.7 9.9h-.1c-6.7 5-13.6 10-20.7 14.9-3 2.1-6 4.1-9 6-3.9-4-8.9-6.6-14.3-7.5-14.5-2.5-28.6 7-31.6 21-1 4.6-.6 9.4 1 13.8-84 46.3-163.5 64.7-194.3 42.2l-.9 4.3c-2.5 13.5 2.5 29.6 2.5 29.6-19.3-27.5-17.1-55.9-12.9-73 6-26 29.2-59.5 65.2-94l-13.5-8.7C33.4 351.5-6 422.4 26.2 452.2c35 32.4 142.6 5.2 251.3-60.7 3.5 2.7 7.5 4.5 11.9 5.2 14.5 2.5 28.6-7 31.6-21 .9-4.1.7-8.3-.5-12.3 12.7-8.9 24.7-18 36.1-27.1l.1.1c3.1-2.5 6-5 8.9-7.4 34.2-28.9 55.9-53.2 61.4-59.6l1.3-1.5v-.1c13.7 21.6 23.3 40.6 30 57.1 7.1 17.1 11.7 33 13.8 47.1h-.2c.7 4.4 1.1 8.8 1.3 13.2h.1c.1 2.5 0 5-.1 7.4 0 3.1-.4 6.1-1 9.1-2.6 13.9-9.6 24.1-21.2 29.5-19.2 9-48.1 3.4-81-13.3 0 0-17.1-7.9-51-27.2 0 0 9.2 12.1 42.6 32.7 39.8 21.3 74.9 28.8 97.8 18.1 16.4-7.7 24.6-23.7 25.4-45.6h-.1s0-.2.1-.7c.1-2.4 0-5-.1-7.5h.3z"/>
  </g>
</svg>
