<svg id="Layer_1" data-name="Layer 1" xmlns="http://www.w3.org/2000/svg" width="480" height="385.52">
  <defs>
    <style>
      .cls-1{fill:#fff}.cls-2{fill:#f99e29}
    </style>
  </defs>
  <path class="cls-1" d="M332 127.57H224v52.58h-44.93L223.79 209l.32 55.27L256 234.79v-25.66l63.59.17 27.15-27.15v-40.64s1.4-14.21-14.74-13.94zm-76 28.67h53.9c1.7 0 7.4.69 7.15 7.12v6.95l-9.41 9.41-.94.11H256z" transform="translate(-11.3 -60.83)"/>
  <path class="cls-2" d="M216.77 144.8c-8.77-21.65-10.42-39.75-3.85-50.27-8.58-.72-18.32 3.47-18.32 3.47 25.25-21.89 55.25-10.33 55.25-10.33 16.13 5.09 35.28 16.59 54.52 32.74h13.17c-43.9-43.48-91.5-68-115.33-56.89s-16.48 54.2 14.56 103.36zM396.72 256.36A61.26 61.26 0 0 0 396 249h-.19a128.81 128.81 0 0 0-9-30.41 254.06 254.06 0 0 0-17.4-33.34q2.64-3.32 5-6.56a122.72 122.72 0 0 0 12.39-21.8c5.2-13.22 4.65-24.04-2.8-30.89-8.7-8.06-25.54-9.45-46.9-5.22a21.35 21.35 0 0 1 7.76 2.8c15.78-3 32-1.73 38.22 7.54 10.41 15.59-16.61 49.39-16.61 49.39l-1.47-2.29c-.74-1.13-1.49-2.25-2.25-3.38-3-4.34-6.11-8.72-8.88-12.46v10.34c5.31 7.4 8.62 12.66 8.53 12.77-5.58 7.26-13.85 15.3-21.69 22.28-4.63 4.18-9.59 8.38-14.85 12.54-4.25 3.4-7 5.49-7 5.49q-5.54 4.14-11.45 8.23-2.47 1.69-4.95 3.34a14.33 14.33 0 0 0-7.92-4.13A15.26 15.26 0 0 0 277 244.83a13.66 13.66 0 0 0 .55 7.61c-46.41 25.64-90.4 35.81-107.41 23.35l-.5 2.4c-1.4 7.44 1.37 16.35 1.37 16.35-10.68-15.23-9.48-30.92-7.15-40.4 3.3-14.35 16.14-32.89 36.07-52l-7.47-4.82c-45.56 39-67.31 78.21-49.51 94.69 19.34 17.91 78.86 2.85 139-33.56a14.41 14.41 0 0 0 6.57 2.9 15.26 15.26 0 0 0 17.48-11.6 13.65 13.65 0 0 0-.27-6.8q10.53-7.41 20-15 2.53-2.07 4.93-4.09a319.53 319.53 0 0 0 34-32.94c.25-.28.49-.57.73-.85A201.47 201.47 0 0 1 382 221.64a111.58 111.58 0 0 1 7.63 26h-.12a71.3 71.3 0 0 1 .72 7.29h.07c0 1.41 0 2.77-.05 4.09a25.52 25.52 0 0 1-.57 5.06c-1.45 7.66-5.31 13.33-11.74 16.34-10.64 5-26.63 1.88-44.81-7.34s-9.48-4.39-28.22-15.07c0 0 5.11 6.72 23.56 18.11 22 11.76 41.42 15.94 54.1 10 9.06-4.23 13.61-13.12 14-25.23s0-.13 0-.4q.06-2 0-4.17z" transform="translate(-11.3 -60.83)"/>
  <path class="cls-1" d="M119 367.56c3.14 0 3.12 0 5.4-2.08l17.69-17.7c.34-.35.64-.52.27-.94H43v38.45H11.3c-.07.6 1.94 1.84 1.94 1.84L43 406.06v40.3c.45 0 1.22-.78 1.22-.78l20.19-20.21c1.16-1.29 1.16-1.67 1.16-2.72v-16.59h29.94c1.88 0 2.27-.18 3.83-1.39l18.26-18.22c.32-.35.58-.64.39-1.08-2.41-.06-52.4-.08-52.4-.08v-17.73zM471.33 346.84v44.77l-41.78-44.77h-20.89v75.81h20.89v-44.29c13.8 14.65 28.05 29.73 41.78 44.29h20v-75.81z" transform="translate(-11.3 -60.83)"/>
  <path class="cls-1" d="M206.23 401.09v-54.25h-20.91v45.08a3 3 0 0 1-.82 2.27l-7.57 7.47a3.55 3.55 0 0 1-1.35.1l-29.44-.08a.39.39 0 0 1-.21-.06 2.69 2.69 0 0 1-.4-.32v-46.71c0-.62-.09-.78-.68-.93l-20.7 20.79v48.25l60.63-.05c1.28 0 2.26 0 3.14-1.13L205.24 404a3.64 3.64 0 0 0 .99-2.91zM341.61 348.16l-20.92 21.23a4.28 4.28 0 0 0-1 2.89v50.37h60.65c1.28 0 2.24 0 3.13-1.13l17.32-17.35a4.24 4.24 0 0 0 1-2.89v-54.44h-57a3.56 3.56 0 0 0-3.18 1.32zM380 368l.36.34v25.23l-8.12 8.2h-30.5l-.6-.48v-2.27-21.13L351 368zM287.46 371.27a.81.81 0 0 0-.27.62v50.76h25.27v-75.81a1.52 1.52 0 0 0-.79.18z" transform="translate(-11.3 -60.83)"/>
  <path class="cls-1" d="M280.78 347.4s0-.56-.44-.56h-68.92v21.43s22 19.25 26.43 23.05 8.92 7.65 13.39 11.47c-.05.15-.12.39-.17.55h-36.56l-18.35 18.38a1.69 1.69 0 0 0-.42.93h85V402.3a3.19 3.19 0 0 0-1.27-2.68L243.35 368c-.36-.32-1-.76-.92-1.55h37.6a.7.7 0 0 0 .58-.26 1 1 0 0 0 .17-.7c.02-5.64 0-18.09 0-18.09z" transform="translate(-11.3 -60.83)"/>
  <g>
    <path class="cls-2" d="M79.66 319.88h6.6c3.88 0 6.45 2.38 6.45 5.92s-2.62 6.12-6.57 6.12h-2.68v4.82h-3.8zm6.24 8.91a2.84 2.84 0 0 0 3-3 2.74 2.74 0 0 0-3-2.77h-2.44v5.76zM111.45 319.88h3.81v6.91h6.79v-6.91h3.81v16.86h-3.81V330h-6.79v6.75h-3.81zM147.73 319.88h3.81v16.86h-3.81zM185.06 333.61v3.13h-11.64v-16.86h3.81v13.73zM211.68 319.88h3.62l7 16.86h-4l-1.3-3.44h-7l-1.3 3.44h-4.05zm4 10.31l-2.19-6h-.07l-2.22 6zM256 328.31c0 5.1-3.42 8.43-8.82 8.43h-6.34v-16.86h6.34c5.43 0 8.82 3.32 8.82 8.43zm-3.86 0a4.9 4.9 0 0 0-5.18-5.2h-2.31v10.4H247a4.9 4.9 0 0 0 5.17-5.2zM279.22 323v3.83h7.06V330h-7.06v3.66h8.14v3.13h-11.95v-16.91h11.95V323zM318.19 333.61v3.13h-11.64v-16.86h3.81v13.73zM339 319.88h6.6c3.88 0 6.46 2.38 6.46 5.92s-2.63 6.12-6.58 6.12h-2.67v4.82H339zm6.24 8.91a2.84 2.84 0 0 0 3-3 2.74 2.74 0 0 0-3-2.77h-2.43v5.76zM372.89 319.88h3.8v6.91h6.8v-6.91h3.8v16.86h-3.8V330h-6.8v6.75h-3.8zM411.23 319.88H415v16.86h-3.81zM442.7 319.88h3.61l7 16.86h-4.05L448 333.3h-7l-1.3 3.44h-4.05zm4.05 10.31l-2.2-6h-.07l-2.21 6z" transform="translate(-11.3 -60.83)"/>
  </g>
</svg>
