<svg id="washington" xmlns="http://www.w3.org/2000/svg" viewBox="0 0 500 500">
  <style>
    .st0{fill:#fff}
  </style>
  <path class="st0" d="M59.2 94.8c27.2 316.8 190.9 361 190.9 361s164.1-44.2 191.3-361L250.1 44.7 59.2 94.8z"/>
  <path d="M250.1 440.5S113.8 405.9 91.1 116l159-43.3L409.5 116c-21.7 288.9-159.4 324.5-159.4 324.5z" fill="#990034"/>
  <path d="M250.1 91.6l137.8 38.9c-1.3 16.9-2.9 32.9-5 47.9-14 11.3-72.9 58.4-132.8 58.4-57.5 0-114.2-43.8-130.9-57-2.2-15.4-3.9-31.9-5.3-49.4l136.2-38.8z" fill="#003768"/>
  <path class="st0" d="M250.1 236.7c59.8 0 118.8-47.2 132.8-58.4-1.1 7.8-2.2 15.4-3.5 22.8-9.5 7.9-68.9 57.1-129.3 57.1-57.1 0-113.5-44.3-127.3-55.6-1.3-7.4-2.5-15-3.6-22.9 16.6 13.3 73.4 57 130.9 57z"/>
  <path class="st0" d="M250.1 272.9c56.9 0 113.1-47.7 127.2-60.4-2 10.7-4.3 20.9-6.7 30.5-23.8 18.8-71.9 51.2-120.5 51.2-47.3 0-94-30.6-118.5-49.6-2.4-9.6-4.7-19.7-6.7-30.3 16.8 14.8 70.6 58.6 125.2 58.6zM348.2 309.8v-34.1c6.2-4.1 11.8-8.1 16.6-11.8-4.6 15.7-10.1 31-16.6 45.9zM330.4 344.2c-5.3 8.8-11.1 17.3-17.5 25.3v-74.1c6.1-2.8 12-5.8 17.5-8.9v57.7zM152.7 308.3c-5.9-13.9-11-28.2-15.4-42.7 4.6 3.4 9.7 7 15.4 10.7v32zM187.2 368.4c-6.4-8.3-12.3-17-17.6-26.1v-55.7c5.6 3.1 11.4 6.1 17.6 8.9v72.9zM250.1 121.3l10.8 33.2h34.9l-28.3 20.6 10.8 33.2-28.2-20.6-28.3 20.6 10.8-33.2-28.2-20.6h34.9zM222.3 307.6v77c5.1 3.5 10.4 6.7 15.9 9.4.5-12.1 3.2-75.4 3.2-75.4l8.6-9 8.6 9s2.6 63.3 3.2 75.4c5.5-2.8 10.8-5.9 15.9-9.4v-77c3.8-.5 17.6-5 17.6-5v86.2c-23.2 22-42.6 27.7-45.3 28.5-2.8-.7-22.1-6.5-45.4-28.5v-86.2c.1-.1 13.8 4.4 17.7 5z"/>
</svg>
