<svg id="Layer_3" data-name="Layer 3" xmlns="http://www.w3.org/2000/svg" width="500" height="500">
  <defs>
    <style>
      .cls-3{fill:#fff}
    </style>
  </defs>
  <path d="M249.81 446.76S108.89 410.94 85.4 111.29l164.41-44.75 164.79 44.75c-22.39 298.64-164.79 335.47-164.79 335.47z" fill="#990034"/>
  <path d="M249.78 86l142.43 40.16q-2 26.28-5.19 49.54c-14.43 11.65-75.41 60.39-137.25 60.39-59.43 0-118.08-45.24-135.36-58.89q-3.36-23.94-5.52-51z" fill="#003768"/>
  <path class="cls-3" d="M249.77 236.08c61.84 0 122.82-48.74 137.25-60.39q-1.66 12.17-3.62 23.54c-9.77 8.16-71.25 59.07-133.63 59.07-59.06 0-117.31-45.83-131.63-57.43q-2-11.44-3.73-23.68c17.28 13.65 75.92 58.89 135.36 58.89z"/>
  <path class="cls-3" d="M249.77 273.45c58.87 0 116.92-49.29 131.49-62.42q-3.17 16.59-6.91 31.5c-24.59 19.42-74.3 53-124.58 53-48.87 0-97.21-31.68-122.45-51.29q-3.75-14.83-7-31.32c17.43 15.25 73.07 60.53 129.45 60.53z"/>
  <path class="cls-3" d="M52.49 89.33C80.62 416.85 249.77 462.5 249.77 462.5s169.61-45.65 197.74-373.17L249.77 37.5zm32.91 22l164.41-44.79 164.79 44.75c-22.39 298.64-164.79 335.47-164.79 335.47S108.89 410.94 85.4 111.29z"/>
  <path class="cls-3" d="M351.19 311.62v-35.21c6.39-4.2 12.17-8.34 17.22-12.14a407.22 407.22 0 0 1-17.22 47.35zM332.85 347.21a243.44 243.44 0 0 1-18.14 26.14v-76.57c6.29-2.88 12.36-6 18.14-9.21zM149.15 310a415 415 0 0 1-15.87-44.15c4.74 3.51 10.06 7.27 15.87 11.06zM184.84 372.14a246 246 0 0 1-18.14-27v-57.57c5.77 3.22 11.84 6.33 18.14 9.21zM249.77 116.76l11.16 34.33h36.1l-29.21 21.22 11.16 34.33-29.21-21.22-29.2 21.22 11.15-34.33-29.2-21.22h36.1l11.15-34.33zM221.05 309.29v79.58a139.33 139.33 0 0 0 16.46 9.76c.56-12.51 3.34-77.92 3.34-77.92l8.92-9.3 8.93 9.3s2.73 65.41 3.29 77.92a139.33 139.33 0 0 0 16.46-9.76v-79.58c3.95-.55 18.17-5.21 18.17-5.21v89.07c-24 22.7-44 28.66-46.87 29.43-2.87-.77-22.87-6.73-46.87-29.43v-89.07s14.22 4.66 18.17 5.21z"/>
</svg>
