<svg id="atlanta" xmlns="http://www.w3.org/2000/svg" viewBox="0 0 500 500">
  <style>
    .st0{fill:#910f1b}.st1{fill:#c4c4c4}
  </style>
  <path class="st0" d="M250 33.6c-4.4 11.3-13 21.8-21.7 25.7 6.4 2.8 13 12.2 13 20.8s-6.5 15.7-14.5 15.7-14.5-7-14.5-15.7c-20.6.7-31.1-10.8-31.1-10.8l28.3 46.1c7.3-3 21.8-6.4 38.8-6.8h3.7c17 .3 31.5 3.8 38.8 6.8L319 69.2S308.5 80.7 287.9 80c0 8.7-6.5 15.7-14.5 15.7s-14.5-7-14.5-15.7 6.6-18 13-20.8c-8.8-3.8-17.5-14.3-21.9-25.6zM181.9 125.2c4.2-1.2 9.1-3 13.7-4.7l-8.1-13.1c-7.8 4.4-32.8 9.6-48.3 12-20 3.1-31.8-10.8-39.6-39.1-.2 13.1 5.6 43.6 19 56.7 21.6 2 51.9-8.5 63.3-11.8zM200.7 425.7s-58.8-32.9-69-39.9c-9.2-6.3-9.5-10.9-9.5-16.5s-1.4-65.7-1.5-84.1c-3.8-.5-17.5-4-17.5-4v95.4c0 15.5 13.6 21.9 13.6 21.9s69.7 39.1 107.6 59.7c-19-18.2-23.7-32.5-23.7-32.5zM304.5 120.5c4.5 1.7 9.5 3.5 13.7 4.7 11.4 3.3 41.7 13.8 63.3 11.7 13.4-13.1 19.2-43.6 19-56.7-7.7 28.3-19.6 42.2-39.6 39.1-15.5-2.4-40.5-7.5-48.3-12l-8.1 13.2zM377.9 369.3c0 5.6-.2 10.2-9.5 16.5-10.2 7-69 39.9-69 39.9s-4.7 14.4-23.7 32.5c37.9-20.6 107.5-59.7 107.5-59.7s13.6-6.3 13.6-21.9c0-18 .2-95.4.2-95.4s-13.8 3.5-17.7 4c0 18.3-1.4 78.5-1.4 84.1z"/>
  <g>
    <path class="st1" d="M58.8 107s3.1-22.6 20.5-40.7c10.7-12.6 11.4-21.7 9-26.4s-7.9-8.7-14.5-10.5c7.6 7 7.5 12.3 3.4 18-6.5 8.9-35.5 31-18.4 59.6zM441.2 107s-3.1-22.6-20.5-40.7c-10.8-12.6-11.5-21.7-9.1-26.4s7.9-8.7 14.5-10.5c-7.6 7-7.5 12.3-3.4 18 6.6 8.9 35.6 31 18.5 59.6z"/>
    <path class="st1" d="M343.2 245s43.4 23.1 93.2-15.4c-5.2 19.5-33.3 42.7-68.4 42.7-22.5 0-36.4-9.3-52.4-12.1-11.9-2.1-26.1-1.2-27.4 9.7-1.8 15.7 16.6 20.9 32.8 17.4-4.6 7.9-36.8 20.2-50.2 6.5-.1 20.4 8.1 76 55.5 72.5 5.3 8.1 14.3 15.4 22.7 18-8.4 5.5-27.4 15.5-27.4 15.5s-45.6-10-55.8-65.7c0 49.3 13.7 81.8 23.1 86.5-1.8 6.4-8.2 14.6-13.8 20.5-5.5 5.9-24.1 19.9-25.1 29.6-1-9.6-19.6-23.7-25.1-29.5-5.6-5.9-12-14.1-13.8-20.5 9.4-4.7 23.1-37.3 23.1-86.5-10.2 55.6-55.8 65.7-55.8 65.7s-19-10-27.4-15.5c8.4-2.6 17.3-9.9 22.7-18 47.4 3.5 55.6-52.2 55.5-72.5-13.4 13.7-45.6 1.4-50.2-6.5 16.2 3.5 34.6-1.7 32.8-17.4-1.3-10.9-15.4-11.8-27.4-9.7-16.1 2.8-29.9 12.1-52.4 12.1-35.1 0-63.2-23.1-68.4-42.7 49.8 38.5 93.2 15.4 93.2 15.4s-86 17.6-113.1-61.5C31.2 147 55 114.1 47.9 109.8c9.8.4 10.1 18.5 10.3 30.4 0 12.5 5 24.5 14 33.3 0 0-27.8-55.9 15.6-103.3 0 0-.1 47.1 17.9 70.8 41.9 55.2 53.6 27.7 88 57.9 0 0-8.8-9.1-7.5-18.4 7.5 16.4 28.4 20.7 37.9 20.7h5.7c5.3-.4 8.9-4 8.8-14.7-.1-9.4 1.4-14.8 1.4-14.8s-2.9 10.6-9.3 13.5c-5 2.3-9.8-.4-10.3-4.3 3.6 1.5 8.9 1.9 11.6-5.3 3.5-9.2 10.9-29.3 13.8-32 1.2-1.4 3.4.5 3.4.5s-1.7-16.5 11.1-14.5c-3.4 2.2-3.6 7.3-3.6 15.5 1.7-4.6 6-6.8 9.2-6.3-4.4 2.2-5.3 10.4-5.3 18.9s-.8 26.4 11.1 40c-3.4-.6-6.4-2.7-8-5.8 0 0-.4 9.2 8.7 9.3h3.6c9.5 0 30.4-4.3 37.9-20.7 1.2 9.4-7.5 18.4-7.5 18.4 34.4-30.1 46-2.6 88-57.9 18-23.7 17.9-70.8 17.9-70.8 43.4 47.3 15.5 103.2 15.5 103.2 9-8.7 14-20.7 14-33.3.2-11.9.5-29.9 10.3-30.4-7 4.3 16.7 37.3 4.2 73.8-27.1 79-113.1 61.5-113.1 61.5zm-90.6-92.4l-4.1-4.6v11.4l4.1-6.8z"/>
  </g>
</svg>
