<svg id="Layer_2" data-name="Layer 2" xmlns="http://www.w3.org/2000/svg" width="490" height="351.43">
  <defs>
    <style>
      .cls-1{fill:#f2df00}.cls-2{fill:#fff}
    </style>
  </defs>
  <path class="cls-1" d="M163.61 347.18a4.35 4.35 0 0 0 1-3v-4.63c0-3.51-1.78-5.3-5.3-5.3h-18.69l2.3 5.19v21.76h16.68c3.51 0 5.22-1.73 5.22-5.3V350a3.6 3.6 0 0 0-1.21-2.82zm-15.21-7.69h9.77c.87 0 1 0 1 1.12v3.79a1.53 1.53 0 0 1-.06.5 1.6 1.6 0 0 1-.78.11h-9.93zm0 16.52v-6.19h9.92a2.25 2.25 0 0 1 .93.11 1.4 1.4 0 0 1 .08.66v4.34a2.13 2.13 0 0 1-.13 1s-.15.13-1 .13zM200.11 334.29h-11.93c-3.51 0-5.15 1.72-5.15 5.41v16.09c0 2.32.53 5.41 5.15 5.41h11.93c3.51 0 5.15-1.72 5.15-5.41V339.7c0-3.7-1.63-5.41-5.15-5.41zm-.34 6.35v14.46c0 .75 0 .91-1.12.91h-9.27c-.84 0-.87 0-.87-.91v-14.49c0-1.12.06-1.12.87-1.12h9.27c1 0 1.12.07 1.12 1.16zM241.33 345.16h-11.4a1.73 1.73 0 0 1-.05-.53v-4.31a2.46 2.46 0 0 1 .08-.77 1.23 1.23 0 0 1 .5-.06h15.14v-5.19h-16c-3.56 0-5.22 1.72-5.22 5.41v5.73c0 2.88 1.68 4.6 4.49 4.6h10.87a2.76 2.76 0 0 1 .52 0 1.45 1.45 0 0 1 .06.5v4.56a2.12 2.12 0 0 1-.09.78 1.43 1.43 0 0 1-.67.09h-15.17v5.19h16.24c3.56 0 5.23-1.72 5.23-5.41v-6c0-2.86-1.7-4.59-4.53-4.59z" transform="translate(-5 -99.3)"/>
  <path class="cls-1" d="M258.37 234.99v5.2h6.86v21.7h5.49v-21.7h6.89v-5.2h-19.24z"/>
  <path class="cls-1" d="M316.47 334.29h-11.93c-3.51 0-5.15 1.72-5.15 5.41v16.09c0 2.32.53 5.41 5.15 5.41h11.93c4.62 0 5.15-3.09 5.15-5.41V339.7c0-3.7-1.62-5.41-5.15-5.41zm-1.47 5.2c1 0 1.12.08 1.12 1.16v14.45c0 .75 0 .91-1.12.91h-9.27c-.84 0-.87 0-.87-.91v-14.49c0-1.12.07-1.12.87-1.12z" transform="translate(-5 -99.3)"/>
  <path class="cls-1" d="M352.57 234.99v16.69l-13.02-16.69h-4.85v26.9h5.26v-17.72l14.1 17.72h3.82v-26.9h-5.31z"/>
  <g>
    <path class="cls-2" d="M463.84 401.9L475 420v8.74l-3.78 3.76-21.63.07-4-4V387.9l4-4.14h32.25L493 365.67h-53.54l-13.85 14.54v59.34l10.73 11.12h48L495 439.58V401.9z" transform="translate(-5 -99.3)"/>
    <path class="cls-2" d="M56.41 266.37v62.73l.03 4.16H31.41l-4.5-4.91v-61.98H0l6.95 11.25v62.63l10.75 11.13h47.93l10.74-11.13v-59.33l-13.83-14.55h-6.13zM224.18 277.59l7.66 8.17v65.62l17.22.02v-73.81h-24.88zM316.8 277.59l7.66 8.17v65.62l17.22.02v-73.81H316.8z"/>
    <path class="cls-2" d="M224.18 413v-27.3l-8.24-8.77H154l12.37 13.21v27.55l-8.77 3.3 8.77 11.61v18.13h17.33v-19.81l-3.31-.78 3.31-1.3 14.66-5.75 14.74 27.54h19.63l-19.23-33.48zm-15.76-10.5l-21.78 8-2.92-2.61v-13l-3.72-2.14h24.86l3.55 3.19z" transform="translate(-5 -99.3)"/>
    <path class="cls-2" d="M273.9 293.08h-.01l-3.71-2.14h4.79l30.64-.08 7.44-13.27h-48.29l-7.09 5.48v26.52l42.66 12.66.02 10.85-1.98 2.42-36.17.05-9.06 15.83 54.89-.06 7.98-8.28v-32.18l-42.08-12.48-.03-5.32zM411.91 342.57v-64.98h-17.22v39.2l-26.42-39.2-21.94.11 5.36 7.96v65.72h17.26v-40.16l27.06 40.16h24.14l-8.24-8.81z"/>
    <path class="cls-2" d="M146.6 376.87H85.06l12.37 13.2v27.58L86.5 422l10.94 10.61v9.33l-8.21 8.77h25v-19.79l-3.29-.78 9.32-3.65 33.34-13.15v-29zm-7.44 25.56l-22 8-2.84-2.61v-13l-3.52-2h3.52l21.42-.09 3.46 3.19z" transform="translate(-5 -99.3)"/>
  </g>
  <path class="cls-2" d="M300.8 99.3l9.85 8.2v142.23L256 284.1l-57.75-33.88v-124.4l-5.89-4.27h70.75l5.59 5v16.3l-27.44 15.86v-24h-26.13v106.6L256 265.54 295 241v-67.44L283.27 163l11.73-7.25V115l-17.11-15.7H160.65l10.71 8.2v156.91L256 315.56l81.11-51V99.3zm-31.86 127L256 235.51l-14.66-8v-35.29l-4.5-1.06h-.09l26.1-15.77 5.87 5.52z" transform="translate(-5 -99.3)"/>
</svg>
