<?xml version="1.0" encoding="utf-8"?>
<!-- Generator: Adobe Illustrator 22.0.0, SVG Export Plug-In . SVG Version: 6.00 Build 0)  -->
<svg version="1.1" id="chengdu" xmlns="http://www.w3.org/2000/svg" xmlns:xlink="http://www.w3.org/1999/xlink" x="0px" y="0px"
	 viewBox="0 0 500 500" style="enable-background:new 0 0 500 500;" xml:space="preserve">
<style type="text/css">
	.st0{enable-background:new    ;}
	.st1{clip-path:url(#SVGID_2_);}
	.st2{clip-path:url(#SVGID_4_);fill:#FFFFFF;}
	.st3{clip-path:url(#SVGID_6_);fill:#161823;}
	.st4{clip-path:url(#SVGID_8_);fill:#161823;}
	.st5{clip-path:url(#SVGID_10_);fill:#FFFFFF;}
	.st6{clip-path:url(#SVGID_12_);fill:#FFFFFF;}
	.st7{clip-path:url(#SVGID_14_);fill:#161823;}
	.st8{clip-path:url(#SVGID_16_);fill:#161823;}
	.st9{clip-path:url(#SVGID_18_);fill:#161823;}
	.st10{clip-path:url(#SVGID_20_);fill:#161823;}
	.st11{clip-path:url(#SVGID_22_);}
	.st12{clip-path:url(#SVGID_24_);fill:#B4926A;}
</style>
<title>Team_Logos_Chengdu</title>
<g>
	<g>
		<g>
			<g>
				<g>
					<g class="st0">
						<g>
							<defs>
								<path id="SVGID_1_" d="M413.7,191.9c-2.9-9.8-26.5-43.7-26.5-43.7s26.1-42.3,12.6-76.6c0,0-10.4-29.8-31.4-29.7
									c-18,0-42,24.9-42,24.9l-35.8-23.7h-83.2l-35.8,23.7c0,0-24-24-42-24.9c-17.9-0.8-28.4,24-28.4,24l5.2,7.7l-8.2-2
									c-13.4,34.2,12.6,76.6,12.6,76.6s-23.6,33.9-26.5,43.7s-3.7,24.9-3.7,24.9l3.7,20.8l35.1,69.7L249,355.4l129.6-48.1l35-69.7
									l3.7-20.8C417.4,216.8,416.6,201.7,413.7,191.9"/>
							</defs>
							<clipPath id="SVGID_2_">
								<use xlink:href="#SVGID_1_"  style="overflow:visible;"/>
							</clipPath>
							<g class="st1">
								<g>
									<defs>
										<rect id="SVGID_3_" x="78.9" y="41.9" width="339.3" height="313.6"/>
									</defs>
									<clipPath id="SVGID_4_">
										<use xlink:href="#SVGID_3_"  style="overflow:visible;"/>
									</clipPath>
									<rect x="67.9" y="29" class="st2" width="362.3" height="339.1"/>
								</g>
							</g>
						</g>
					</g>
				</g>
			</g>
			<g>
				<g>
					<defs>
						<path id="SVGID_5_" d="M194.7,95.1c0,0,1.9,6.6,3,12.9c-3.3,5.6-7.7,15.9-12.6,26.3c-10.4,6.8-15.3,10.4-24.9,15.3
							c-2.5,15.6,2.5,40.2,26.8,51.7c-2.7-3.8-3.6-7.1-1.4-9.6c2.2-2.5,27.7-38.9,30.9-46.8c3.3-7.9,4.7-10.4,2.5-14
							C215.3,124.8,194.7,95.1,194.7,95.1"/>
					</defs>
					<clipPath id="SVGID_6_">
						<use xlink:href="#SVGID_5_"  style="overflow:visible;"/>
					</clipPath>
					<rect x="146.8" y="82.3" class="st3" width="86.2" height="131.9"/>
				</g>
			</g>
			<g>
				<g>
					<defs>
						<path id="SVGID_7_" d="M302.7,95.1c0,0-1.9,6.6-3,12.9c3.3,5.6,7.7,15.9,12.6,26.3c10.4,6.8,15.3,10.4,24.9,15.3
							c2.5,15.6-2.5,40.2-26.8,51.7c2.7-3.8,3.6-7.1,1.4-9.6s-27.7-38.9-30.9-46.8c-3.3-7.9-4.7-10.4-2.5-14
							C282.1,124.8,302.7,95.1,302.7,95.1"/>
					</defs>
					<clipPath id="SVGID_8_">
						<use xlink:href="#SVGID_7_"  style="overflow:visible;"/>
					</clipPath>
					<rect x="264.4" y="82.3" class="st4" width="86.2" height="131.9"/>
				</g>
			</g>
			<g>
				<g>
					<defs>
						<polygon id="SVGID_9_" points="207.4,145 192.9,141.3 200.5,150.5 						"/>
					</defs>
					<clipPath id="SVGID_10_">
						<use xlink:href="#SVGID_9_"  style="overflow:visible;"/>
					</clipPath>
					<rect x="180.1" y="128.5" class="st5" width="40.2" height="34.8"/>
				</g>
			</g>
			<g>
				<g>
					<defs>
						<polygon id="SVGID_11_" points="288,145 302.5,141.3 295,150.5 						"/>
					</defs>
					<clipPath id="SVGID_12_">
						<use xlink:href="#SVGID_11_"  style="overflow:visible;"/>
					</clipPath>
					<rect x="275.2" y="128.5" class="st6" width="40.2" height="34.8"/>
				</g>
			</g>
			<g>
				<g>
					<defs>
						<path id="SVGID_13_" d="M382.3,143.9c0,0,33.6-61.2-3.7-91.8c-15.7-15.1-49.3,19.2-49.3,19.2L382.3,143.9z"/>
					</defs>
					<clipPath id="SVGID_14_">
						<use xlink:href="#SVGID_13_"  style="overflow:visible;"/>
					</clipPath>
					<rect x="316.5" y="35.4" class="st7" width="92.6" height="121.3"/>
				</g>
			</g>
			<g>
				<g>
					<defs>
						<path id="SVGID_15_" d="M118.9,52.1c-5,4.1-8.8,8.8-11.5,13.8l9.9,14.2L103,77.7c-7.3,30.5,12.3,66.1,12.3,66.1l52.9-72.6
							C168.1,71.3,134.5,37,118.9,52.1"/>
					</defs>
					<clipPath id="SVGID_16_">
						<use xlink:href="#SVGID_15_"  style="overflow:visible;"/>
					</clipPath>
					<rect x="88.4" y="35.4" class="st8" width="92.6" height="121.3"/>
				</g>
			</g>
			<g>
				<g>
					<defs>
						<path id="SVGID_17_" d="M290.5,195.6c-11.3,1.4-25,4.4-38.4,8.1v-12.3l5.2-5c0,0,4.1-1.3,10.9-1.4c7-0.1,16.1-8.9,12.7-21.7
							c-13.3,2.9-32.3,6.7-32.3,6.7s-19-3.8-32.3-6.7c-3.4,12.8,5.8,21.6,12.7,21.7c6.8,0.1,10.9,1.4,10.9,1.4l5.2,5v13.1v1.2
							c-21.3,6.4-40.6,14.5-47.2,21.3c-1.2,1.3,51.9-17,87.7-17.5c7.4,4.8,14.4,16.2,14.4,16.2S299.7,210,290.5,195.6"/>
					</defs>
					<clipPath id="SVGID_18_">
						<use xlink:href="#SVGID_17_"  style="overflow:visible;"/>
					</clipPath>
					<rect x="185.2" y="150.5" class="st9" width="127.8" height="89.5"/>
				</g>
			</g>
			<g>
				<g>
					<defs>
						<path id="SVGID_19_" d="M146.3,335.1c18.4,11.3,30.9,18.4,38,22.3c-6.4-10.8-11.2-22-13.5-32.8c56.6,47.6,77.9,52.5,77.9,52.5
							s21.2-4.9,77.9-52.5c-2.3,10.8-7,22-13.5,32.8c7-3.9,19.5-11,38-22.3c30.6-18.8,72-54,72.3-81.7c-1.1-18.6-4.6-41.5-8.9-57.3
							c-5.9,53.7-48.9,91-70.8,101.5c0,0,5.8-14.8,6.1-25.7c-60.4,54.6-101,62-101,62s-40.5-7.5-101-62c0.2,10.9,6.1,25.7,6.1,25.7
							c-21.9-10.4-64.8-47.8-70.8-101.5c-4.4,15.8-7.9,38.6-8.9,57.3C74.3,281.2,115.7,316.4,146.3,335.1"/>
					</defs>
					<clipPath id="SVGID_20_">
						<use xlink:href="#SVGID_19_"  style="overflow:visible;"/>
					</clipPath>
					<rect x="61.2" y="183.3" class="st10" width="374.9" height="206.7"/>
				</g>
			</g>
			<g>
				<g>
					<g>
						<g>
							<g>
								<g class="st0">
									<g>
										<defs>
											<path id="SVGID_21_" d="M304.5,376.4c-24.9,28.3-55.8,42.6-55.8,42.6c-39.4-20.1-123.9-75.6-141.8-91.2
												c-17.6-15.3-29.6-33.7-32.3-50.9c-0.9-5.8-1-14.1-0.4-23.5c0.3,27.8,41.7,63,72.3,81.7c18.4,11.3,30.9,18.4,38,22.3
												c-6.4-10.8-11.2-22-13.5-32.8c56.6,47.6,77.9,52.5,77.9,52.5s21.2-4.9,77.9-52.5c-2.3,10.8-7,21.9-13.5,32.8
												c7-3.9,19.5-11,38-22.3c30.6-18.8,72-54,72.3-81.7c0.5,9.4,0.6,17.8-0.4,23.5c-3.9,21.2-26.3,70.3-103.6,131.8
												c-38.2,30.2-90.1,53.6-95.4,56.2C253.6,440.9,283.2,414.5,304.5,376.4"/>
										</defs>
										<clipPath id="SVGID_22_">
											<use xlink:href="#SVGID_21_"  style="overflow:visible;"/>
										</clipPath>
										<g class="st11">
											<g>
												<defs>
													<rect id="SVGID_23_" x="73.7" y="252.7" width="352.2" height="213.4"/>
												</defs>
												<clipPath id="SVGID_24_">
													<use xlink:href="#SVGID_23_"  style="overflow:visible;"/>
												</clipPath>
												<rect x="60.9" y="240.6" class="st12" width="375.7" height="237.3"/>
											</g>
										</g>
									</g>
								</g>
							</g>
						</g>
					</g>
				</g>
			</g>
		</g>
	</g>
</g>
</svg>
