<?xml version="1.0" encoding="utf-8"?>
<!-- Generator: Adobe Illustrator 22.0.0, SVG Export Plug-In . SVG Version: 6.00 Build 0)  -->
<svg version="1.1" id="Layer_1" xmlns="http://www.w3.org/2000/svg" xmlns:xlink="http://www.w3.org/1999/xlink" x="0px" y="0px"
	 viewBox="0 0 500 500" style="enable-background:new 0 0 500 500;" xml:space="preserve">
<style type="text/css">
	.st0{fill:#96CA4F;}
	.st1{fill:#FFFFFF;}
</style>
<title>Team_Logos</title>
<g id="Houston">
	<g>
		<polygon class="st0" points="251.2,25 269,79.7 326.5,79.7 280,113.5 297.8,168.2 251.2,134.4 204.7,168.2 222.5,113.5 
			175.9,79.7 233.4,79.7 		"/>
		<path class="st1" d="M379.5,160.6l-2.9,0.8c-47.4,5.6-69.2,22.3-69.2,22.3c-8.2,8-13.5,10.2-13.5,10.2c-4,1.2-8.1,2-12.2,2.4
			c-0.8-0.2-2.8,1.7-2.8,1.7c-7.3,4.1-12.9,10.5-16,18.2c-1.8-0.9-3.7-1.6-5.7-2.2c-4.6-1.2-9.5-1.3-14.2-0.1
			c-2.1,0.6-4.1,1.3-6,2.2c-3.1-7.7-8.7-14.2-16-18.2c0,0-2-1.9-2.8-1.7c-4.1-0.3-8.2-1.1-12.2-2.4c0,0-5.3-2.2-13.5-10.2
			c0,0-21.8-16.7-69.2-22.3l-2.9-0.8c0,0-0.6,0.5-0.2,1.9l9.6,47.2l5.4-3.9c0,0,0.4-0.6,2.1-0.6c0,0,27.4-1.9,35.5,7.7
			c0,0,3,4.1,3.4,7.6c0,0,0.8,2-4.3,5.5c0,0-10,4.6-12,8.6c-1.7,5-1.9,10.4-0.4,15.5c0,0,0.9,2.9,1.7,5.3c0,0,2.7,8,15.2,8.6
			c0,0,7.6,0.4,9.6,3.5c1.5,1.9,2.6,4.1,3.3,6.3l3.5,15.6c0.5,2.8,1.7,5.3,3.6,7.4c0,0,5.4,5.9,8,8.1c0,0,0.3,0.2,0.3,1.1v27.9
			c-0.1,2.4,1.4,4.5,3.7,5.2c0.6,0.1,1.1,0.4,1.4,0.9c2,2.7,3.4,5.7,4.2,8.9l2.4,85.4c0,0-0.7,1.7,4.8,5l0.8,0.2l9,1.3l1.4,0.7h1.4
			v8.5c0,0-0.1,2.4,4,3.1h7c0,0,3.4-0.2,3.2-3.1v-1.6h4.2v1.6c-0.2,3,3.2,3.1,3.2,3.1h7c4.1-0.7,4-3.1,4-3.1v-8.6h1.4l1.4-0.7l9-1.3
			l0.8-0.2c5.6-3.3,4.8-5,4.8-5l2.4-85.4c0.8-3.2,2.2-6.3,4.2-8.9c0.3-0.5,0.9-0.8,1.4-0.9c2.3-0.7,3.8-2.8,3.7-5.2v-27.9
			c0-0.8,0.3-1.1,0.3-1.1c2.6-2.2,8-8.1,8-8.1c1.9-2.1,3.1-4.6,3.6-7.4l3.5-15.6c0.7-2.3,1.9-4.4,3.3-6.3c2.1-3.1,9.6-3.5,9.6-3.5
			c12.5-0.6,15.2-8.6,15.2-8.6c0.8-2.4,1.7-5.3,1.7-5.3c1.4-5.1,1.3-10.5-0.4-15.5c-2-4.1-12-8.6-12-8.6c-5.1-3.5-4.3-5.5-4.3-5.5
			c0.4-3.5,3.4-7.6,3.4-7.6c8.1-9.6,35.5-7.7,35.5-7.7c1.7,0.1,2.1,0.6,2.1,0.6l5.4,3.9l9.6-47.2
			C380.1,161.1,379.5,160.6,379.5,160.6z M184.1,256.7c-2.8,1.9-6.2,2.7-9.5,2.3c-4-0.7-7.3-3.6-8.4-7.5c-1.1-3.1-1.5-6.4-1.2-9.7
			c0.8-5.1,4.7-5.9,9.6-6.5c7.9-1,9.6,2.3,9.6,2.3c2.9,3.7,2.9,13.1,2.9,13.1C186.9,253,185.8,255.1,184.1,256.7z M255,418.4
			c0.5,4-2.7,7-2.7,7v14.1h-4.6v-14.1c0,0-3.2-2.9-2.7-7l-0.3-86c0.2-2.2,1.1-4.2,2.8-5.6h5.1c1.6,1.4,2.6,3.5,2.8,5.6L255,418.4z
			 M257.3,226.8l-3.4,6.8c-0.4,0.9-0.8,1.8-1.1,2.8v71h-5.5v-71c-0.3-0.9-0.7-1.9-1.1-2.8l-3.4-6.8c-0.6-1.3-0.4-2.8,0.4-3.9
			c7.8-4.6,13.6-0.1,13.6-0.1C257.7,224,257.9,225.5,257.3,226.8L257.3,226.8z M325.5,235.3c4.9,0.6,8.8,1.5,9.6,6.5
			c0.3,3.3-0.1,6.6-1.2,9.7c-1.2,3.9-4.4,6.8-8.4,7.5c-3.4,0.4-6.7-0.4-9.5-2.3c-1.8-1.5-2.8-3.7-2.9-6.1c0,0,0-9.3,2.9-13.1
			C315.9,237.6,317.8,234.3,325.5,235.3L325.5,235.3z"/>
		<path class="st0" d="M113.7,159.4c-1.4-0.2-2.8-0.6-4.1-1.1c-10-6.9-16.2-18.1-16.5-30.3c0,0-3-21.4,10.3-39.5v-2.2
			c0,0-33.3,26.1-33.3,60.1c0,0,0.8,26.2,8.9,37.8c0,0,12,17.5,45.5,24.4L113.7,159.4z"/>
		<path class="st0" d="M396.7,86.3v2.1C410,106.6,407,128,407,128c-0.3,12.2-6.5,23.4-16.5,30.3c-1.3,0.5-2.6,0.9-4,1.1l-10.8,49.2
			c33.4-6.9,45.3-24.3,45.3-24.3c8.1-11.6,9-37.8,9-37.8C430,112.4,396.7,86.3,396.7,86.3z"/>
	</g>
</g>
</svg>
