<?xml version="1.0" encoding="utf-8"?>
<!-- Generator: Adobe Illustrator 22.0.0, SVG Export Plug-In . SVG Version: 6.00 Build 0)  -->
<svg version="1.1" id="toronto" xmlns="http://www.w3.org/2000/svg" xmlns:xlink="http://www.w3.org/1999/xlink" x="0px" y="0px"
	 viewBox="0 0 500 500" style="enable-background:new 0 0 500 500;" xml:space="preserve">
<style type="text/css">
	.st0{fill:#FFFFFF;}
</style>
<title>Team_Logos_Toronto</title>
<g>
	<polygon class="st0" points="329,253.1 263.7,198.6 35,198.6 100.8,253.1 165.4,253.1 165.4,298.8 178.3,301.5 165.4,308.9 
		165.4,392.4 221.9,445.4 221.9,253.1 	"/>
	<path class="st0" d="M445,252.1h-0.1l-223-196.8v-0.8l-56.5,53.1v72.2h56.5v-45l137.9,117.2L240.1,353.4l0.1,79.1l67.7-59.6l2-23.3
		c0,0,4.4,9.5,7.1,15.3l24.1-21.2l-14.1-23l24.8,13.6l93.2-82h0.1h0L445,252.1z"/>
</g>
</svg>
