<?xml version="1.0" encoding="utf-8"?>
<!-- Generator: Adobe Illustrator 22.0.0, SVG Export Plug-In . SVG Version: 6.00 Build 0)  -->
<svg version="1.1" id="atlanta" xmlns="http://www.w3.org/2000/svg" xmlns:xlink="http://www.w3.org/1999/xlink" x="0px" y="0px"
	 viewBox="0 0 500 500" style="enable-background:new 0 0 500 500;" xml:space="preserve">
<style type="text/css">
	.st0{clip-path:url(#SVGID_2_);fill:#09226B;}
	.st1{clip-path:url(#SVGID_4_);enable-background:new    ;}
	.st2{clip-path:url(#SVGID_6_);}
	.st3{clip-path:url(#SVGID_8_);}
	.st4{clip-path:url(#SVGID_10_);fill:#2FB228;}
	.st5{clip-path:url(#SVGID_12_);fill:#2FB228;}
	.st6{clip-path:url(#SVGID_14_);fill:#2FB228;}
	.st7{clip-path:url(#SVGID_16_);fill:#FFFFFF;}
	.st8{clip-path:url(#SVGID_18_);fill:#FFFFFF;}
	.st9{clip-path:url(#SVGID_20_);fill:#2FB228;}
	.st10{clip-path:url(#SVGID_22_);fill:#FFFFFF;}
	.st11{clip-path:url(#SVGID_24_);fill:#FFFFFF;}
</style>
<title>Team_Logos_Vancouver</title>
<g>
	<defs>
		<path id="SVGID_1_" d="M381.5,267.9c11.1,5,31.2,7.2,31.2,7.2s-15.1-15.8-14.3-25.5c0.7-9.7-2.1-22.6-2.1-22.6l21.9,8.2
			c0,0-24-24.4-30.5-45.5c-6.5-21.2-17.2-53.1-42.3-69.2c-14.7-27.3-34.8-53.8-34.8-53.8l-26.7-19l-8.4,12.6L250.2,29l-25.1,31.2
			l-8.4-12.6l-26.7,19c0,0-20.1,26.5-34.8,53.8c-25.1,16.1-35.9,48.1-42.3,69.2c-6.5,21.2-30.5,45.5-30.5,45.5l21.9-8.2
			c0,0-2.9,12.9-2.2,22.6c0.7,9.7-14.3,25.5-14.3,25.5s20.1-2.2,31.2-7.2c-3.9,6.5-21.9,20.8-47.7,15.4c6.8,9.3,31.6,14,44.8,8.6
			c-9,11.1,0,44.5,0,49.5s0.4,15.4-12.9,25.8c20.8,10.8,44.5-9,44.5-9s5.4,19,5.4,24s-2.9,6.1,0,22.2c2.9,16.1,12.2,28,12.2,28
			l19.4,9c0,0-2.2-18.6,3.2-23c3.9,11.1,14,24.4,14,24.4s18.7,14,31.6,21.5c-6.5-7.9-10.9-29.8-10.9-29.8l27.8,29.8l27.8-29.8
			c0,0-4.5,21.9-10.9,29.8c12.9-7.5,31.6-21.5,31.6-21.5s10-13.3,14-24.4c5.4,4.3,3.2,23,3.2,23l19.4-9c0,0,9.3-11.8,12.2-28
			c2.9-16.1,0-17.2,0-22.2s5.4-24,5.4-24s23.7,19.7,44.5,9c-13.3-10.4-12.9-20.8-12.9-25.8s9-38.4,0-49.5c13.3,5.4,38,0.7,44.8-8.6
			C403.4,288.7,385.4,274.3,381.5,267.9"/>
	</defs>
	<clipPath id="SVGID_2_">
		<use xlink:href="#SVGID_1_"  style="overflow:visible;"/>
	</clipPath>
	<rect x="58.2" y="16" class="st0" width="384" height="461.5"/>
</g>
<g>
	<defs>
		<rect id="SVGID_3_" x="57" y="18.4" width="386.4" height="459.2"/>
	</defs>
	<clipPath id="SVGID_4_">
		<use xlink:href="#SVGID_3_"  style="overflow:visible;"/>
	</clipPath>
	<g class="st1">
		<g>
			<defs>
				<rect id="SVGID_5_" x="57" y="18.4" width="386.4" height="459.5"/>
			</defs>
			<clipPath id="SVGID_6_">
				<use xlink:href="#SVGID_5_"  style="overflow:visible;"/>
			</clipPath>
			<g class="st2">
				<defs>
					<path id="SVGID_7_" d="M422.7,275.8c-4.1-3.7-15.5-17.8-15.5-28.1c0-3.3-0.2-4.4-0.5-7.8c7.5,4.3,22.3,4.4,29.6-1.9
						c-6.1-2.4-8.1-4.5-12.1-8.8c-0.2-0.2-22.7-23.2-28.4-42.1c-5.4-17.5-16.4-53.6-44-72.6c-14.7-26.8-33.7-51.9-34.5-53
						c-0.5-0.7-1.1-1.3-1.9-1.8L282,36.3l-7.3,9.6c0,0-17.7-19.8-24.5-27.5c-6.8,7.7-24.5,27.5-24.5,27.5l-7.3-9.6l-33.4,23.4
						c-0.7,0.5-1.3,1.1-1.8,1.8c-0.8,1.1-19.8,26.2-34.5,53c-27.6,19-38.6,55.1-44,72.6C99,206.1,76.6,229,76.4,229.3
						c-4,4.3-6,6.4-12.1,8.8c7.3,6.3,22.1,6.2,29.6,1.9c-0.3,3.4-0.5,4.5-0.5,7.8c0,10.3-11.4,24.4-15.5,28.1
						c-2-0.1-9.2,0.9-20.8-5.5c0.7,8.7,4.2,14,7.4,18c7.5,9.4,24.5,14.7,39.5,14.3c-0.9,10.1,0.8,22.1,2.8,33.3
						c0.4,2.2,0.9,4.9,0.9,5.5v0.4c0,4.4,0.3,11.5-9.7,18.7c-4.6,3.3-7.5,3.2-10.9,2.6c2.3,5.3,8.4,9.7,12.2,11.6
						c16.1,8.2,32.7,2.6,43.1-3c4.1,12.6,0.1,22.2,2.2,34.2c3.2,18,13.4,31.2,13.9,31.7c0.8,1,1.9,1.9,3.1,2.5l31.6,14.6l-0.8-10.3
						c1.4,2,2.4,3.3,2.5,3.5c0.5,0.6,1,1.2,1.7,1.7c0.8,0.6,18.9,14.9,32.4,22.1c10,5.4,18.8,5.9,21.1,5.9c2.3,0,11.1-0.6,21.1-5.9
						c13.5-7.2,31.6-21.5,32.4-22.1c0.6-0.5,1.2-1,1.7-1.7c0.1-0.2,1.1-1.5,2.5-3.5l-0.8,10.3l31.6-14.6c1.2-0.6,2.3-1.4,3.1-2.5
						c0.4-0.6,10.7-13.7,13.9-31.7c2.1-12.1-1.8-21.7,2.2-34.2c10.5,5.6,27.1,11.2,43.1,3c3.8-1.9,9.9-6.3,12.2-11.6
						c-3.4,0.6-6.3,0.7-10.9-2.6c-10-7.2-9.7-14.3-9.7-18.7v-0.4c0-0.6,0.5-3.3,0.9-5.5c2-11.2,3.7-23.2,2.8-33.3
						c15,0.4,32-4.9,39.5-14.3c3.2-4,6.7-9.2,7.4-18C431.9,276.7,424.7,275.7,422.7,275.8 M384.4,291.9c9,11.1,0,44.5,0,49.5
						c0,5-0.4,15.4,12.9,25.8c-20.8,10.8-44.5-9-44.5-9s-5.4,19-5.4,24s2.9,6.1,0,22.2c-2.9,16.1-12.2,28-12.2,28l-19.4,9
						c0,0,2.2-18.6-3.2-23c-3.9,11.1-14,24.4-14,24.4s-18.6,14-31.6,21.5c6.5-7.9,10.9-29.8,10.9-29.8l-27.8,29.8l-27.8-29.8
						c0,0,4.5,21.9,10.9,29.8c-12.9-7.5-31.6-21.5-31.6-21.5s-10-13.3-14-24.4c-5.4,4.3-3.2,23-3.2,23l-19.4-9c0,0-9.3-11.8-12.2-28
						c-2.9-16.1,0-17.2,0-22.2s-5.4-24-5.4-24s-23.7,19.7-44.5,9c13.3-10.4,12.9-20.8,12.9-25.8c0-5-9-38.4,0-49.5
						c-13.3,5.4-38,0.7-44.8-8.6c25.8,5.4,43.7-9,47.7-15.4c-11.1,5-31.2,7.2-31.2,7.2s15.1-15.8,14.3-25.5
						c-0.7-9.7,2.2-22.6,2.2-22.6l-21.9,8.2c0,0,24-24.4,30.5-45.5c6.5-21.2,17.2-53.1,42.3-69.2C169.9,93.2,190,66.7,190,66.7
						l26.7-19l8.4,12.6L250.2,29l25.1,31.2l8.4-12.6l26.7,19c0,0,20.1,26.5,34.8,53.8c25.1,16.1,35.9,48.1,42.3,69.2
						c6.5,21.2,30.5,45.5,30.5,45.5l-21.9-8.2c0,0,2.9,12.9,2.1,22.6c-0.7,9.7,14.3,25.5,14.3,25.5s-20.1-2.2-31.2-7.2
						c3.9,6.5,21.9,20.8,47.7,15.4C422.4,292.6,397.6,297.3,384.4,291.9"/>
				</defs>
				<clipPath id="SVGID_8_">
					<use xlink:href="#SVGID_7_"  style="overflow:visible;"/>
				</clipPath>
				<g class="st3">
					<defs>
						<rect id="SVGID_9_" x="57" y="18.4" width="386.4" height="459.5"/>
					</defs>
					<clipPath id="SVGID_10_">
						<use xlink:href="#SVGID_9_"  style="overflow:visible;"/>
					</clipPath>
					<rect x="44" y="5.3" class="st4" width="412.5" height="485.4"/>
				</g>
			</g>
		</g>
	</g>
</g>
<g>
	<defs>
		<path id="SVGID_11_" d="M378.3,208.7c-9.3-24-32.6-44.1-32.6-44.1l-21.5-26.2l-42,18.3l32.3-30.5l-27.6-43l-13.6,22.6l-23-39.1
			l-23,39.1l-13.6-22.6l-27.6,43l32.3,30.5l-42-18.3l-21.5,26.2c0,0-23.3,20.1-32.6,44.1c10.4-6.1,13.3-8.2,13.3-8.2l-9.3,56.3
			l43.8-44.5l15.4-33l50.6,22.6h14.3h14.3l50.6-22.6l15.4,33l43.8,44.5l-9.3-56.3C365,200.4,367.9,202.6,378.3,208.7"/>
	</defs>
	<clipPath id="SVGID_12_">
		<use xlink:href="#SVGID_11_"  style="overflow:visible;"/>
	</clipPath>
	<rect x="109.2" y="53.6" class="st5" width="282.2" height="216.2"/>
</g>
<g>
	<defs>
		<path id="SVGID_13_" d="M361.4,276.8c-4.3-7.5-20.1-20.1-20.1-20.1l-28.7-15.1l-26.9,8.2l18.7-22.2l-40.5-16.1l-13.6,10.4
			l-13.6-10.4l-40.5,16.1l18.7,22.2l-26.9-8.2l-28.7,15.1c0,0-15.8,12.6-20.1,20.1c10-6.1,21.2-7.2,21.2-7.2s-19,38.7-19.7,65.3
			c29-36.2,64.2-73.2,64.2-73.2l45.5,11.5l45.5-11.5c0,0,35.1,36.9,64.2,73.2c-0.7-26.5-19.7-65.3-19.7-65.3
			S351.4,270.7,361.4,276.8z M259.6,249.6h-9.3h-9.3l-15.8-17.9h12.6l12.5,8.6l12.6-8.6h12.6L259.6,249.6z"/>
	</defs>
	<clipPath id="SVGID_14_">
		<use xlink:href="#SVGID_13_"  style="overflow:visible;"/>
	</clipPath>
	<rect x="126" y="198.5" class="st6" width="248.4" height="149.5"/>
</g>
<g>
	<defs>
		<polygon id="SVGID_15_" points="283.9,273.2 250.2,282.9 216.5,273.2 194.7,287.6 194.7,321.6 210.8,297.4 209,285.8 222.4,300.1 
			230.5,293.7 240.6,303.7 250.2,295.5 259.9,303.7 270,293.7 278,300.1 291.5,285.8 289.7,297.4 305.8,321.6 305.8,287.6 		"/>
	</defs>
	<clipPath id="SVGID_16_">
		<use xlink:href="#SVGID_15_"  style="overflow:visible;"/>
	</clipPath>
	<rect x="181.6" y="260.2" class="st7" width="137.3" height="74.5"/>
</g>
<g>
	<defs>
		<path id="SVGID_17_" d="M275.3,367.5c-10.4,6.1-25.1,5.2-25.1,5.2s-14.7,0.9-25.1-5.2c-10.4-6.1-18.6-16.5-18.6-16.5v18.6l5,9.3
			l4.3-4.3l34.4,16.5l34.4-16.5l4.3,4.3l5-9.3V351C294,351,285.7,361.4,275.3,367.5"/>
	</defs>
	<clipPath id="SVGID_18_">
		<use xlink:href="#SVGID_17_"  style="overflow:visible;"/>
	</clipPath>
	<rect x="193.4" y="338" class="st8" width="113.6" height="66.3"/>
</g>
<g>
	<defs>
		<path id="SVGID_19_" d="M316.9,358.2c-6.5,14.7-25.5,27.3-25.5,27.3L250.2,398L209,385.5c0,0-19-12.6-25.5-27.3
			c-0.7,8.6,0,23,0,23s20.8,20.4,46.6,21.9c-9,3.2-28.7,0-28.7,0s20.4,21.2,48.8,21.9C278.6,424.2,299,403,299,403s-19.7,3.2-28.7,0
			c25.8-1.4,46.6-21.9,46.6-21.9S317.7,366.8,316.9,358.2"/>
	</defs>
	<clipPath id="SVGID_20_">
		<use xlink:href="#SVGID_19_"  style="overflow:visible;"/>
	</clipPath>
	<rect x="170.2" y="345.2" class="st9" width="160.2" height="92.8"/>
</g>
<g>
	<defs>
		<path id="SVGID_21_" d="M217.4,205.3l-26.9-11.8l-3.2,13.6C187.3,207.1,210,210,217.4,205.3"/>
	</defs>
	<clipPath id="SVGID_22_">
		<use xlink:href="#SVGID_21_"  style="overflow:visible;"/>
	</clipPath>
	<rect x="174.2" y="180.4" class="st10" width="56.2" height="40.6"/>
</g>
<g>
	<defs>
		<path id="SVGID_23_" d="M283.1,205.3l26.9-11.8l3.2,13.6C313.2,207.1,290.5,210,283.1,205.3"/>
	</defs>
	<clipPath id="SVGID_24_">
		<use xlink:href="#SVGID_23_"  style="overflow:visible;"/>
	</clipPath>
	<rect x="270" y="180.4" class="st11" width="56.2" height="40.6"/>
</g>
</svg>
