<?xml version="1.0" encoding="utf-8"?>
<!-- Generator: Adobe Illustrator 22.0.0, SVG Export Plug-In . SVG Version: 6.00 Build 0)  -->
<svg version="1.1" id="washington" xmlns="http://www.w3.org/2000/svg" xmlns:xlink="http://www.w3.org/1999/xlink" x="0px" y="0px"
	 viewBox="0 0 500 500" style="enable-background:new 0 0 500 500;" xml:space="preserve">
<style type="text/css">
	.st0{fill:#FFFFFF;}
	.st1{fill:#990034;}
	.st2{fill:#003768;}
</style>
<title>Team_Logos_Washington</title>
<g>
	<path class="st0" d="M59.2,94.8c27.2,316.8,190.9,361,190.9,361s164.1-44.2,191.3-361L250.1,44.7L59.2,94.8z"/>
	<path class="st1" d="M250.1,440.5c0,0-136.3-34.6-159-324.5l159-43.3L409.5,116C387.8,404.9,250.1,440.5,250.1,440.5z"/>
	<path class="st2" d="M250.1,91.6l137.8,38.9c-1.3,16.9-2.9,32.9-5,47.9c-14,11.3-72.9,58.4-132.8,58.4c-57.5,0-114.2-43.8-130.9-57
		c-2.2-15.4-3.9-31.9-5.3-49.4L250.1,91.6z"/>
	<path class="st0" d="M250.1,236.7c59.8,0,118.8-47.2,132.8-58.4c-1.1,7.8-2.2,15.4-3.5,22.8c-9.5,7.9-68.9,57.1-129.3,57.1
		c-57.1,0-113.5-44.3-127.3-55.6c-1.3-7.4-2.5-15-3.6-22.9C135.8,193,192.6,236.7,250.1,236.7z"/>
	<path class="st0" d="M250.1,272.9c56.9,0,113.1-47.7,127.2-60.4c-2,10.7-4.3,20.9-6.7,30.5c-23.8,18.8-71.9,51.2-120.5,51.2
		c-47.3,0-94-30.6-118.5-49.6c-2.4-9.6-4.7-19.7-6.7-30.3C141.7,229.1,195.5,272.9,250.1,272.9z"/>
	<path class="st0" d="M348.2,309.8v-34.1c6.2-4.1,11.8-8.1,16.6-11.8C360.2,279.6,354.7,294.9,348.2,309.8z"/>
	<path class="st0" d="M330.4,344.2c-5.3,8.8-11.1,17.3-17.5,25.3v-74.1c6.1-2.8,12-5.8,17.5-8.9V344.2z"/>
	<path class="st0" d="M152.7,308.3c-5.9-13.9-11-28.2-15.4-42.7c4.6,3.4,9.7,7,15.4,10.7V308.3z"/>
	<path class="st0" d="M187.2,368.4c-6.4-8.3-12.3-17-17.6-26.1v-55.7c5.6,3.1,11.4,6.1,17.6,8.9V368.4z"/>
	<polygon class="st0" points="250.1,121.3 260.9,154.5 295.8,154.5 267.5,175.1 278.3,208.3 250.1,187.7 221.8,208.3 232.6,175.1 
		204.4,154.5 239.3,154.5 	"/>
	<path class="st0" d="M222.3,307.6v77c5.1,3.5,10.4,6.7,15.9,9.4c0.5-12.1,3.2-75.4,3.2-75.4l8.6-9l8.6,9c0,0,2.6,63.3,3.2,75.4
		c5.5-2.8,10.8-5.9,15.9-9.4v-77c3.8-0.5,17.6-5,17.6-5v86.2c-23.2,22-42.6,27.7-45.3,28.5c-2.8-0.7-22.1-6.5-45.4-28.5v-86.2
		C204.7,302.5,218.4,307,222.3,307.6z"/>
</g>
</svg>
