<svg id="chengdu" xmlns="http://www.w3.org/2000/svg" xmlns:xlink="http://www.w3.org/1999/xlink" viewBox="0 0 500 500">
  <style>
    .st0{enable-background:new}
  </style>
  <g class="st0">
    <defs>
      <path id="SVGID_1_" d="M413.7 191.9c-2.9-9.8-26.5-43.7-26.5-43.7s26.1-42.3 12.6-76.6c0 0-10.4-29.8-31.4-29.7-18 0-42 24.9-42 24.9l-35.8-23.7h-83.2l-35.8 23.7s-24-24-42-24.9c-17.9-.8-28.4 24-28.4 24l5.2 7.7-8.2-2c-13.4 34.2 12.6 76.6 12.6 76.6s-23.6 33.9-26.5 43.7-3.7 24.9-3.7 24.9l3.7 20.8 35.1 69.7L249 355.4l129.6-48.1 35-69.7 3.7-20.8c.1 0-.7-15.1-3.6-24.9"/>
    </defs>
    <clipPath id="SVGID_2_">
      <use xlink:href="#SVGID_1_" overflow="visible"/>
    </clipPath>
    <g clip-path="url(#SVGID_2_)">
      <defs>
        <path id="SVGID_3_" d="M78.9 41.9h339.3v313.6H78.9z"/>
      </defs>
      <clipPath id="SVGID_4_">
        <use xlink:href="#SVGID_3_" overflow="visible"/>
      </clipPath>
      <path clip-path="url(#SVGID_4_)" fill="#fff" d="M67.9 29h362.3v339.1H67.9z"/>
    </g>
  </g>
  <defs>
    <path id="SVGID_5_" d="M194.7 95.1s1.9 6.6 3 12.9c-3.3 5.6-7.7 15.9-12.6 26.3-10.4 6.8-15.3 10.4-24.9 15.3-2.5 15.6 2.5 40.2 26.8 51.7-2.7-3.8-3.6-7.1-1.4-9.6s27.7-38.9 30.9-46.8c3.3-7.9 4.7-10.4 2.5-14-3.7-6.1-24.3-35.8-24.3-35.8"/>
  </defs>
  <clipPath id="SVGID_6_">
    <use xlink:href="#SVGID_5_" overflow="visible"/>
  </clipPath>
  <path clip-path="url(#SVGID_6_)" fill="#161823" d="M146.8 82.3H233v131.9h-86.2z"/>
  <defs>
    <path id="SVGID_7_" d="M302.7 95.1s-1.9 6.6-3 12.9c3.3 5.6 7.7 15.9 12.6 26.3 10.4 6.8 15.3 10.4 24.9 15.3 2.5 15.6-2.5 40.2-26.8 51.7 2.7-3.8 3.6-7.1 1.4-9.6s-27.7-38.9-30.9-46.8c-3.3-7.9-4.7-10.4-2.5-14 3.7-6.1 24.3-35.8 24.3-35.8"/>
  </defs>
  <clipPath id="SVGID_8_">
    <use xlink:href="#SVGID_7_" overflow="visible"/>
  </clipPath>
  <path clip-path="url(#SVGID_8_)" fill="#161823" d="M264.4 82.3h86.2v131.9h-86.2z"/>
  <defs>
    <path id="SVGID_9_" d="M207.4 145l-14.5-3.7 7.6 9.2z"/>
  </defs>
  <clipPath id="SVGID_10_">
    <use xlink:href="#SVGID_9_" overflow="visible"/>
  </clipPath>
  <path clip-path="url(#SVGID_10_)" fill="#fff" d="M180.1 128.5h40.2v34.8h-40.2z"/>
  <g>
    <defs>
      <path id="SVGID_11_" d="M288 145l14.5-3.7-7.5 9.2z"/>
    </defs>
    <clipPath id="SVGID_12_">
      <use xlink:href="#SVGID_11_" overflow="visible"/>
    </clipPath>
    <path clip-path="url(#SVGID_12_)" fill="#fff" d="M275.2 128.5h40.2v34.8h-40.2z"/>
  </g>
  <g>
    <defs>
      <path id="SVGID_13_" d="M382.3 143.9s33.6-61.2-3.7-91.8c-15.7-15.1-49.3 19.2-49.3 19.2l53 72.6z"/>
    </defs>
    <clipPath id="SVGID_14_">
      <use xlink:href="#SVGID_13_" overflow="visible"/>
    </clipPath>
    <path clip-path="url(#SVGID_14_)" fill="#161823" d="M316.5 35.4h92.6v121.3h-92.6z"/>
  </g>
  <g>
    <defs>
      <path id="SVGID_15_" d="M118.9 52.1c-5 4.1-8.8 8.8-11.5 13.8l9.9 14.2-14.3-2.4c-7.3 30.5 12.3 66.1 12.3 66.1l52.9-72.6c-.1.1-33.7-34.2-49.3-19.1"/>
    </defs>
    <clipPath id="SVGID_16_">
      <use xlink:href="#SVGID_15_" overflow="visible"/>
    </clipPath>
    <path clip-path="url(#SVGID_16_)" fill="#161823" d="M88.4 35.4H181v121.3H88.4z"/>
  </g>
  <g>
    <defs>
      <path id="SVGID_17_" d="M290.5 195.6c-11.3 1.4-25 4.4-38.4 8.1v-12.3l5.2-5s4.1-1.3 10.9-1.4c7-.1 16.1-8.9 12.7-21.7-13.3 2.9-32.3 6.7-32.3 6.7s-19-3.8-32.3-6.7c-3.4 12.8 5.8 21.6 12.7 21.7 6.8.1 10.9 1.4 10.9 1.4l5.2 5V205.7c-21.3 6.4-40.6 14.5-47.2 21.3-1.2 1.3 51.9-17 87.7-17.5 7.4 4.8 14.4 16.2 14.4 16.2s-.3-15.7-9.5-30.1"/>
    </defs>
    <clipPath id="SVGID_18_">
      <use xlink:href="#SVGID_17_" overflow="visible"/>
    </clipPath>
    <path clip-path="url(#SVGID_18_)" fill="#161823" d="M185.2 150.5H313V240H185.2z"/>
  </g>
  <g>
    <defs>
      <path id="SVGID_19_" d="M146.3 335.1c18.4 11.3 30.9 18.4 38 22.3-6.4-10.8-11.2-22-13.5-32.8 56.6 47.6 77.9 52.5 77.9 52.5s21.2-4.9 77.9-52.5c-2.3 10.8-7 22-13.5 32.8 7-3.9 19.5-11 38-22.3 30.6-18.8 72-54 72.3-81.7-1.1-18.6-4.6-41.5-8.9-57.3-5.9 53.7-48.9 91-70.8 101.5 0 0 5.8-14.8 6.1-25.7-60.4 54.6-101 62-101 62s-40.5-7.5-101-62c.2 10.9 6.1 25.7 6.1 25.7-21.9-10.4-64.8-47.8-70.8-101.5-4.4 15.8-7.9 38.6-8.9 57.3.1 27.8 41.5 63 72.1 81.7"/>
    </defs>
    <clipPath id="SVGID_20_">
      <use xlink:href="#SVGID_19_" overflow="visible"/>
    </clipPath>
    <path clip-path="url(#SVGID_20_)" fill="#161823" d="M61.2 183.3h374.9V390H61.2z"/>
  </g>
  <g>
    <g class="st0">
      <defs>
        <path id="SVGID_21_" d="M304.5 376.4c-24.9 28.3-55.8 42.6-55.8 42.6-39.4-20.1-123.9-75.6-141.8-91.2-17.6-15.3-29.6-33.7-32.3-50.9-.9-5.8-1-14.1-.4-23.5.3 27.8 41.7 63 72.3 81.7 18.4 11.3 30.9 18.4 38 22.3-6.4-10.8-11.2-22-13.5-32.8 56.6 47.6 77.9 52.5 77.9 52.5s21.2-4.9 77.9-52.5c-2.3 10.8-7 21.9-13.5 32.8 7-3.9 19.5-11 38-22.3 30.6-18.8 72-54 72.3-81.7.5 9.4.6 17.8-.4 23.5-3.9 21.2-26.3 70.3-103.6 131.8-38.2 30.2-90.1 53.6-95.4 56.2 29.4-24 59-50.4 80.3-88.5"/>
      </defs>
      <clipPath id="SVGID_22_">
        <use xlink:href="#SVGID_21_" overflow="visible"/>
      </clipPath>
      <g clip-path="url(#SVGID_22_)">
        <defs>
          <path id="SVGID_23_" d="M73.7 252.7h352.2v213.4H73.7z"/>
        </defs>
        <clipPath id="SVGID_24_">
          <use xlink:href="#SVGID_23_" overflow="visible"/>
        </clipPath>
        <path clip-path="url(#SVGID_24_)" fill="#b4926a" d="M60.9 240.6h375.7v237.3H60.9z"/>
      </g>
    </g>
  </g>
</svg>
