<svg id="Layer_3" data-name="Layer 3" xmlns="http://www.w3.org/2000/svg" width="480" height="409.83">
  <defs>
    <style>
      .cls-1{fill:#fff}.cls-2{fill:#ac8a00}
    </style>
  </defs>
  <path class="cls-1" d="M122.15 358l3.28-.32a4 4 0 0 0 1.2 2.43 3.63 3.63 0 0 0 2.45.78 3.76 3.76 0 0 0 2.46-.69 2.05 2.05 0 0 0 .83-1.61 1.52 1.52 0 0 0-.35-1 2.78 2.78 0 0 0-1.21-.72q-.59-.21-2.7-.73a9.16 9.16 0 0 1-3.81-1.65 4.35 4.35 0 0 1-1.54-3.36 4.29 4.29 0 0 1 .72-2.39 4.53 4.53 0 0 1 2.09-1.69 8.38 8.38 0 0 1 3.29-.58 7.06 7.06 0 0 1 4.74 1.38 4.87 4.87 0 0 1 1.67 3.68l-3.37.15a2.86 2.86 0 0 0-.93-1.85 3.4 3.4 0 0 0-2.14-.56 3.86 3.86 0 0 0-2.3.6 1.22 1.22 0 0 0-.54 1 1.28 1.28 0 0 0 .5 1 8.87 8.87 0 0 0 3.1 1.12 16.38 16.38 0 0 1 3.64 1.2 4.69 4.69 0 0 1 1.85 1.7 5.26 5.26 0 0 1-.13 5.35 4.78 4.78 0 0 1-2.26 1.86 9.45 9.45 0 0 1-3.64.61 7.24 7.24 0 0 1-4.87-1.47 6.37 6.37 0 0 1-2.03-4.24zM180.24 363.45v-16.71h12.39v2.83h-9v3.7H192v2.82h-8.39v4.55h9.34v2.82zM237.43 355.2a10.63 10.63 0 0 1 .76-4.29 7.87 7.87 0 0 1 1.56-2.29 6.51 6.51 0 0 1 2.16-1.5 9.18 9.18 0 0 1 3.6-.66 7.85 7.85 0 0 1 5.91 2.29 10.24 10.24 0 0 1 0 12.71 8.79 8.79 0 0 1-11.81 0 8.63 8.63 0 0 1-2.18-6.26zm3.48-.11a6.26 6.26 0 0 0 1.31 4.3 4.51 4.51 0 0 0 6.64 0 6.39 6.39 0 0 0 1.29-4.36 6.29 6.29 0 0 0-1.26-4.29 4.67 4.67 0 0 0-6.71 0 6.31 6.31 0 0 0-1.27 4.34zM298.13 346.74h3.37v9.05a18.92 18.92 0 0 0 .12 2.79 2.71 2.71 0 0 0 1 1.65 3.59 3.59 0 0 0 2.23.62 3.4 3.4 0 0 0 2.17-.59 2.32 2.32 0 0 0 .88-1.44 18.89 18.89 0 0 0 .15-2.84v-9.25h3.37v8.78a22.55 22.55 0 0 1-.27 4.25 4.7 4.7 0 0 1-1 2.1 5.09 5.09 0 0 1-2 1.36 8.56 8.56 0 0 1-3.21.51 9.26 9.26 0 0 1-3.63-.55 5.18 5.18 0 0 1-2-1.44 4.6 4.6 0 0 1-.95-1.85 20.26 20.26 0 0 1-.33-4.24zM355.94 363.45v-16.57h3.37v13.76h8.39v2.82z" transform="translate(-10.8 -45.43)"/>
  <path class="cls-2" d="M243.65 336.33l-38.16 73.5h18.19l38.15-73.5h-18.18zM256.88 355.51l-9.11 17.57 18.98 36.75h18.19l-28.06-54.32z"/>
  <path class="cls-2" d="M417.24 381.76h-59.3V384a11 11 0 0 0 11 11h11v60.27h15.72V395h21.62zM490.8 381.76h-19.22l-15.47 26.73h-.52l-15.47-26.73h-19.21s16.81 26.59 27 42.66v30.84h15.72v-30.65c10.23-16.06 27.17-42.85 27.17-42.85zM148.9 381.76h-19.21l-15.47 26.73h-.52l-15.47-26.73H79s16.81 26.59 27 42.66v30.84h15.72v-30.65c10.28-16.06 27.18-42.85 27.18-42.85zM348.56 412.69h-31.79s-2.71.12-2.34-3.1V398s-.15-3.39 4.09-3h24a11 11 0 0 0 11-11v-2.27h-44s-9.09-.4-9.37 7.51v28.18s-.85 8.3 8.16 8.51h30.81s3-.07 3.25 2.77v10.72s0 2.24-3 2.59h-38.7v13.23H348a10.12 10.12 0 0 0 8.51-8.15v-25.74s-.08-8.35-7.95-8.66zM10.8 381.76V384a11 11 0 0 0 5.44 9.44v19.39h-5.09v7.92s-.08 4.17 5.08 4.49v30H32v-73.5zM69.67 381.78H35.88v13.27h24.29s3-.07 3.25 2.77v38.09c-.33 6-5.39 5.58-5.39 5.58H35.88v13.76h33.79c8.09-1.56 7.95-8.66 7.95-8.66v-56.15s.14-7.09-7.95-8.66zM202.76 381.78h-33.38a1.13 1.13 0 0 1-1-.53 6.28 6.28 0 0 0-5.27-2.81h-8.64v76.82h14.07v-56.82a4.17 4.17 0 0 1 4.2-3.33h20.68a4.17 4.17 0 0 1 4.2 3.33v56.82h14.07v-65.35c-1.58-8.66-8.93-8.13-8.93-8.13z" transform="translate(-10.8 -45.43)"/>
  <path class="cls-1" d="M121.83 14.11l4.44 42.45-21.81 51.32 7.76-1.49 10.91 72.96 6.04-6.27 38.37 47.55.21-17.84-34.35-40.16-8.73-59.43 24.84-56.12-25.3-31.82-2.38-1.15zM174.87 118.49l3.61 14.44 26.9 10.4-4.89-14.68-25.62-10.16z"/>
  <path class="cls-2" d="M357.13 58.13L351.2 53l-42.09 3.84L284 45.43h-78.2l-25.15 11.44L138.56 53l-5.93 5.09v1.42l34.84 16.79-32 72.3 8.73 59.42 34.35 40.17v-18.11l-25.07-29.23-6.48-51.94L164.56 109l19.53-11.77L165.66 142l54.44 21.47 7.76 28.95-6.23 15.24-2.49-8.31-39.06-15.51-5.82-22.72-13.44-5.82 5.12 42.39 16.62 14.68 12.6-8.45v39.63l25.9 27.41 18.42-6.37-21.05-19v-18.83l26.44 24.38 26.44-24.38v18.84l-21.05 19 18.42 6.37 25.9-27.41V203.9l12.6 8.45 16.62-14.68 5.12-42.39-13.44 5.82-5.82 22.72-39.06 15.51-2.49 8.31-6.23-15.24 7.76-28.95L324.1 142l-18.43-44.75L325.21 109l17.59 39.89-6.51 51.94-25.07 29.23v18.15l34.35-40.17 8.73-59.42-32-72.3 34.84-16.79zm-104.62 68.66l-7.63 17.34-7.63-17.34-44.93-17 11.23-8.29L233 113.38l-2-11.89-30.1-11.67 10.25-7.63 19.63 7.63-2-11.45L209.77 71l8.83-7.42 26.28 8.94 26.28-8.94L280 71l-19.08 7.42-2 11.45 19.63-7.63 10.25 7.63-30.1 11.67-2 11.89 29.44-11.89 11.23 8.29z" transform="translate(-10.8 -45.43)"/>
  <path class="cls-1" d="M346.34 14.11l-4.44 42.45 21.82 51.32-7.77-1.49-10.91 72.96-6.04-6.27-38.37 47.55-.21-17.84 34.35-40.16 8.73-59.43-24.84-56.12 25.31-31.82 2.37-1.15zM293.3 118.49l-3.61 14.44-26.9 10.4 4.89-14.68 25.62-10.16zM261.1 241.73l-27.01-9.37-27.01 9.37-17.64-18.14 9.57 32.99 16.44-3.59 18.64 19.52 18.63-19.52 16.45 3.59 9.56-32.99-17.63 18.14z"/>
</svg>
