<svg id="Layer_1" xmlns="http://www.w3.org/2000/svg" viewBox="0 0 500 500">
  <style>
    .st0{fill:#96ca4f}
  </style>
  <g id="Houston">
    <path class="st0" d="M251.2 25L269 79.7h57.5L280 113.5l17.8 54.7-46.6-33.8-46.5 33.8 17.8-54.7-46.6-33.8h57.5z"/>
    <path d="M379.5 160.6l-2.9.8c-47.4 5.6-69.2 22.3-69.2 22.3-8.2 8-13.5 10.2-13.5 10.2-4 1.2-8.1 2-12.2 2.4-.8-.2-2.8 1.7-2.8 1.7-7.3 4.1-12.9 10.5-16 18.2-1.8-.9-3.7-1.6-5.7-2.2-4.6-1.2-9.5-1.3-14.2-.1-2.1.6-4.1 1.3-6 2.2-3.1-7.7-8.7-14.2-16-18.2 0 0-2-1.9-2.8-1.7-4.1-.3-8.2-1.1-12.2-2.4 0 0-5.3-2.2-13.5-10.2 0 0-21.8-16.7-69.2-22.3l-2.9-.8s-.6.5-.2 1.9l9.6 47.2 5.4-3.9s.4-.6 2.1-.6c0 0 27.4-1.9 35.5 7.7 0 0 3 4.1 3.4 7.6 0 0 .8 2-4.3 5.5 0 0-10 4.6-12 8.6-1.7 5-1.9 10.4-.4 15.5 0 0 .9 2.9 1.7 5.3 0 0 2.7 8 15.2 8.6 0 0 7.6.4 9.6 3.5 1.5 1.9 2.6 4.1 3.3 6.3l3.5 15.6c.5 2.8 1.7 5.3 3.6 7.4 0 0 5.4 5.9 8 8.1 0 0 .3.2.3 1.1v27.9c-.1 2.4 1.4 4.5 3.7 5.2.6.1 1.1.4 1.4.9 2 2.7 3.4 5.7 4.2 8.9l2.4 85.4s-.7 1.7 4.8 5l.8.2 9 1.3 1.4.7h1.4v8.5s-.1 2.4 4 3.1h7s3.4-.2 3.2-3.1v-1.6h4.2v1.6c-.2 3 3.2 3.1 3.2 3.1h7c4.1-.7 4-3.1 4-3.1v-8.6h1.4l1.4-.7 9-1.3.8-.2c5.6-3.3 4.8-5 4.8-5l2.4-85.4c.8-3.2 2.2-6.3 4.2-8.9.3-.5.9-.8 1.4-.9 2.3-.7 3.8-2.8 3.7-5.2v-27.9c0-.8.3-1.1.3-1.1 2.6-2.2 8-8.1 8-8.1 1.9-2.1 3.1-4.6 3.6-7.4l3.5-15.6c.7-2.3 1.9-4.4 3.3-6.3 2.1-3.1 9.6-3.5 9.6-3.5 12.5-.6 15.2-8.6 15.2-8.6.8-2.4 1.7-5.3 1.7-5.3 1.4-5.1 1.3-10.5-.4-15.5-2-4.1-12-8.6-12-8.6-5.1-3.5-4.3-5.5-4.3-5.5.4-3.5 3.4-7.6 3.4-7.6 8.1-9.6 35.5-7.7 35.5-7.7 1.7.1 2.1.6 2.1.6l5.4 3.9 9.6-47.2c.1-1.2-.5-1.7-.5-1.7zm-195.4 96.1c-2.8 1.9-6.2 2.7-9.5 2.3-4-.7-7.3-3.6-8.4-7.5-1.1-3.1-1.5-6.4-1.2-9.7.8-5.1 4.7-5.9 9.6-6.5 7.9-1 9.6 2.3 9.6 2.3 2.9 3.7 2.9 13.1 2.9 13.1-.2 2.3-1.3 4.4-3 6zM255 418.4c.5 4-2.7 7-2.7 7v14.1h-4.6v-14.1s-3.2-2.9-2.7-7l-.3-86c.2-2.2 1.1-4.2 2.8-5.6h5.1c1.6 1.4 2.6 3.5 2.8 5.6l-.4 86zm2.3-191.6l-3.4 6.8c-.4.9-.8 1.8-1.1 2.8v71h-5.5v-71c-.3-.9-.7-1.9-1.1-2.8l-3.4-6.8c-.6-1.3-.4-2.8.4-3.9 7.8-4.6 13.6-.1 13.6-.1.9 1.2 1.1 2.7.5 4zm68.2 8.5c4.9.6 8.8 1.5 9.6 6.5.3 3.3-.1 6.6-1.2 9.7-1.2 3.9-4.4 6.8-8.4 7.5-3.4.4-6.7-.4-9.5-2.3-1.8-1.5-2.8-3.7-2.9-6.1 0 0 0-9.3 2.9-13.1-.1.1 1.8-3.2 9.5-2.2z" fill="#fff"/>
    <path class="st0" d="M113.7 159.4c-1.4-.2-2.8-.6-4.1-1.1-10-6.9-16.2-18.1-16.5-30.3 0 0-3-21.4 10.3-39.5v-2.2s-33.3 26.1-33.3 60.1c0 0 .8 26.2 8.9 37.8 0 0 12 17.5 45.5 24.4l-10.8-49.2zM396.7 86.3v2.1C410 106.6 407 128 407 128c-.3 12.2-6.5 23.4-16.5 30.3-1.3.5-2.6.9-4 1.1l-10.8 49.2c33.4-6.9 45.3-24.3 45.3-24.3 8.1-11.6 9-37.8 9-37.8 0-34.1-33.3-60.2-33.3-60.2z"/>
  </g>
</svg>
