<svg id="Layer_1" data-name="Layer 1" xmlns="http://www.w3.org/2000/svg" width="414.7" height="480">
  <defs>
    <style>
      .cls-1{fill:#fff}.cls-2{fill:#97d700}
    </style>
  </defs>
  <path class="cls-1" d="M95.86 384.5h-7v-10.4h-4.45v25.11h4.45v-10.4h7v10.4h4.49v-25.1H95.9zM136 374.1h-4.45a5.7 5.7 0 0 0-5.72 5.68v13.72a5.68 5.68 0 0 0 5.64 5.72H136a5.7 5.7 0 0 0 5.72-5.68v-13.71a5.7 5.7 0 0 0-5.68-5.72zm1.27 18.57a2 2 0 0 1-2.27 2.23h-2.54a2 2 0 0 1-2.23-2.23v-12a2 2 0 0 1 2.23-2.23H135a2 2 0 0 1 2.23 2.23zm41.39 0a2 2 0 0 1-2.23 2.23h-2.54a2 2 0 0 1-2.23-2.23v-18.56h-4.45v19.39a5.68 5.68 0 0 0 5.64 5.72h4.52a5.7 5.7 0 0 0 5.72-5.68v-19.43h-4.42zm33.48-14.24h2.54a2 2 0 0 1 2.22 1.76 1.93 1.93 0 0 1 0 .24l4.45-1.11a5.75 5.75 0 0 0-5.72-5.21h-4.45a5.7 5.7 0 0 0-5.72 5.68v1.88a6.05 6.05 0 0 0 4.23 5.75l5.79 2.32a1.83 1.83 0 0 1 1.43 2v.86a2 2 0 0 1-2.23 2.23h-2.54a2 2 0 0 1-2.22-1.75v-.32l-4.45 1.11a5.7 5.7 0 0 0 5.72 5.28h4.45a5.7 5.7 0 0 0 5.73-5.67V391c0-2.64-1.72-4.26-4.16-5.25l-6-2.38c-1.08-.45-1.3-1-1.3-2.45v-.32a2 2 0 0 1 2.24-2.22zm31.57 0h5.72v20.79h4.45v-20.79h5.72v-4.32h-15.9zm51.56-4.32h-4.47a5.7 5.7 0 0 0-5.72 5.68v13.71a5.68 5.68 0 0 0 5.64 5.72h4.53a5.7 5.7 0 0 0 5.72-5.68v-13.71a5.7 5.7 0 0 0-5.68-5.72zm1.27 18.57a2 2 0 0 1-1.76 2.22 2.81 2.81 0 0 1-.41 0h-2.54a2 2 0 0 1-2.23-2.23v-12a2 2 0 0 1 2.23-2.23h2.54a2 2 0 0 1 2.23 2.23zm38.25-18.57v14.69l-7.25-14.69h-4.17v25.11h4.45V384.6l7.28 14.62h4.16v-25.11z" id="HOUSTON"/>
  <path class="cls-2" d="M160.25 427.41h17.4v-11.73h-48.74v11.73h17.41v15.54l-6.19 5.02 6.19 5.02v26.99h13.93v-26.99l6.19-5.02-6.19-5.02v-15.54zM197 463.6V453l6.19-5.01-6.19-5.02V415.7h-13.93v27.27l-6.19 5.02 6.19 5.01v17.82l11.24 9.18 29.28-.02v-11.73h-20.84L197 463.6zM355.34 415.7l-13.93 11.85v36.05l-5.75 4.65h-3.74V427.4h-13.93v40.85h-3.74l-5.75-4.65v-36.05l-13.93-11.85v27.27l-6.19 5.02 6.19 5.01v17.95l11.04 9.05h38.51l11.22-9.05V453l6.19-5.01-6.19-5.02V415.7zM279.62 425.15l-11.69-9.47h-27.58l-11.69 9.47V443l-6.19 5 6.19 5v27l13.93-11.33V453l.23-.18h22.92v15.85L279.62 480v-27l6.19-5-6.19-5zM265.69 443h-23.15v-11l5.51-4.16h12.13l5.51 4.16zM122.48 415.68l-13.92 11.33v16.27l-5.8 4.69 5.8 4.7v11l-5.51 4.16H90.92l-5.51-4.16V452.8l5.96-4.83-5.96-4.83v-16.13l-13.93-11.33v26.99l-6.19 5.02 6.19 5.02v17.82L83.17 480h27.63l11.68-9.47v-17.82l6.2-5.02-6.2-5.02v-26.99zM57.41 442.67v-17.52l-11.69-9.47H18.1l-11.69 9.47v17.52L0 447.84 6.41 453v17.52L18.1 480h27.62l11.69-9.47V453l6.4-5.17zm-13.93.6L37.69 448l5.79 4.69v11L38 467.85H25.84l-5.49-4.18V452.8l6-4.8-6-4.83V432l5.51-4.16H38l5.49 4.16zM398.51 447.5v-7.13h-8.52l-11.32-9.48 4.04-3.04h12.13l5.51 4.16v5.93h13.93v-12.79l-11.69-9.47h-27.63l-11.69 9.47v9.24l15.96 13.34v7.15h8.56l11.49 9.6-4.44 3.35h-11.79l-5.51-4.16v-6.34h-13.93v13.2L375.3 480h27.29l12.11-9.7v-9.25l-16.19-13.55zM211.12 0l14.29 43.97h46.24l-37.41 27.18 14.29 43.97-37.41-27.18-37.4 27.18 14.29-43.97-37.41-27.18h46.24L211.12 0z"/>
  <path class="cls-1" d="M315.07 108.85l-2.31.61c-38.1 4.5-55.64 17.93-55.64 17.93-6.61 6.44-10.88 8.21-10.88 8.21a46 46 0 0 1-9.8 1.9c-.61-.14-2.23 1.37-2.23 1.37a29.36 29.36 0 0 0-12.86 14.66 33.72 33.72 0 0 0-4.58-1.74 22.43 22.43 0 0 0-11.39-.06 35 35 0 0 0-4.86 1.8 29.3 29.3 0 0 0-12.84-14.67s-1.62-1.5-2.23-1.37a46 46 0 0 1-9.8-1.9s-4.27-1.76-10.88-8.21c0 0-17.53-13.43-55.64-17.93l-2.31-.61s-.44.4-.18 1.51l7.71 37.94 4.38-3.17s.36-.45 1.7-.49c0 0 22-1.51 28.53 6.21 0 0 2.39 3.32 2.74 6.15 0 0 .61 1.61-3.49 4.4 0 0-8.06 3.66-9.67 6.93a20.94 20.94 0 0 0-.35 12.46s.7 2.35 1.35 4.27c0 0 2.16 6.41 12.19 6.93 0 0 6.07.31 7.73 2.79a16.89 16.89 0 0 1 2.66 5.1l2.88 12.55a11.68 11.68 0 0 0 2.88 5.93s4.33 4.73 6.45 6.51c0 0 .26.19.22.85v22.46a4.23 4.23 0 0 0 3 4.16 1.68 1.68 0 0 1 1.15.69 19.7 19.7 0 0 1 3.36 7.16l2 68.66s-.59 1.37 3.87 4l.62.12 7.22 1 1.09.6h1.11v6.86s-.11 1.91 3.21 2.46h5.62s2.71-.14 2.57-2.52v-1.27h3.34v1.27c-.14 2.38 2.57 2.52 2.57 2.52h5.62c3.32-.55 3.21-2.46 3.21-2.46v-6.82h1.11l1.09-.6 7.22-1 .62-.12c4.47-2.62 3.87-4 3.87-4l2-68.66a19.7 19.7 0 0 1 3.36-7.16 1.68 1.68 0 0 1 1.15-.69 4.23 4.23 0 0 0 3-4.16v-22.5c0-.67.22-.85.22-.85 2.12-1.78 6.45-6.51 6.45-6.51a11.68 11.68 0 0 0 2.88-5.93l2.83-12.55a16.89 16.89 0 0 1 2.66-5.1c1.66-2.48 7.73-2.79 7.73-2.79 10-.52 12.19-6.93 12.19-6.93.65-1.92 1.35-4.27 1.35-4.27a20.94 20.94 0 0 0-.35-12.46c-1.61-3.27-9.67-6.93-9.67-6.93-4.1-2.79-3.49-4.4-3.49-4.4.35-2.83 2.74-6.15 2.74-6.15 6.53-7.71 28.53-6.21 28.53-6.21 1.34 0 1.7.49 1.7.49l4.38 3.17 7.73-37.94c.1-1.1-.34-1.5-.34-1.5zM158 186.12a11 11 0 0 1-7.7 1.88 8.57 8.57 0 0 1-6.77-6 17.88 17.88 0 0 1-.95-7.81c.68-4.06 3.77-4.72 7.72-5.23 6.35-.83 7.72 1.82 7.72 1.82 2.3 3 2.3 10.49 2.3 10.49a6.87 6.87 0 0 1-2.36 4.87zm57 130a7.18 7.18 0 0 1-2.16 5.59V333h-3.67v-11.27a7.18 7.18 0 0 1-2.16-5.59l-.32-69.14a6.7 6.7 0 0 1 2.21-4.51h4.1a6.7 6.7 0 0 1 2.21 4.51zm1.81-154l-2.7 5.47a22.76 22.76 0 0 0-.9 2.24v57h-4.43v-57a22.76 22.76 0 0 0-.9-2.24l-2.7-5.47a3 3 0 0 1 .33-3.11c6.25-3.66 10.93 0 10.93 0a3 3 0 0 1 .36 3.1zm54.86 6.82c3.94.51 7 1.17 7.72 5.23a17.83 17.83 0 0 1-1 7.83 8.57 8.57 0 0 1-6.77 6 11 11 0 0 1-7.67-1.85 6.86 6.86 0 0 1-2.35-4.87s0-7.5 2.3-10.49c.05 0 1.58-2.67 7.76-1.87z"/>
  <path class="cls-2" d="M101.35 107.92A13.62 13.62 0 0 1 98 107a30.49 30.49 0 0 1-13.23-24.34s-2.42-17.22 8.28-31.76v-1.7s-26.78 21-26.78 48.31c0 0 .66 21.1 7.19 30.39 0 0 9.61 14 36.58 19.59zM328.87 49.2v1.7c10.66 14.54 8.25 31.74 8.25 31.74A30.46 30.46 0 0 1 323.86 107a13.09 13.09 0 0 1-3.18.89L312 147.45c26.86-5.56 36.43-19.56 36.43-19.56 6.53-9.3 7.19-30.39 7.19-30.39.03-27.34-26.75-48.3-26.75-48.3z"/>
</svg>
