<svg id="Layer_1" data-name="Layer 1" xmlns="http://www.w3.org/2000/svg" width="480" height="364.39">
  <defs>
    <style>
      .cls-1{fill:#5788ce}.cls-2{fill:#fff}
    </style>
  </defs>
  <path class="cls-1" d="M343.65 387.22A30.21 30.21 0 0 1 353 392l-.07.07s-6.69 3.39-10.6 4.43l-3-1.76L322.5 385l-.3-.17-.4-.24-6.22-3.62c-4.77-2.78-12.9-7.94-17.69-11h-29.31l1.66-2.87s-3.85 1.23-12.27 1.85l-.07.12v6.65c19.38.12 39.55 1.74 48.22 6.41 7.55 4.07 21.67 13.3 26.08 16.21l.1.07.65.43.39.25.2.13a13.15 13.15 0 0 1 .91 1l.06.06a49.28 49.28 0 0 1 5.46 9.18c4.48-.07 14.76-4.65 18.58-6.42v-20.2l-9.19-5.52zm-126.08-2.66h2.06c4.56-2.42 12.26-4.47 19.36-6v-7.32a151 151 0 0 0-15.34 2.8zm113.7-14.65H301.2c10.49 3.33 22.16 9.51 23.94 10.47zm-140.46 4.78l-6.33 10.93c2.81 1.2 6.24 2.62 8.68 3.62l6.84-11.88-1.2.11s-4.13-1.4-7.99-2.78zm250.89.52a67.47 67.47 0 0 1-11.12 8.86s7.65 1.22 23.89-9.64a32 32 0 0 1-12.77.78zm17.2-14.77c-7.21 1.74-17.89 1.65-17.89 1.65l-11-.33-36 30 .16.14c8.86-3.61 25.87-8.28 25.87-8.28.78-6.35 8.05-13.47 8.05-13.47a28.58 28.58 0 0 1 11.06-1.65c4.34.18 2.86 3.65 2.86 3.65 7.65-1.82 23-5 23-5a47.09 47.09 0 0 0 7.39-5.3 188.81 188.81 0 0 0 17.6-15.48c-7.73 4.78-23.89 12.34-31.1 14.07zm-186.06-10.16A23.09 23.09 0 0 1 266 355l-3 5.16a70 70 0 0 1 12.26-1.79l4-6.87.13-.22h18.27L284.22 342s-9.94-1.28-10.16-1.12c-3.22 2.25-12.17-2.78-12.17-2.78l-16.07-6.67a62.27 62.27 0 0 1 7.56 5.39c2.43 2.25 5.91 4.86 5.91 4.86 10.25 1.22 13.55 8.6 13.55 8.6zm-39.24-11.64c-.2-.07 4-2.35 13.55-3.39l-24.76-4.62s11.4 8.08 11.21 8.01z" transform="translate(-10 -67.81)"/>
  <path class="cls-2" d="M268.05 351.54l-52.9-.13-.08.13H215l-46.5 80.36 21.63.09.05-.09h.08L207 402.88h32v29.31h18.9V369l10.16-17.47zm-50.48 33l8.43-14.63h13v14.65z" transform="translate(-10 -67.81)"/>
  <path class="cls-2" d="M164.45 335.13l29.76-51.4h-.11l.08-.13H95.54l-.09.13h-.03L83.16 302.1H161.87l-8.44 14.6h-46.82l.05.06h-.02l5.7 6.45-13.09 22.51H81.33L46.71 302.1h22.6l14.53-18.5-76.8.13h-.42l49.17 61.99H12.43L0 364.09l110.18.12 16.97-29.14 37.3.06z"/>
  <path class="cls-2" d="M442.53 351.32h-28.71l-36.31 30.19v-30.19h-98.12l-.12.22-10.68 18.37h62.69l-8.58 14.65h-.89l17.5 10.17 19.27-33.29v68.34l-32.06-26.86h8l.88-1.52a18.15 18.15 0 0 0-1.87-2.24s-13.52-9-23.07-14.62h-46.35l4.47 4.81v42.74h19.11v-29.21h9l34.65 29.23h46.21v-26.64l2.13-1.78 33.83 28.42h29L394 391.78z" transform="translate(-10 -67.81)"/>
  <path class="cls-2" d="M221.98 143.65L432.45 82.2h-93.59L371 56.49l-179.88 6.43L244.41 0 101.87 40.42l-57.72 73.17 18.48-3.12 8.16-6.94 30.93-34.4 48.53-14.85 26.41-15.3 8.64 9.56-17.86 21.25-13.67 6.9 6.86 4.09 122.96-1.17-14.58 23.75-78.5 3.82-1.57 15.75-15.59 16.49-3.5 16.64-13.62 13.52-14 18.3-66.98-11.22-2.12.27 25.13 39.86h55.03l98.81-53.45-22.89-2.01-7.23-17.68z"/>
  <path class="cls-1" d="M139.79 322.12v-4.69h-5.09v4.69h-1.65v-10.83h1.65v4.27h5.09v-4.27h1.63v10.83zM172.51 322.12l-.81-2.21h-4.62l-.83 2.21h-1.7l4.22-10.83h1.42l4.11 10.83zm-3.12-8.38l-1.63 4.34H171zM236.26 322.12H231c-1 0-1.6-.81-1.6-2.1v-6.64c0-1.26.63-2.09 1.6-2.09h5.29c1 0 1.61.79 1.61 2.09v.78l-1.65.39v-1.4H231v7.07h5.2v-2.49h-2.65V316h4.31v4a1.9 1.9 0 0 1-1.6 2.12zM261.07 322.12v-1l5.21-8h-4.71v-1.88h7.36v.92l-5.26 8H269v1.88zM298.89 322.12v-4.69h-5.09v4.69h-1.65v-10.83h1.65v4.27h5.09v-4.27h1.63v10.83zM330.65 322.12h-5.34c-1 0-1.59-.84-1.59-2.1v-6.64c0-1.31.59-2.09 1.59-2.09h5.34c1 0 1.61.78 1.61 2.09V320c0 1.26-.65 2.12-1.61 2.12zm0-9h-5.26v7.09h5.26zM362 322.12h-4.9c-.95 0-1.6-.86-1.6-2.1v-8.73h1.66v8.95h4.78v-8.95h1.66V320c-.04 1.26-.7 2.12-1.6 2.12z" transform="translate(-10 -67.81)"/>
  <path class="cls-1" d="M194.46 243.48v5.45l-5.13-5.45h-1.7v10.83h1.7v-7.8l5.13 5.38v2.42h1.71v-10.83h-1.71z"/>
</svg>
