<svg id="Layer_1" xmlns="http://www.w3.org/2000/svg" viewBox="0 0 500 500">
  <style>
    .st1{fill:#381460}
  </style>
  <g id="LA_-_Gladiators">
    <path d="M133.2 83l17.7 2.8c2-.1 1.4-1.5 1.4-1.5v-13c30-16.2 63.6-24.6 97.7-24.5 113.2 0 205 91 205 203.2 0 51.8-19.9 101.6-55.6 139.1l-12.9-13.3s-18-15.4-35.9-29.8l24.8 33.2s10.3 13.2 13.3 20.3c-83.2 75.6-211.6 70.6-288.7-11.1v-20.3c-.1-.8-.6-1.4-1.2-1.9l-22.6-19.9c-.8-.4-1.6-.4-2.4 0l-3.5 1.6C53.7 318 45 284.3 45 250c0-69.2 34.9-130.3 88.2-167z" fill="#fff"/>
    <path class="st1" d="M174.8 89.5c78-36 168.4-10.4 218.2 56.3C343.5 83.5 252.2 62 177.9 96.3 102.6 131.1 59.1 216.5 76.2 295.4 56.1 213.2 95.7 126 174.8 89.5zM426.6 235.6c2.5 49.1-15 97.1-48.6 133l-4.8-4c34-34 54.6-80.6 53.4-129zM289.5 412.1c29.3-7.4 56.3-22.1 78.5-42.7l3.9 5.3c-22.5 21.8-50.3 37.2-80.7 44.8-83.4 20.8-167.4-21.2-203.9-96.1 37.1 70.4 122.8 108.5 202.2 88.7z"/>
    <path class="st1" d="M396.7 178.2l-12.4.1c-15.4-6.9-32.9-8.7-32.9-8.7.1-1.1.4-2.2.9-3.2.6-1.1.5-2.5-.3-3.5-8-6.4-17.7-10.3-27.9-11.1-2.1-5.7-7.2-17-7.2-17-.9-3.1-3.2-5.7-6.3-6.9-10.8-6.7-36-12.6-43.5-14.2s-24-2.5-24-2.5c-13.9.1-32.2 0-32.2 0-11.6.6-23.1-1.9-33.3-7.3l.1 2.4c2.4 6.3 5.2 12.5 8.3 18.5-27.3 43.6-1.2 85.6-1.2 85.6-41.5-43-13.3-78.5-13.3-78.5-30.3 10.1-51.2 47.4-51.2 47.4-1 2.1-2.3 4.1-3.9 5.9-.7.8-9.6 9.7-9.6 9.7-5.8 7.6-21.5 12.8-21.5 12.8 6.7 6.7 16.1 10.1 25.6 9.3-3.1 17.2-.9 36.7-.9 36.7 7.7 46 24.9 52.4 24.9 52.4l22.5 4.8c63.6 22.5 78.5 43.6 78.5 43.6-2.1-20.8-14.9-35.4-31.7-47.8-14.1-10.6-26.3-23.5-35.9-38.3 0 0 22.4 19.4 41.6 29.7 66 35.4 45.2 77.9 45.2 77.9-4.5 13.3-19 24.3-19 24.3 22.4 0 35.3-6.9 35.3-6.9 24.5-12.6 32.3-25.8 32.3-25.8-2.3-26.7-26.4-90.8-26.7-91.9-1.5-4.5-10.5-24.6-10.5-24.6 17.2-1.2 23.8 3.1 23.8 3.1 1.1 4.4 1.3 9 .4 13.5-1.2 4.8-4.9 10.8-4.9 10.8s6-1 10-.1c26 6.2 27.3 26.2 27.3 26.2-4.2 6.3-13.7 10.6-13.7 10.6 4.7 1.9 9.7 3.1 14.8 3.7l11.6-4.7c12.1-5.6 21.4-18.2 21.4-18.2.5-.5.7-1.3.5-2-5.8-11 1.9-23.7 1.9-23.7l-.7-9.9-.7-.2c-1.6 4.4-4.9 8-9.2 10-3.4 1-8.6 0-8.6 0-11.9-3.6-15.2-7.5-15.2-7.5-4.7-10.9-3.2-15.2-3.2-15.2 5.3-14 15.9-25.3 29.6-31.3 2.9-.6 4 .6 4 .6 11.9 12.3 18.5 10.9 18.5 10.9.6-.6.9 0 .9 0 .7 1.8-.5 10.5-.5 10.5 11.7-7.1 19.5-30.8 19.5-30.8.9-3.1 0-3.6 0-3.6-5.3-7.5-17.3-18.4-17.3-18.4 6.6 2.5 13 5.7 18.8 9.7.9-4.8 1.2-16.9 1.2-16.9zm-143-36.8s-11.5-8.5-30.5-9.3c0 0-2.5-.1-2.5 1.9 0 0-.6 12.5 2.1 22.5 0 0 .1 1.6 3.3 3.5l15.3 11.1s1.9.9 2.8 6.8l10.7 49.8s-14.3-34.6-24.7-50.4c0 0-9.9-5.8-14.5-10.5 0 0-8.6-19.7-3.3-45.2 0 0 .1-1.3 3.3-.8 0 0 7.7-2 36.6 13.6 0 0 21.8-.4 32.9 4.6 0 0-23.8-.1-31.5 2.4zm61.6 33.2l18.5-2.9s4.9-1.8 5.1 2.4l-.5 6.9 3.8 5.8-26.9-12.2z"/>
  </g>
</svg>
